<?xml version="1.0" encoding="utf-8"?>
<!-- Generator: Adobe Illustrator 19.2.1, SVG Export Plug-In . SVG Version: 6.00 Build 0)  -->
<svg version="1.1" id="Layer_1" xmlns="http://www.w3.org/2000/svg" xmlns:xlink="http://www.w3.org/1999/xlink" x="0px" y="0px"
	 viewBox="0 0 768 768" style="enable-background:new 0 0 768 768;" xml:space="preserve">
<style type="text/css">
	.st0{fill:#282039;}
	.st1{clip-path:url(#SVGID_1_);fill:#302744;}
	.st2{clip-path:url(#SVGID_1_);fill:#F3EED9;}
	.st3{clip-path:url(#SVGID_1_);}
	.st4{fill:#F3EED9;stroke:#F3EED9;stroke-linecap:round;stroke-linejoin:round;stroke-miterlimit:10;}
	.st5{clip-path:url(#SVGID_1_);fill:none;stroke:#F3EED9;stroke-miterlimit:10;}
	.st6{opacity:0.7;clip-path:url(#SVGID_1_);}
	.st7{fill:#706F9B;}
	.st8{fill:#15F2DB;}
	.st9{fill:#00E1D5;}
	.st10{opacity:0.8;clip-path:url(#SVGID_1_);}
	.st11{fill:#FC2A7D;}
	.st12{fill:#ED007E;}
	.st13{fill:#FAD58F;}
	.st14{fill:#F3EED9;}
	.st15{fill:#D0CEB7;}
	.st16{fill:#FFD687;}
	.st17{fill:#FFBC87;}
</style>
<rect transform="matrix(-1 -1.224647e-16 1.224647e-16 -1 768 768)" class="st0" width="768" height="768"/>
<g>
	<defs>
		<rect id="SVGID_3_" x="0.3" transform="matrix(-1 -1.224647e-16 1.224647e-16 -1 768.6171 768)" width="768" height="768"/>
	</defs>
	<clipPath id="SVGID_1_">
		<use xlink:href="#SVGID_3_"  style="overflow:visible;"/>
	</clipPath>
	<path class="st1" d="M718.1,681.3l-651.1,0c-21.6,0-39.2,17.5-39.2,39.2v0c0,21.6,17.5,39.2,39.2,39.2l651.1,0
		c21.6,0,39.2-17.5,39.2-39.2v0C757.3,698.8,739.8,681.3,718.1,681.3z"/>
	<circle class="st2" cx="295" cy="704.2" r="5.1"/>
	<circle class="st2" cx="466" cy="744.2" r="5.1"/>
	<g class="st3">
		<line class="st4" x1="592.8" y1="716.4" x2="589.4" y2="724.5"/>
		<line class="st4" x1="595.1" y1="722.2" x2="587.1" y2="718.7"/>
	</g>
	<g class="st3">
		<line class="st4" x1="562.8" y1="605.4" x2="559.4" y2="613.5"/>
		<line class="st4" x1="565.1" y1="611.2" x2="557.1" y2="607.7"/>
	</g>
	<circle class="st5" cx="678" cy="706.2" r="4.7"/>
	<circle class="st5" cx="507" cy="466.2" r="4.7"/>
	<ellipse transform="matrix(0.7071 -0.7071 0.7071 0.7071 -439.7688 386.7509)" class="st2" cx="247" cy="724.2" rx="2" ry="2"/>
	<ellipse transform="matrix(0.7071 -0.7071 0.7071 0.7071 -317.1681 684.7355)" class="st2" cx="668" cy="725.2" rx="2" ry="2"/>
	<g class="st3">
		<line class="st4" x1="375.2" y1="715" x2="377.9" y2="723.3"/>
		<line class="st4" x1="380.7" y1="717.8" x2="372.4" y2="720.5"/>
	</g>
	<path class="st1" d="M718.1,342.3l-651.1,0c-21.6,0-39.2,17.5-39.2,39.2v0c0,21.6,17.5,39.2,39.2,39.2l651.1,0
		c21.6,0,39.2-17.5,39.2-39.2v0C757.3,359.8,739.8,342.3,718.1,342.3z"/>
	<path class="st1" d="M718.1,8.3L67,8.3c-21.6,0-39.2,17.5-39.2,39.2v0c0,21.6,17.5,39.2,39.2,39.2l651.1,0
		c21.6,0,39.2-17.5,39.2-39.2v0C757.3,25.8,739.8,8.3,718.1,8.3z"/>
	<circle class="st2" cx="295" cy="372.2" r="5.1"/>
	<circle class="st2" cx="466" cy="405.2" r="5.1"/>
	<g class="st3">
		<line class="st4" x1="591.1" y1="384.1" x2="591.1" y2="392.8"/>
		<line class="st4" x1="595.4" y1="388.5" x2="586.7" y2="388.5"/>
	</g>
	<g class="st3">
		<line class="st4" x1="90.7" y1="384.1" x2="89.4" y2="392.8"/>
		<line class="st4" x1="94.4" y1="389.1" x2="85.8" y2="387.8"/>
	</g>
	<circle class="st5" cx="678" cy="374.2" r="4.7"/>
	<ellipse transform="matrix(0.7071 -0.7071 0.7071 0.7071 -205.0095 289.5105)" class="st2" cx="247" cy="392.2" rx="2" ry="2"/>
	<ellipse transform="matrix(0.7071 -0.7071 0.7071 0.7071 -81.7017 587.2023)" class="st2" cx="668" cy="392.2" rx="2" ry="2"/>
	<g class="st3">
		<line class="st4" x1="375.2" y1="383" x2="377.9" y2="391.3"/>
		<line class="st4" x1="380.7" y1="385.8" x2="372.4" y2="388.5"/>
	</g>
	<circle class="st2" cx="69.9" cy="574.2" r="7.1"/>
	<circle class="st2" cx="305" cy="498.2" r="5.1"/>
	<circle class="st5" cx="283.9" cy="263.2" r="7"/>
	<g class="st3">
		<line class="st4" x1="135.5" y1="94.8" x2="135.5" y2="103.5"/>
		<line class="st4" x1="139.9" y1="99.1" x2="131.2" y2="99.1"/>
	</g>
	<g class="st6">
		<g>
			<path class="st7" d="M698.3,481.8l-154.2,19.7c-1.5,0.2-3-0.9-3.2-2.4l0,0c-0.2-1.5,0.9-3,2.4-3.2l154.2-19.7
				c1.5-0.2,3,0.9,3.2,2.4v0C701,480.2,699.9,481.7,698.3,481.8z"/>
			<path class="st7" d="M597.6,497l0.1,0.6c0.2,1.4,1.5,2.5,3,2.9l0.1,0.8l-43.6,5.6c1.5-0.7,2.4-2.3,2.2-3.8l-0.1-0.6
				c-0.2-1.5-1.4-2.6-3.1-3l-0.1-0.5l43.6-5.6l0,0.1C598.4,494.2,597.4,495.6,597.6,497z"/>
			<path class="st7" d="M622.8,495.2l-0.1-0.6c-0.2-1.4-1-2.6-3-2.9l-0.1-0.9l43.8-5.6c-1.5,0.9-2.6,2.4-2.4,3.9l0.1,0.6
				c0.2,1.5,1.7,2.6,3.1,3l0.1,0.5l-43.6,5.6l0,0C622.5,497.9,623,496.6,622.8,495.2z"/>
		</g>
		<path class="st8" d="M650.7,493.4c2.9,22.6-13.1,42.8-35.7,45.7c-2.8,0.4-5.5,0.9-8.2-0.1h0c-5.1,0-10-1.3-14.5-3.5
			c-0.4-0.2-0.7-0.2-1.1-0.4c-1.9-1-3.7-2-5.5-3.2c-0.5-0.4-1-0.7-1.5-1.1c-1.8-1.4-3.5-3-5-4.7c-0.4-0.4-0.7-0.8-1.1-1.2
			c-1.1-1.4-2.2-2.8-3.1-4.3c-1.3-2-2.4-4.1-3.3-6.3c-0.8-1.9-1.4-3.8-1.9-5.8c-0.4-1.5-0.7-3.1-0.9-4.7c0-0.2,0-0.3-0.1-0.5
			c-0.1-0.9-0.2-1.8-0.2-2.7c0-0.8-0.1-1.6,0-2.4c0-0.1,0-0.2,0-0.3c0-2.5,0.3-5,0.8-7.5c0-0.2,0.1-0.5,0.1-0.7
			c0.3-1.4,0.7-2.8,1.1-4.2c0.2-0.5,0.3-0.9,0.5-1.4c0.7-2,1.6-3.9,2.6-5.7c0.3-0.5,0.6-1,0.8-1.5c0.9-1.5,2-3,3.1-4.4
			c0.2-0.3,0.4-0.5,0.6-0.7c1.7-2,3.5-3.8,5.5-5.4c1.5-1.2,3.1-2.3,4.7-3.3c4-2.4,8.5-4.1,13.2-5c0.9-0.2,1.7-0.3,2.6-0.4
			C627.2,454.9,647.8,470.8,650.7,493.4z"/>
		<path class="st7" d="M670.2,496.7c-0.1,0.1-0.1,0.2-0.1,0.4l-0.4,0c0.1-0.1,0.2-0.2,0.3-0.3C670.1,496.8,670.2,496.8,670.2,496.7z
			"/>
		<path class="st7" d="M677.4,495.5c-0.2,0.1-7,1.1-7.2,1.2C670.4,496.4,677.2,495.6,677.4,495.5z"/>
		<path class="st7" d="M677.4,495.5c-0.2,0.1-7,1.1-7.2,1.2C670.4,496.4,677.2,495.6,677.4,495.5z"/>
		<g>
			<path class="st9" d="M619.5,468.8l0.2,1.6c0.1,1.1-0.6,2.3-1.7,2.5l-44.1,5.6c0.3-0.5,0.6-1,0.8-1.5c1.1-1.8,2.4-3.5,3.8-5.2
				l38.7-4.9C618.3,466.8,619.3,467.7,619.5,468.8z"/>
		</g>
		<g>
			<path class="st9" d="M627.5,479.4l0.2,1.6c0.1,1.1-0.8,2.1-1.9,2.3l-56.4,7.2c0-0.2,0.1-0.5,0.1-0.7c0.3-1.4,0.7-2.8,1.1-4.2
				c0.2-0.5,0.3-0.9,0.5-1.4l53.8-6.9C626.1,477.2,627.4,478.3,627.5,479.4z"/>
		</g>
		<g>
			<path class="st9" d="M605,476.6l0.1,0.6c0.1,1.1,0.9,1.9,2,2.5c0.2,0.1,0.4,0.2,0.6,0.3c0.2,0.1,0.3,0.1,0.5,0.1l0.1,0.8
				l-37.5,4.8c0.2-0.5,0.3-0.9,0.5-1.4c0.7-2,1.6-3.9,2.6-5.7c0.3-0.5,0.6-1,0.8-1.5l32.5-4.1l0,0.1c-0.6,0.3-1.1,0.7-1.5,1.2
				c-0.1,0.1-0.1,0.2-0.2,0.3C605.1,475.1,604.9,475.8,605,476.6z"/>
		</g>
		<g>
			<path class="st9" d="M591,466.3l0.1,0.6c0.1,1.1,0.9,1.9,2,2.5c0.2,0.1,0.4,0.2,0.6,0.3c0.2,0.1,0.3,0.1,0.5,0.1l0.1,0.8
				l-16.3,2.1c0.2-0.3,0.4-0.5,0.6-0.7c1.7-2,3.5-3.8,5.5-5.4c1.5-1.2,3.1-2.3,4.7-3.3l4.4-0.6l0,0.1c-0.6,0.3-1.1,0.7-1.5,1.2
				c-0.1,0.1-0.1,0.2-0.2,0.3c-0.3,0.4-0.5,0.9-0.6,1.4C590.9,465.8,590.9,466.1,591,466.3z"/>
		</g>
		<g>
			<path class="st9" d="M611.7,518.1l0.2,1.6c0.1,1.1-0.6,2.3-1.7,2.5l-30.9,3.9c-0.4-0.4-0.7-0.8-1.1-1.2c-1.1-1.4-2.2-2.8-3.1-4.3
				l34.4-4.4C610.5,516.1,611.5,517,611.7,518.1z"/>
		</g>
		<g>
			<path class="st9" d="M619.7,528.7l0.2,1.6c0.1,1.1-0.8,2.1-1.9,2.3l-25.7,3.3c-0.4-0.2-0.7-0.3-1.1-0.5c-1.9-1-3.7-2.1-5.5-3.3
				c-0.5-0.4-1-0.8-1.5-1.1l33-4.2C618.3,526.5,619.6,527.6,619.7,528.7z"/>
		</g>
		<g>
			<path class="st9" d="M597.2,525.9l0.1,0.6c0.1,1.1,0.9,1.9,2,2.5c0.2,0.1,0.4,0.2,0.6,0.3c0.2,0.1,0.3,0.1,0.5,0.1l0.1,0.8
				l-14.7,1.9c-0.5-0.4-1-0.8-1.5-1.1c-1.8-1.4-3.5-3-5-4.7c-0.4-0.4-0.7-0.8-1.1-1.2l21.3-2.7l0,0.1c-0.6,0.3-1.1,0.7-1.5,1.2
				c-0.1,0.1-0.1,0.2-0.2,0.3C597.3,524.4,597.1,525.1,597.2,525.9z"/>
		</g>
		<g>
			<path class="st9" d="M607.6,533.3L607.6,533.3c-0.4,0.3-0.7,0.5-1,0.8c-0.2,0.1-0.3,0.3-0.5,0.5c-0.1,0.1-0.1,0.2-0.2,0.3
				c-0.4,0.6-0.7,1.4-0.6,2.1l0.1,0.6c0.1,0.9,0.6,1.6,1.4,2.1c-5.1-0.4-10-1.7-14.5-3.8c-0.4-0.2-0.7-0.3-1.1-0.5L607.6,533.3z"/>
		</g>
		<g>
			<path class="st9" d="M611.8,493.2l0.2,1.6c0.1,1.1-0.6,2.3-1.7,2.5l-41.5,5.3c-0.1-0.9-0.2-1.8-0.2-2.7c0-0.8-0.1-1.6,0-2.4
				c0.1-0.1,0.1-0.2,0.2-0.3c0.2-0.3,0.4-0.5,0.6-0.8l40.2-5.1C610.7,491.3,611.7,492.2,611.8,493.2z"/>
		</g>
		<g>
			<path class="st9" d="M605.6,459.8l0.2,1.6c0.1,1.1-0.6,2.3-1.7,2.5l-20,2.6c1.5-1.2,3.1-2.3,4.7-3.3c4-2.4,8.5-4.1,13.2-5
				l1.3-0.2C604.4,457.9,605.4,458.7,605.6,459.8z"/>
		</g>
		<g>
			<path class="st9" d="M613.4,505.3l0.2,1.6c0.1,1.1-0.8,2.1-1.9,2.3l-39.9,5.1c-0.8-1.9-1.4-3.8-1.9-5.8l41-5.2
				C612,503.2,613.2,504.3,613.4,505.3z"/>
		</g>
		<g>
			<path class="st9" d="M597.4,501l0.1,0.6c0.2,1.3,1.2,2.3,2.6,2.7c0.2,0.1,0.3,0.1,0.5,0.1l0.1,0.8l-30.7,3.9
				c-0.4-1.5-0.7-3.1-0.9-4.7c0-0.2,0-0.3-0.1-0.5c-0.1-0.9-0.2-1.8-0.2-2.7l30.8-3.9l0,0.1c-0.6,0.3-1.1,0.7-1.5,1.2
				c-0.4,0.5-0.7,1.1-0.8,1.7C597.4,500.6,597.4,500.8,597.4,501z"/>
		</g>
		<g>
			<path class="st9" d="M596,489.8l0.1,0.6c0.2,1.3,1.2,2.3,2.6,2.7c0.2,0.1,0.3,0.1,0.5,0.1l0.1,0.8l-30.5,3.9c0-2.5,0.3-5,0.8-7.5
				c0-0.2,0.1-0.5,0.1-0.7l28.6-3.6l0,0.1c-0.4,0.2-0.7,0.4-1,0.7c-0.2,0.1-0.3,0.3-0.5,0.5C596.2,488.1,595.9,489,596,489.8z"/>
		</g>
		<path class="st7" d="M687.4,491l0.2,1.6c0.1,1.1-0.9,2.4-2,2.5l-15.5,2c0-0.2,0.1-0.3,0.1-0.4c0.2-0.1,7-1.1,7.2-1.2
			c-0.2,0.1-7,0.9-7.2,1.2c-0.1,0-0.1,0.1-0.2,0.1c-0.1,0.1-0.2,0.2-0.3,0.3c-0.9,0.9-1.5,2-1.3,3.1l0.1,0.6
			c0.1,0.9,0.8,1.7,1.6,2.3l15.1-1.9c1.1-0.1,2.3,0.9,2.4,2l0.2,1.6c0.1,1.1-0.8,2.1-1.9,2.3l-159.5,20.4c-1.1,0.1-2.2-0.6-2.4-1.7
			l-0.2-1.6c-0.1-1.1,0.7-2.4,1.8-2.6l24.1-3.1c1.3-0.8,2-1.8,1.9-3.1l-0.1-0.6c-0.1-1.1-1-1.8-2.3-2.3l-23.1,3
			c-1.1,0.1-2.1-0.9-2.3-2l-0.2-1.6c-0.1-1.1,0.6-2.2,1.7-2.3l43.6-5.7c7.6,1.1,49.7,3.9,81.7-10.4l34.2-4.2
			C685.9,489,687.2,489.9,687.4,491z"/>
	</g>
	<g class="st10">
		<path class="st8" d="M86.3,305.5c0.1,1.3,0.2,2.5,0.2,3.8c0,0.3,0,0.6,0,0.8c0,0.5,0,1-0.1,1.5c0,0.2,0,0.4,0,0.5
			c-0.1,0.7-0.1,1.3-0.2,1.9c0,0,0,0,0,0c-0.3,2.2-0.9,4.4-1.6,6.4c-0.3,0.9-0.6,1.7-1,2.5c-0.4,0.8-0.8,1.6-1.2,2.4
			c0,0.1-0.1,0.2-0.1,0.2c-1,1.8-2.2,3.6-3.5,5.2c-0.7,0.8-1.3,1.6-2.1,2.3c-1,1-2.1,2-3.2,2.9c0,0,0,0,0,0
			c-5,3.9-11.1,6.6-17.8,7.3c-6.8,0.7-13.3-0.6-19-3.4c0,0,0,0,0,0c-1.9-0.9-3.7-2.1-5.4-3.3c-0.3-0.2-0.6-0.5-1-0.7
			c-0.1-0.1-0.2-0.2-0.3-0.2c-0.2-0.2-0.5-0.4-0.7-0.6c-1.2-1.1-2.4-2.2-3.4-3.4c-0.1-0.1-0.1-0.1-0.2-0.2c-1.2-1.4-2.2-2.9-3.2-4.4
			c0,0,0-0.1,0-0.1c-2.5-4.2-4.2-9-4.8-14.2c-0.4-3.8-0.2-7.6,0.6-11.2c0.2-0.8,0.4-1.5,0.6-2.2c0,0,0,0,0,0
			c0.2-0.6,0.4-1.2,0.6-1.8c0.1-0.3,0.2-0.6,0.3-0.9c0-0.1,0.1-0.2,0.1-0.3c0.1-0.2,0.2-0.4,0.3-0.6c0.1-0.3,0.3-0.6,0.4-1
			c0.2-0.5,0.5-1,0.7-1.4c0.1-0.3,0.3-0.6,0.5-0.9c0.2-0.4,0.4-0.7,0.6-1c0.2-0.3,0.4-0.7,0.6-1c0.3-0.5,0.6-1,1-1.4c0,0,0,0,0,0
			c0.7-0.9,1.4-1.8,2.2-2.7c0,0,0.1-0.1,0.1-0.1c5.5-6.2,13.3-10.4,22.2-11.4c16.9-1.8,32.3,9,36.8,24.8c0,0,0,0.1,0,0.1
			c0.2,0.6,0.3,1.3,0.5,1.9c0,0.2,0.1,0.4,0.1,0.7c0,0.3,0.1,0.5,0.1,0.7c0,0.1,0.1,0.3,0.1,0.4c0,0.1,0,0.2,0,0.3
			c0,0.1,0,0.1,0,0.2c0,0,0,0.1,0,0.2c0,0,0,0.1,0,0.1c0,0,0,0.1,0,0.1C86.2,304.7,86.3,305.1,86.3,305.5z"/>
		<g>
			<g>
				<path class="st9" d="M61.7,284.2l0.1,1.4c0.1,0.9-0.5,1.8-1.5,1.9l-38,4c0.2,0,0.4-0.5,0.6-0.8c0.9-1.5,1.9-3.9,3.2-4l33.8-3.5
					C60.9,283,61.6,283.3,61.7,284.2z"/>
			</g>
			<g>
				<path class="st9" d="M68.8,293.2l0.1,1.4c0.1,0.9-1.2,1.8-2.2,1.9l-48.5,5.1c0.4-0.9,0.7-3,1.1-4.3c0.1-0.3,0.3-0.3,0.3-1.1
					l46.5-4.9C67.1,291.1,68.7,292.2,68.8,293.2z"/>
			</g>
			<g>
				<path class="st9" d="M49.2,290.4l0.1,0.5c0.1,1.1,1.2,1.9,2.3,2.3c0.1,0.1,0.6,0.1,0.6,0.1l0,0.1l-32.7,3.4
					c0.1,0,0.2-0.3,0.4-0.6c0.7-1.8,1.6-3.4,2.6-5.1c0.2-0.3,0.5,0.1,0.6-0.8l28.5-3l0,0c0,0.2-1.1,0.6-1.4,1
					C49.6,289,49.1,289.7,49.2,290.4z"/>
			</g>
		</g>
		<g>
			<g>
				<path class="st9" d="M86.2,304.9L46.6,309c-0.9,0.1-1.7-1.1-1.8-2.1l-0.1-1.4c-0.1-0.9,0.5-1.7,1.4-1.8l39.2-4.1
					c0.3,0.8,0.7,2.7,0.9,4C86.1,304,86.1,304,86.2,304.9z"/>
			</g>
			<g>
				<path class="st9" d="M86.5,309.2c0,0,0,0.8,0,1.1c0,1.3-0.2,2.4-0.3,4.2l-30,3.1c-0.9,0.1-1.7-1.1-1.8-2l-0.1-1.4
					c-0.1-0.9,0.5-1.7,1.4-1.8L86.5,309.2z"/>
			</g>
			<g>
				<path class="st9" d="M86.3,305.5c0.1,1.3,0.2,2.5,0.2,3.8c0,0.3,0,0.9,0,0.9l-28.5,3c0.5-0.1,1-0.6,1.3-1
					c0.5-0.6,0.8-1.4,0.7-2.2l-0.1-0.5c-0.1-0.9-0.4-1.8-1.3-2.2c-0.3-0.2-0.7-0.3-0.7-0.4l-0.1-0.7l28.2-2.9c0,0,0.1,0.7,0.2,1
					C86.2,304.6,86.3,305.1,86.3,305.5z"/>
			</g>
		</g>
		<g>
			<g>
				<path class="st9" d="M83.5,321c-0.4,0-0.7,1.4-1,2.3c-0.4,0.9-0.7,2.3-1.2,2.3l-56.6,5.9c0,0-0.1,0-0.2-0.1
					c-1.2-1.4-2.2-2.6-3.2-4.1c0,0,0,0.2,0,0.2L83.5,321z"/>
			</g>
			<g>
				<path class="st9" d="M77.6,330.7c-0.7,0.8-1.3,1.7-2,2.5c-1,1.1-2.1,2-3.2,3L35.5,340c0,0,0,0,0,0c-1.9-0.9-3.7-2-5.4-3.3
					c-0.3-0.2-0.7-0.6-1-0.9c-0.1-0.1-0.2-0.4-0.3-0.4l48.3-5C77.2,330.4,77.4,330.7,77.6,330.7z"/>
			</g>
			<g>
				<path class="st9" d="M28.4,335.5l0.4,0c0.1,0,0.2,0.5,0.3,0.6c0.3,0.3,0.6,0.2,1,1.1l1.1-0.1l1.7-0.2l30.4-3.2l-0.1-1
					c-0.9,0-0.8-0.2-1.1-0.3c-0.9-0.5-1.7-1.2-1.8-2.1l-0.1-0.5c-0.1-0.6,0.3-1.2,0.7-1.8c0.3-0.5,0.8-0.9,1.6-1.2l0-0.1l-36.3,3.8
					l-1,0.1l0,0.4c0.9,0.1,1.1,0.3,1.5,0.5c0.7,0.5,1.3,1.2,1.4,2l0.1,0.5c0,0,0,0.1,0,0.1c0,0.3,0,0.7-0.1,1c0,0.1-0.1,0-0.1,0.1
					L28.4,335.5z"/>
			</g>
		</g>
		<path class="st9" d="M55.7,344.5c-19.5,2-37.1-12.2-39.2-31.7s12.2-37.1,31.7-39.2c19.5-2,37.1,12.2,39.2,31.7
			S75.2,342.5,55.7,344.5z M48.5,275.9c-18.3,1.9-31.7,18.4-29.8,36.7c1.9,18.3,18.4,31.7,36.7,29.8c18.3-1.9,31.7-18.4,29.8-36.7
			C83.3,287.3,66.8,273.9,48.5,275.9z"/>
	</g>
	<g class="st10">
		<path class="st11" d="M658,118.5c0.2,1.3,0.3,2.6,0.4,3.9c0,0.3,0,0.6,0,0.9c0,0.5,0,1,0,1.5c0,0.2,0,0.4,0,0.6
			c0,0.7-0.1,1.4-0.1,2c0,0,0,0,0,0c-0.2,2.3-0.7,4.6-1.3,6.7c-0.3,0.9-0.6,1.8-0.9,2.7c-0.3,0.9-0.7,1.7-1.1,2.6
			c0,0.1-0.1,0.2-0.1,0.2c-1,2-2.1,3.8-3.4,5.6c-0.6,0.9-1.3,1.7-2,2.5c-1,1.1-2.1,2.2-3.2,3.2c0,0,0,0,0,0
			c-5,4.3-11.2,7.3-18.2,8.4c-7,1.1-13.8,0-19.8-2.7c0,0,0,0,0,0c-2-0.9-3.9-2-5.7-3.2c-0.4-0.2-0.7-0.5-1-0.7
			c-0.1-0.1-0.2-0.2-0.3-0.2c-0.3-0.2-0.5-0.4-0.8-0.6c-1.3-1-2.5-2.2-3.7-3.4c-0.1-0.1-0.1-0.1-0.2-0.2c-1.3-1.4-2.5-2.9-3.5-4.4
			c0,0,0-0.1-0.1-0.1c-2.8-4.2-4.8-9.2-5.6-14.6c-0.6-4-0.5-7.9,0.1-11.6c0.1-0.8,0.3-1.6,0.5-2.4c0,0,0,0,0,0
			c0.2-0.6,0.3-1.2,0.5-1.9c0.1-0.3,0.2-0.6,0.3-0.9c0-0.1,0.1-0.2,0.1-0.3c0.1-0.2,0.2-0.5,0.2-0.7c0.1-0.3,0.3-0.7,0.4-1
			c0.2-0.5,0.4-1,0.7-1.5c0.1-0.3,0.3-0.6,0.4-0.9c0.2-0.4,0.4-0.7,0.6-1.1c0.2-0.4,0.4-0.7,0.6-1c0.3-0.5,0.6-1,0.9-1.5
			c0,0,0,0,0,0c0.6-1,1.4-2,2.1-2.9c0,0,0.1-0.1,0.1-0.1c5.4-6.7,13.3-11.5,22.5-12.9c17.5-2.6,33.9,7.8,39.4,24.1c0,0,0,0.1,0,0.1
			c0.2,0.6,0.4,1.3,0.6,2c0.1,0.2,0.1,0.4,0.2,0.7c0.1,0.3,0.1,0.5,0.2,0.8c0,0.1,0.1,0.3,0.1,0.4c0,0.1,0,0.2,0.1,0.3
			c0,0.1,0,0.1,0,0.2c0,0.1,0,0.1,0,0.2c0,0.1,0,0.1,0,0.1c0,0.1,0,0.1,0,0.1C657.9,117.7,657.9,118.1,658,118.5z"/>
		<g>
			<g>
				<path class="st12" d="M631.4,97.5l0.2,1.4c0.1,1-0.5,2.1-1.4,2.2l-39.3,5.9c0.1-0.6,0.4-0.9,0.6-1.2c0.9-1.6,1.9-3.3,3.1-4.6
					l34.9-5.3C630.4,95.8,631.3,96.6,631.4,97.5z"/>
			</g>
			<g>
				<path class="st12" d="M638.7,106.6l0.2,1.4c0.1,0.9-0.7,1.9-1.6,2l-50.1,7.6c0.3-1.2,0.6-3,1-4.4c0.1-0.3,0.2-0.5,0.3-1.1
					l48-7.2C637.4,104.7,638.5,105.6,638.7,106.6z"/>
			</g>
			<g>
				<path class="st12" d="M619,104.6l0.1,0.5c0.2,1.1,1.1,1.9,2.3,2.3c0.1,0,0.3,0.1,0.4,0.1l0.1,0.7l-33.7,5.1
					c0.1-0.3,0.2-0.6,0.3-0.9c0.6-1.9,1.5-3.8,2.4-5.6c0.2-0.4,0.4-0.7,0.6-1l29.4-4.4l0,0.1c-0.5,0.3-0.9,0.6-1.2,1.1
					C619.1,103.1,618.9,103.8,619,104.6z"/>
			</g>
		</g>
		<g>
			<g>
				<path class="st12" d="M657.8,117.5l-41,6.2c-0.9,0.1-2.1-0.7-2.2-1.7l-0.2-1.4c-0.1-1,0.7-2,1.6-2.1l40.5-6.1
					c0.4,1.1,0.8,2.7,1.1,4C657.7,116.7,657.7,116.9,657.8,117.5z"/>
			</g>
			<g>
				<path class="st12" d="M658.3,122.1c0.1,0.6,0,0.7,0.1,1c0,1.4,0,3.1-0.1,4.3l-31,4.7c-1,0.1-1.8-0.5-2-1.5l-0.2-1.4
					c-0.1-1,0.5-2.1,1.4-2.3L658.3,122.1z"/>
			</g>
			<g>
				<path class="st12" d="M658,118.5c0.2,1.3,0.3,2.6,0.4,3.9c0,0.3,0,0.6,0,0.9l-29.4,4.4c0.5-0.3,0.9-0.6,1.3-1.1
					c0.5-0.7,0.7-1.5,0.6-2.3l-0.1-0.5c-0.1-1-0.8-1.8-1.7-2.2c-0.3-0.1-0.7-0.3-1-0.3l-0.1-0.5l29.7-4.5c0.1,0.3,0.1,0.6,0.2,0.9
					C657.9,117.7,657.9,118.1,658,118.5z"/>
			</g>
		</g>
		<g>
			<g>
				<path class="st12" d="M655.7,134.2c-0.3,0.9-0.6,1.8-0.9,2.8c-0.3,0.9-0.7,1.9-1.1,2.8l-58.5,8.8c-0.1-0.1-0.1-0.1-0.2-0.2
					c-1.3-1.4-2.5-2.9-3.5-4.4c0,0,0-0.1-0.1-0.1L655.7,134.2z"/>
			</g>
			<g>
				<path class="st12" d="M650.1,145.3c-0.6,0.9-1.3,1.8-2,2.6c-1,1.2-2,2.3-3.2,3.2l-38.1,5.7c0,0,0,0,0,0c-2-0.9-3.9-2-5.7-3.2
					c-0.4-0.2-0.7-0.5-1-0.7c-0.1-0.1-0.2-0.2-0.3-0.2l49.9-7.5C649.8,145.1,650,145.3,650.1,145.3z"/>
			</g>
			<g>
				<path class="st12" d="M632.1,144.8l0.1,0.5c0.1,0.9,0.8,1.7,1.8,2.1c0.3,0.1,0.6,0.3,1,0.3l0.1,0.7l-33.9,5.1
					c-0.4-0.2-0.7-0.5-1-0.7c-0.1-0.1-0.2-0.2-0.3-0.2l-1.1,0.2c0.1-0.2,0.2-0.5,0.3-0.8c0.1-0.4,0.1-0.8,0.1-1.2l-0.1-0.5
					c-0.1-0.9-0.6-1.6-1.4-2c-0.4-0.2-0.8-0.4-1.3-0.5l-0.1-0.5l37.9-5.7l0,0.1c-0.6,0.3-1.1,0.8-1.4,1.3
					C632.2,143.6,632,144.2,632.1,144.8z"/>
			</g>
		</g>
		<g>
			<path class="st13" d="M585.8,118.8c-0.1,1-0.2,2.1-0.3,3.1c0.8-0.2,1.6-0.5,2.4-0.7c0.1-1,0.2-2.1,0.4-3.1
				C587.4,118.3,586.6,118.6,585.8,118.8z M656.3,108.6c-0.8,0-1.7,0-2.6,0c0.5,0.9,0.9,1.9,1.3,2.9c0.8,0,1.7,0,2.5,0
				C657.1,110.5,656.7,109.5,656.3,108.6z"/>
			<path class="st13" d="M677.6,115.3c0.2,4.3-7.5,8.4-18.2,12c-0.8,0.3-1.6,0.5-2.4,0.8c-10.5,3.3-23.3,5.9-33.8,7.5
				c-8.3,1.3-16.4,2.1-23.8,2.5c-2.9,0.2-5.8,0.3-8.5,0.3c-0.9,0-1.7,0-2.5,0c-1.6,0-3.2,0-4.6-0.1c-11.9-0.5-18-2.6-18.5-6.3
				c-0.7-4.7,8.5-9.3,20.6-13c-0.1,1-0.2,2.1-0.3,3.1c-1.2,0.4-2.4,0.8-3.5,1.2c-11.4,4.1-14.1,7.2-14,8.3c0.2,1.1,3.7,3.3,15.8,3.9
				c1.1,0,2.3,0.1,3.4,0.1c0.8,0,1.6,0,2.5,0c9.6,0,21-1,33-2.8c12.9-1.9,24.9-4.6,34.5-7.7c0.8-0.3,1.6-0.5,2.3-0.8
				c0.4-0.1,0.8-0.3,1.2-0.4c11.4-4.1,14.1-7.2,14-8.3c-0.2-1.1-3.7-3.3-15.8-3.9c-0.5,0-1,0-1.5,0c-0.3-1-0.7-2-1.2-2.9
				c11.6,0.2,20.6,1.9,21.3,6.4C677.6,115,677.6,115.2,677.6,115.3z"/>
		</g>
		<path class="st12" d="M659.1,118.3c-0.4-2.4-0.9-4.7-1.7-6.8c-0.3-1-0.7-2-1.2-2.9c-6.7-14.7-22.5-23.9-39.3-21.4
			c-16.6,2.5-29,15.8-31.2,31.6c-0.1,1-0.2,2.1-0.3,3.1c-0.1,2.4,0,4.9,0.4,7.4c0.3,2.1,0.8,4.1,1.4,6c0.8,0,1.6,0,2.5,0
			c-0.7-2-1.3-4.2-1.6-6.4c-0.4-2.6-0.5-5.3-0.3-7.8c0.1-1,0.2-2.1,0.4-3.1c2.4-14.4,13.9-26.3,29.1-28.6c15.3-2.3,29.9,5.8,36.4,19
			c0.5,0.9,0.9,1.9,1.3,2.9c0.9,2.3,1.5,4.7,1.9,7.2c0.3,2.1,0.4,4.2,0.4,6.2c0.8-0.3,1.6-0.5,2.3-0.8
			C659.6,122.2,659.4,120.3,659.1,118.3z M627.7,158.2c-15.6,2.4-30.5-6.2-36.8-19.9c-0.9,0-1.7,0-2.5,0
			c6.4,15.2,22.6,24.7,39.6,22.2c17.2-2.6,29.9-16.7,31.4-33.3c-0.8,0.3-1.6,0.5-2.4,0.8C655.2,143.1,643.4,155.8,627.7,158.2z
			 M588.2,129c-0.4-2.6-0.5-5.3-0.3-7.8c-0.8,0.2-1.6,0.5-2.4,0.7c-0.1,2.4,0,4.9,0.4,7.4c0.3,2.1,0.8,4.1,1.4,6c0.8,0,1.6,0,2.5,0
			C589,133.4,588.5,131.2,588.2,129z"/>
	</g>
	<g class="st3">
		<line class="st4" x1="490.2" y1="308" x2="492.9" y2="316.3"/>
		<line class="st4" x1="495.7" y1="310.8" x2="487.4" y2="313.5"/>
	</g>
	<circle class="st5" cx="628" cy="40.2" r="4.7"/>
	<circle class="st2" cx="697" cy="180.2" r="5.1"/>
	<ellipse transform="matrix(0.7071 -0.7071 0.7071 0.7071 -325.3181 331.0596)" class="st2" cx="237" cy="558.2" rx="2" ry="2"/>
	<circle class="st2" cx="729" cy="584.2" r="5.1"/>
	<g class="st10">
		<circle class="st14" cx="270.4" cy="20" r="35.5"/>
		<circle class="st15" cx="260" cy="5.5" r="5.1"/>
		<ellipse transform="matrix(0.7072 -0.707 0.707 0.7072 49.5664 192.4965)" class="st15" cx="257.2" cy="36.4" rx="2.5" ry="2.5"/>
		<ellipse transform="matrix(0.7072 -0.707 0.707 0.7072 68.9776 215.1052)" class="st15" cx="294.2" cy="24.3" rx="2.5" ry="2.5"/>
		<ellipse transform="matrix(0.7072 -0.707 0.707 0.7072 56.7283 197.6478)" class="st15" cx="267" cy="30.3" rx="1.8" ry="1.8"/>
	</g>
	<g class="st3">
		<line class="st4" x1="347.2" y1="30" x2="349.9" y2="38.3"/>
		<line class="st4" x1="352.7" y1="32.8" x2="344.4" y2="35.5"/>
	</g>
	<circle class="st2" cx="450" cy="59.2" r="5.1"/>
	<ellipse transform="matrix(0.7071 -0.7071 0.7071 0.7071 87.3613 289.3569)" class="st2" cx="393" cy="39.2" rx="2" ry="2"/>
	<g class="st10">
		<path class="st16" d="M168.2,678.4c22.7,51.6-0.8,111.6-52.4,134.3c-6.4,2.8-19.9,6.2-20.1,6.3c0,0-24,3.1-35.7,1.4
			c0,0-0.1,0-0.1,0c-0.2,0-0.3-0.1-0.5-0.1c-0.9-0.1-1.7-0.2-2.6-0.3c0,0,0,0,0,0c-0.1,0-0.2,0-0.3-0.1c-5.2-1-10.2-2.2-15.2-3.9
			c0,0-0.1,0-0.1,0c-1.5-0.5-2.9-1-4.4-1.6c0,0,0,0,0,0c-0.2-0.1-0.5-0.2-0.8-0.3c-0.1,0-0.1,0-0.2-0.1c-0.7-0.3-1.4-0.5-2.1-0.8
			c-0.2-0.1-0.3-0.2-0.5-0.3c-0.6-0.4-1-0.9-2.1-1c-0.1,0-0.3,0-0.4,0l0,0c0-0.1-0.1-0.2-0.2-0.2c-0.3-0.4-1.1-0.6-1.8-0.9l0,0
			c-0.3-0.1-0.6-0.2-0.8-0.3c-1.6-0.8-3.1-1.7-4.7-2.6c-0.3-0.2-0.6-0.4-0.9-0.6c-0.1-0.1-0.3-0.2-0.4-0.2c-0.2-0.1-0.3-0.2-0.5-0.3
			l0,0c-0.6-0.3-1.1-0.7-1.7-1.1c-0.6-0.4-1.1-0.7-1.6-1.1l0,0c-0.8-0.5-1.6-1.1-2.3-1.6c-0.6-0.4-1.1-0.8-1.7-1.2
			c-0.3-0.2-0.6-0.4-0.9-0.6c-0.5-0.4-1.1-0.8-1.6-1.3c-0.2-0.1-0.4-0.3-0.5-0.4c-0.7-0.5-1.4-1.1-2-1.7c-0.5-0.4-0.9-0.8-1.4-1.2
			c-4.4-3.8-8.5-8.1-12.2-12.7c-0.4-0.4-0.7-0.9-1.1-1.3c0,0-0.1-0.1-0.1-0.1c-0.5-0.6-1-1.3-1.5-1.9c-0.6-0.9-1.3-1.7-1.9-2.6
			c-0.2-0.3-0.4-0.6-0.6-0.9c-0.2-0.3-0.5-0.7-0.7-1c-0.3-0.4-0.5-0.8-0.8-1.2c-0.4-0.6-0.8-1.2-1.2-1.8c-0.3-0.5-0.7-0.9-1-1.4
			c-0.5-0.8-0.9-1.6-1.4-2.4c-0.1,0-0.1-0.1-0.1-0.2c-1.4-2.4-2.6-4.8-3.8-7.4l-0.1-0.3c-0.1-0.1,0-0.3-0.1-0.4
			c-0.2-0.4-0.3-0.8-0.4-1.2c-0.2-0.5-0.4-1-0.6-1.5c-0.6-1.5-1.2-3.1-1.8-4.6c-0.7-1.9-1.3-3.8-1.8-5.7c-0.1-0.2-0.1-0.4-0.2-0.6
			c-0.1-0.4-0.2-0.8-0.3-1.3c-0.4-1.4-0.7-2.8-1-4.2c-0.1-0.5-0.2-1.1-0.3-1.6c-0.2-1.1-0.4-2.2-0.6-3.3c-0.1-0.5-0.2-1-0.3-1.5
			c-0.1-0.7-0.2-1.4-0.3-2.1c-0.1-0.6-0.2-1.2-0.2-1.8c-0.1-0.8-0.2-1.7-0.3-2.5c-0.1-0.6-0.1-1.2-0.1-1.7
			c-0.3-3.6-0.3-7.2-0.2-10.7c0.1-1.2,0.1-2.5,0.2-3.7c0.4-5.2,1.1-10.4,2.3-15.4c0.3-1.4,0.6-2.7,1-4c0.3-1.1,0.6-2.3,1-3.4
			c0.1-0.3,0.2-0.6,0.3-0.8c0.2-0.6,0.3-1.1,0.5-1.7c0.1-0.2,0.1-0.5,0.3-0.7c0.1-0.4,0.3-0.8,0.4-1.2c0.2-0.7,0.5-1.4,0.8-2.2
			c0.3-0.9,0.7-1.8,1.1-2.7c0,0,0,0,0-0.1c0.3-0.7,0.6-1.4,0.9-2.1c2.6-5.9,5.7-11.5,9.4-16.8c1.9-2.8,4.1-5.6,6.3-8.2
			c0.9-1,1.7-2,2.6-3c7.8-8.5,17.2-15.8,27.9-21.3c1.9-1,3.9-2,5.9-2.8c0.5-0.2,1-0.4,1.5-0.6C86.4,603.9,145.7,627.3,168.2,678.4z"
			/>
		<g>
			<path class="st17" d="M76.7,642l1.6,3.7c1.1,2.5,0.2,6-2.3,7.1l-100.9,44.4c0.3-1.4,0.6-2.7,1-4c1.4-5.1,3.1-10.1,5.3-14.9
				l88.6-39C72.5,638.1,75.6,639.5,76.7,642z"/>
		</g>
		<g>
			<path class="st17" d="M103.3,661.5l1.6,3.7c1.1,2.5-0.4,5.7-2.9,6.8l-128.9,56.8c-0.1-0.6-0.1-1.2-0.1-1.7
				c-0.3-3.6-0.3-7.2-0.2-10.7c0.1-1.2,0.1-2.5,0.2-3.7L96,658.4C98.5,657.3,102.2,659,103.3,661.5z"/>
		</g>
		<g>
			<path class="st17" d="M47.8,670.6l0.6,1.4c1.1,2.5,3.6,4,6.4,4.5c0.5,0.1,1.1,0.2,1.6,0.2c0.4,0,0.8,0,1.3,0l0.8,1.8l-85.8,37.8
				c0.1-1.2,0.1-2.5,0.2-3.7c0.4-5.2,1.1-10.4,2.3-15.4c0.3-1.4,0.6-2.7,1-4l74.4-32.7l0.1,0.2c-1.1,1.1-2,2.4-2.6,3.8
				c-0.1,0.3-0.2,0.5-0.3,0.8C47.1,667.1,47.1,669,47.8,670.6z"/>
		</g>
		<g>
			<path class="st17" d="M7.2,656.1l0.6,1.4c1.1,2.5,3.6,4,6.4,4.5c0.5,0.1,1.1,0.2,1.6,0.2c0.4,0,0.8,0,1.3,0l0.8,1.8l-37.3,16.4
				c0,0,0,0,0-0.1c0.3-0.7,0.6-1.4,0.9-2.1c2.6-5.9,5.7-11.5,9.4-16.8c1.9-2.8,4.1-5.6,6.3-8.2c0.9-1,1.7-2,2.6-3l10.1-4.4l0.1,0.2
				c-0.7,0.7-1.4,1.5-1.9,2.4c-0.3,0.5-0.5,1-0.8,1.5c-0.1,0.3-0.2,0.5-0.3,0.8c-0.4,1.2-0.5,2.5-0.3,3.8
				C6.8,655,6.9,655.6,7.2,656.1z"/>
		</g>
		<g>
			<path class="st17" d="M92.8,764.7l1.6,3.7c1.1,2.5,0.2,6-2.3,7.1l-70.8,31.2c-0.6-0.3-1.1-0.7-1.7-1.1c-0.6-0.3-1.1-0.7-1.7-1.1
				c-0.8-0.5-1.6-1.1-2.3-1.6c-0.6-0.4-1.1-0.8-1.7-1.2c-0.3-0.2-0.6-0.4-0.9-0.6c-0.5-0.4-1.1-0.8-1.6-1.3
				c-0.2-0.1-0.4-0.3-0.5-0.4c-0.7-0.5-1.4-1.1-2-1.7c-0.5-0.4-0.9-0.8-1.4-1.2l78.6-34.6C88.7,760.8,91.7,762.2,92.8,764.7z"/>
		</g>
		<g>
			<path class="st17" d="M119.5,784.2l1.6,3.7c1.1,2.5-0.4,5.7-2.9,6.8l-58.7,25.8c-1-0.1-2-0.3-3-0.5c-5.2-1-10.3-2.3-15.3-4.1
				c-1.5-0.5-3-1.1-4.4-1.7l75.5-33.2C114.7,780,118.4,781.7,119.5,784.2z"/>
		</g>
		<g>
			<path class="st17" d="M64,793.3l0.6,1.4c1.1,2.5,3.6,4,6.4,4.5c0.5,0.1,1.1,0.2,1.6,0.2c0.4,0,0.8,0,1.3,0l0.8,1.8L41.1,816
				c-1.5-0.5-3-1.1-4.4-1.7c-5.3-2.1-10.4-4.7-15.3-7.7c-1.1-0.7-2.3-1.4-3.4-2.1l48.6-21.4l0.1,0.2c-1.1,1.1-2,2.4-2.6,3.8
				c-0.1,0.3-0.2,0.5-0.3,0.8C63.3,789.8,63.2,791.7,64,793.3z"/>
		</g>
		<g>
			<path class="st17" d="M93.8,803.7l0.1,0.2c-0.7,0.7-1.4,1.5-1.9,2.4c-0.3,0.5-0.5,1-0.8,1.5c-0.1,0.3-0.2,0.5-0.3,0.8
				c-0.6,1.8-0.6,3.7,0.1,5.4l0.6,1.4c0.8,1.7,2.2,3,4,3.8l-0.1,0c-11.6,3.3-23.9,3.1-35.6,1.3c0,0-0.1,0-0.1,0l-0.4,0.2
				c-1-0.1-2-0.3-3-0.5L93.8,803.7z"/>
		</g>
		<g>
			<path class="st17" d="M75.8,705.5l1.6,3.7c1.1,2.5,0.2,6-2.3,7.1l-94.9,41.8c-0.9-2-1.7-4.1-2.4-6.2c-0.7-1.9-1.3-3.8-1.8-5.7
				c0.1-0.3,0.2-0.6,0.3-0.8c0.3-0.8,0.6-1.5,1-2.2l91.9-40.5C71.7,701.6,74.7,703,75.8,705.5z"/>
		</g>
		<g>
			<path class="st17" d="M35.3,625.9l1.6,3.7c1.1,2.5,0.2,6-2.3,7.1l-37.5,16.5c0.9-1,1.7-2,2.6-3c7.8-8.5,17.2-15.8,27.9-21.3
				c1.9-1,3.9-2,5.9-2.8c0.5-0.2,1-0.4,1.5-0.6C35.2,625.6,35.3,625.8,35.3,625.9z"/>
		</g>
		<g>
			<path class="st17" d="M88,733.2l1.6,3.7c1.1,2.5-0.4,5.7-2.9,6.8l-91.3,40.2c-0.4-0.4-0.7-0.9-1.1-1.3c0,0-0.1-0.1-0.1-0.1
				c-0.5-0.6-1-1.3-1.5-1.9c-0.6-0.9-1.3-1.7-1.9-2.6c-0.2-0.3-0.4-0.6-0.6-0.9c-0.2-0.3-0.5-0.7-0.7-1c-0.3-0.4-0.5-0.8-0.8-1.2
				c-0.4-0.6-0.8-1.2-1.2-1.8c-0.3-0.5-0.6-1-0.8-1.4l93.9-41.3C83.2,729,86.9,730.7,88,733.2z"/>
		</g>
		<g>
			<path class="st17" d="M46.9,734.1l0.6,1.4c1.3,2.9,4.5,4.5,8,4.7c0.4,0,0.8,0,1.3,0l0.8,1.8l-70.2,30.9c-2-3.4-3.8-7-5.5-10.7
				c-0.2-0.4-0.3-0.8-0.5-1.1c-0.9-2-1.7-4.1-2.4-6.2l70.5-31.1l0.1,0.2c-1.1,1.1-2,2.4-2.6,3.8c-0.6,1.5-0.9,3.1-0.7,4.6
				C46.5,733.1,46.7,733.6,46.9,734.1z"/>
		</g>
		<g>
			<path class="st17" d="M64.1,760.8l0.6,1.4c1.3,2.9,4.5,4.5,8,4.7c0.4,0,0.8,0,1.3,0l0.8,1.8L9,797.7c-0.5-0.4-0.9-0.8-1.4-1.2
				c-4.4-3.8-8.5-8.1-12.2-12.7c-0.4-0.4-0.7-0.9-1.1-1.3l72.5-31.9l0.1,0.2c-0.7,0.7-1.4,1.5-1.9,2.4c-0.3,0.5-0.5,1-0.8,1.5
				c-0.6,1.5-0.9,3.1-0.7,4.6C63.7,759.8,63.9,760.3,64.1,760.8z"/>
		</g>
		<g>
			<path class="st17" d="M35.6,708.5l0.6,1.4c1.3,2.9,4.5,4.5,8,4.7c0.4,0,0.8,0,1.3,0l0.8,1.8l-69.9,30.8
				c-1.7-6.1-2.8-12.2-3.4-18.3c-0.1-0.6-0.1-1.2-0.1-1.7l65.4-28.8l0.1,0.2c-0.7,0.7-1.4,1.5-1.9,2.4c-0.3,0.5-0.5,1-0.8,1.5
				C34.9,704.3,34.8,706.5,35.6,708.5z"/>
		</g>
	</g>
	<circle class="st5" cx="142.9" cy="33.2" r="4.5"/>
</g>
</svg>
