<?xml version="1.0" encoding="utf-8"?>
<!-- Generator: Adobe Illustrator 19.2.1, SVG Export Plug-In . SVG Version: 6.00 Build 0)  -->
<svg version="1.1" id="Layer_1" xmlns="http://www.w3.org/2000/svg" xmlns:xlink="http://www.w3.org/1999/xlink" x="0px" y="0px"
	 viewBox="0 0 768 768" style="enable-background:new 0 0 768 768;" xml:space="preserve">
<style type="text/css">
	.st0{fill:#282039;}
	.st1{clip-path:url(#SVGID_2_);}
	.st2{fill:#302744;}
	.st3{clip-path:url(#SVGID_2_);fill:#302744;}
	.st4{opacity:0.7;clip-path:url(#SVGID_2_);}
	.st5{opacity:0.8;}
	.st6{fill:#F3EED9;stroke:#F3EED9;stroke-linecap:round;stroke-linejoin:round;stroke-miterlimit:10;}
	.st7{opacity:0.8;fill:none;stroke:#F3EED9;stroke-miterlimit:10;}
	.st8{opacity:0.8;fill:#F3EED9;}
	.st9{fill:#575478;}
	.st10{fill:#28A8A0;}
	.st11{fill:#706F9B;}
	.st12{fill:#1E9D9D;}
	.st13{opacity:0.65;clip-path:url(#SVGID_2_);}
	.st14{fill:#B02B65;}
	.st15{fill:#A61566;}
	.st16{fill:#AF9673;}
	.st17{fill:#ACA6A1;}
	.st18{fill:#95918B;}
	.st19{fill:#B69873;}
	.st20{fill:#B3856E;}
</style>
<rect transform="matrix(-1 -1.224647e-16 1.224647e-16 -1 768 768)" class="st0" width="768" height="768"/>
<g>
	<defs>
		<rect id="SVGID_1_" x="1" y="0.5" transform="matrix(-1 -1.224647e-16 1.224647e-16 -1 770 769)" width="768" height="768"/>
	</defs>
	<clipPath id="SVGID_2_">
		<use xlink:href="#SVGID_1_"  style="overflow:visible;"/>
	</clipPath>
	<g class="st1">
		<g>
			<path class="st2" d="M293.6,394.7c0,0,6.7,8.3,0,15.3h39.3v-15.5L293.6,394.7z"/>
			<path class="st2" d="M606.9,410h-281v-15.5l280.3,0.2"/>
			<path class="st2" d="M642.7,394.7c0,0-6.2,8.3,0.4,15.3h-40.2v-15.5L642.7,394.7z"/>
		</g>
		<path class="st2" d="M145.6,354.7c0,0,6.7,8.3,0,15.3h39.3v-15.5L145.6,354.7z"/>
		<path class="st2" d="M318.7,354.7c0,0-6.2,8.3,0.4,15.3H178.9v-15.5L318.7,354.7z"/>
		<path class="st2" d="M660.3,409.5l-384.7,0c-6.9,0-12.5,5.6-12.5,12.5v0c0,6.9,5.6,12.5,12.5,12.5l384.7,0
			c6.9,0,12.5-5.6,12.5-12.5v0C672.8,415.1,667.2,409.5,660.3,409.5z"/>
		<path class="st2" d="M745.2,369.5l-704.5,0c-6.9,0-12.5,5.6-12.5,12.5v0c0,6.9,5.6,12.5,12.5,12.5l704.5,0
			c6.9,0,12.5-5.6,12.5-12.5v0C757.7,375.1,752.1,369.5,745.2,369.5z"/>
		<path class="st2" d="M344.8,330.8l-217.5,0c-6.9,0-12.5,5.6-12.5,12.5v0c0,6.9,5.6,12.5,12.5,12.5l217.5,0
			c6.9,0,12.5-5.6,12.5-12.5v0C357.3,336.4,351.8,330.8,344.8,330.8z"/>
	</g>
	<path class="st3" d="M640.3,32.7c0,0-6.6,8.3,0,15.3h-39.4V32.5L640.3,32.7z"/>
	<g class="st1">
		<g>
			<path class="st2" d="M492.3,72.7c0,0-6.6,8.3,0,15.3h-39.4V72.5L492.3,72.7z"/>
			<path class="st2" d="M178.9,88h281V72.5l-280.3,0.2"/>
			<path class="st2" d="M143.2,72.7c0,0,6.3,8.3-0.4,15.3h40.1V72.5L143.2,72.7z"/>
		</g>
		<path class="st2" d="M387.2,32.7c0,0,6.3,8.3-0.4,15.3h230.1V32.5L387.2,32.7z"/>
		<path class="st2" d="M125.6,87.5l384.7,0c6.9,0,12.5,5.6,12.5,12.5v0c0,6.9-5.6,12.5-12.5,12.5l-384.7,0
			c-6.9,0-12.5-5.6-12.5-12.5v0C113.1,93.1,118.7,87.5,125.6,87.5z"/>
		<path class="st2" d="M40.7,47.5l704.5,0c6.9,0,12.5,5.6,12.5,12.5v0c0,6.9-5.6,12.5-12.5,12.5l-704.5,0c-6.9,0-12.5-5.6-12.5-12.5
			v0C28.2,53.1,33.8,47.5,40.7,47.5z"/>
		<path class="st2" d="M369,8.8l289.5,0c6.9,0,12.5,5.6,12.5,12.5v0c0,6.9-5.6,12.5-12.5,12.5l-289.5,0c-6.9,0-12.5-5.6-12.5-12.5v0
			C356.5,14.4,362.1,8.8,369,8.8z"/>
	</g>
	<g class="st1">
		<g>
			<path class="st2" d="M501.3,716.7c0,0-6.6,8.3,0,15.3h-39.4v-15.5L501.3,716.7z"/>
			<path class="st2" d="M187.9,732h281v-15.5l-280.3,0.2"/>
			<path class="st2" d="M152.2,716.7c0,0,6.3,8.3-0.4,15.3h40.1v-15.5L152.2,716.7z"/>
		</g>
		<path class="st2" d="M649.3,676.7c0,0-6.6,8.3,0,15.3h-39.4v-15.5L649.3,676.7z"/>
		<path class="st2" d="M476.2,676.7c0,0,6.3,8.3-0.4,15.3h140.1v-15.5L476.2,676.7z"/>
		<path class="st2" d="M134.6,731.5l384.7,0c6.9,0,12.5,5.6,12.5,12.5l0,0c0,6.9-5.6,12.5-12.5,12.5l-384.7,0
			c-6.9,0-12.5-5.6-12.5-12.5v0C122.1,737.1,127.7,731.5,134.6,731.5z"/>
		<path class="st2" d="M49.7,691.5l704.5,0c6.9,0,12.5,5.6,12.5,12.5v0c0,6.9-5.6,12.5-12.5,12.5l-704.5,0
			c-6.9,0-12.5-5.6-12.5-12.5l0,0C37.2,697.1,42.8,691.5,49.7,691.5z"/>
		<path class="st2" d="M450,652.8l217.5,0c6.9,0,12.5,5.6,12.5,12.5v0c0,6.9-5.6,12.5-12.5,12.5l-217.5,0c-6.9,0-12.5-5.6-12.5-12.5
			l0,0C437.5,658.4,443.1,652.8,450,652.8z"/>
	</g>
	<g class="st4">
		<g class="st5">
			<line class="st6" x1="547.9" y1="607.2" x2="544.4" y2="615.2"/>
			<line class="st6" x1="550.2" y1="612.9" x2="542.1" y2="609.5"/>
		</g>
		<circle class="st7" cx="492" cy="468" r="4.7"/>
		<circle class="st7" cx="502" cy="410" r="4.7"/>
		<ellipse transform="matrix(0.7071 -0.7071 0.7071 0.7071 -438.2401 415.9938)" class="st8" cx="283" cy="737" rx="2" ry="2"/>
		<circle class="st8" cx="270" cy="367" r="5.1"/>
		<circle class="st8" cx="451" cy="400" r="5.1"/>
		<g class="st5">
			<line class="st6" x1="576.1" y1="385.9" x2="576.1" y2="394.6"/>
			<line class="st6" x1="580.5" y1="390.2" x2="571.8" y2="390.2"/>
		</g>
		<g class="st5">
			<line class="st6" x1="75.8" y1="379.9" x2="74.5" y2="388.5"/>
			<line class="st6" x1="79.5" y1="384.9" x2="70.8" y2="383.6"/>
		</g>
		<g class="st5">
			<line class="st6" x1="205.8" y1="349.9" x2="206.4" y2="358.6"/>
			<line class="st6" x1="210.5" y1="353.9" x2="201.8" y2="354.5"/>
		</g>
		<circle class="st7" cx="663" cy="383" r="3.5"/>
		<ellipse transform="matrix(0.7071 -0.7071 0.7071 0.7071 -199.0838 271.3687)" class="st8" cx="228" cy="376" rx="2" ry="2"/>
		<ellipse transform="matrix(0.7071 -0.7071 0.7071 0.7071 20.8263 180.279)" class="st8" cx="228" cy="65" rx="2" ry="2"/>
		<ellipse transform="matrix(0.7071 -0.7071 0.7071 0.7071 -24.9153 65.8492)" class="st8" cx="67" cy="63" rx="2" ry="2"/>
		<ellipse transform="matrix(0.7071 -0.7071 0.7071 0.7071 -208.129 345.5316)" class="st8" cx="313" cy="424" rx="2" ry="2"/>
		<ellipse transform="matrix(0.7071 -0.7071 0.7071 0.7071 -114.7551 542.9563)" class="st8" cx="598" cy="410" rx="2" ry="2"/>
		<g class="st5">
			<line class="st6" x1="360.2" y1="384.7" x2="363" y2="393"/>
			<line class="st6" x1="365.7" y1="387.5" x2="357.4" y2="390.3"/>
		</g>
		<circle class="st8" cx="55" cy="576" r="7.1"/>
		<circle class="st8" cx="290" cy="500" r="5.1"/>
		<circle class="st7" cx="269" cy="265" r="7"/>
		<g class="st5">
			<line class="st6" x1="149.4" y1="86.7" x2="151.8" y2="95.1"/>
			<line class="st6" x1="154.8" y1="89.7" x2="146.4" y2="92.1"/>
		</g>
		<g class="st5">
			<line class="st6" x1="475.2" y1="309.7" x2="478" y2="318"/>
			<line class="st6" x1="480.7" y1="312.5" x2="472.4" y2="315.3"/>
		</g>
		<circle class="st7" cx="573" cy="42" r="3.5"/>
		<circle class="st8" cx="682" cy="182" r="5.1"/>
		<ellipse transform="matrix(0.7071 -0.7071 0.7071 0.7071 -330.9487 321.0183)" class="st8" cx="222" cy="560" rx="2" ry="2"/>
		<circle class="st8" cx="714" cy="586" r="5.1"/>
		<g class="st5">
			<line class="st6" x1="332.2" y1="81.8" x2="335" y2="90.1"/>
			<line class="st6" x1="337.7" y1="84.6" x2="329.4" y2="87.3"/>
		</g>
		<circle class="st8" cx="435" cy="61" r="5.1"/>
		<circle class="st8" cx="525" cy="22" r="4.5"/>
		<ellipse transform="matrix(0.7071 -0.7071 0.7071 0.7071 90.5175 300.5287)" class="st8" cx="408" cy="41" rx="2" ry="2"/>
		<circle class="st7" cx="188" cy="85" r="4.5"/>
		<circle class="st7" cx="151" cy="378" r="3"/>
		<circle class="st7" cx="262.3" cy="732" r="4.7"/>
		<circle class="st8" cx="494.3" cy="689" r="5.1"/>
		<circle class="st8" cx="313.3" cy="722" r="5.1"/>
		<g class="st5">
			<line class="st6" x1="188.2" y1="707.9" x2="188.2" y2="716.6"/>
			<line class="st6" x1="183.8" y1="712.2" x2="192.5" y2="712.2"/>
		</g>
		<g class="st5">
			<line class="st6" x1="688.5" y1="701.9" x2="689.8" y2="710.5"/>
			<line class="st6" x1="684.9" y1="706.9" x2="693.5" y2="705.6"/>
		</g>
		<g class="st5">
			<line class="st6" x1="558.5" y1="671.9" x2="557.9" y2="680.6"/>
			<line class="st6" x1="553.8" y1="675.9" x2="562.5" y2="676.5"/>
		</g>
		<circle class="st7" cx="101.3" cy="705" r="3.5"/>
		<ellipse transform="matrix(0.7071 -0.7071 0.7071 0.7071 -336.4882 583.6464)" class="st8" cx="536.3" cy="698" rx="2" ry="2"/>
		<ellipse transform="matrix(0.7071 -0.7071 0.7071 0.7071 -395.3253 537.6012)" class="st8" cx="451.3" cy="746" rx="2" ry="2"/>
		<ellipse transform="matrix(0.7071 -0.7071 0.7071 0.7071 -468.9006 331.9751)" class="st8" cx="166.3" cy="732" rx="2" ry="2"/>
		<g class="st5">
			<line class="st6" x1="404.1" y1="706.7" x2="401.4" y2="715"/>
			<line class="st6" x1="398.6" y1="709.5" x2="406.9" y2="712.3"/>
		</g>
		<circle class="st7" cx="613.3" cy="700" r="3"/>
	</g>
	<g class="st1">
		<g>
			<path class="st9" d="M697.7,487.3L543.5,507c-1.5,0.2-3-0.9-3.2-2.4l0,0c-0.2-1.5,0.9-3,2.4-3.2L697,481.8c1.5-0.2,3,0.9,3.2,2.4
				v0C700.3,485.7,699.2,487.2,697.7,487.3z"/>
			<path class="st9" d="M596.9,502.5l0.1,0.6c0.2,1.4,1.5,2.5,3,2.9l0.1,0.8l-43.6,5.6c1.5-0.7,2.4-2.3,2.2-3.8l-0.1-0.6
				c-0.2-1.5-1.4-2.6-3.1-3l-0.1-0.5l43.6-5.6l0,0.1C597.7,499.7,596.7,501.1,596.9,502.5z"/>
			<path class="st9" d="M622.2,500.7l-0.1-0.6c-0.2-1.4-1-2.6-3-2.9l-0.1-0.9l43.8-5.6c-1.5,0.9-2.6,2.4-2.4,3.9l0.1,0.6
				c0.2,1.5,1.7,2.6,3.1,3l0.1,0.5l-43.6,5.6l0,0C621.9,503.4,622.4,502.1,622.2,500.7z"/>
		</g>
		<path class="st10" d="M650,498.9c2.9,22.6-13.1,43.1-35.7,46c-2.8,0.4-5.5,1.1-8.2,0.1h0c-5.1,0-10-1.6-14.5-3.7
			c-0.4-0.2-0.7-0.3-1.1-0.5c-1.9-1-3.7-2.1-5.5-3.3c-0.5-0.4-1-0.7-1.5-1.1c-1.8-1.4-3.5-3-5-4.7c-0.4-0.4-0.7-0.8-1.1-1.2
			c-1.1-1.4-2.2-2.8-3.1-4.3c-1.3-2-2.4-4.1-3.3-6.3c-0.8-1.9-1.4-3.8-1.9-5.8c-0.4-1.5-0.7-3.1-0.9-4.7c0-0.2,0-0.3-0.1-0.5
			c-0.1-0.9-0.2-1.8-0.2-2.7c0-0.8-0.1-1.6,0-2.4c0-0.1,0-0.2,0-0.3c0-2.5,0.3-5,0.8-7.5c0-0.2,0.1-0.5,0.1-0.7
			c0.3-1.4,0.7-2.8,1.1-4.2c0.2-0.5,0.3-0.9,0.5-1.4c0.7-2,1.6-3.9,2.6-5.7c0.3-0.5,0.6-1,0.8-1.5c0.9-1.5,2-3,3.1-4.4
			c0.2-0.3,0.4-0.5,0.6-0.7c1.7-2,3.5-3.8,5.5-5.4c1.5-1.2,3.1-2.3,4.7-3.3c4-2.4,8.5-4.1,13.2-5c0.9-0.2,1.7-0.3,2.6-0.4
			C626.5,460.4,647.2,476.3,650,498.9z"/>
		<path class="st11" d="M669.6,502.2c-0.1,0.1-0.1,0.2-0.1,0.4l-0.4,0c0.1-0.1,0.2-0.2,0.3-0.3C669.5,502.3,669.5,502.3,669.6,502.2
			z"/>
		<path class="st11" d="M676.8,501c-0.2,0.1-7,1.1-7.2,1.2C669.8,501.9,676.6,501.1,676.8,501z"/>
		<path class="st11" d="M676.8,501c-0.2,0.1-7,1.1-7.2,1.2C669.8,501.9,676.6,501.1,676.8,501z"/>
		<g>
			<path class="st12" d="M618.8,474.3l0.2,1.6c0.1,1.1-0.6,2.3-1.7,2.5l-44.1,5.6c0.3-0.5,0.6-1,0.8-1.5c1.1-1.8,2.4-3.5,3.8-5.2
				l38.7-4.9C617.7,472.3,618.7,473.2,618.8,474.3z"/>
		</g>
		<g>
			<path class="st12" d="M626.9,484.9l0.2,1.6c0.1,1.1-0.8,2.1-1.9,2.3l-56.4,7.2c0-0.2,0.1-0.5,0.1-0.7c0.3-1.4,0.7-2.8,1.1-4.2
				c0.2-0.5,0.3-0.9,0.5-1.4l53.8-6.9C625.5,482.7,626.7,483.8,626.9,484.9z"/>
		</g>
		<g>
			<path class="st12" d="M604.4,482.1l0.1,0.6c0.1,1.1,0.9,1.9,2,2.5c0.2,0.1,0.4,0.2,0.6,0.3c0.2,0.1,0.3,0.1,0.5,0.1l0.1,0.8
				l-37.5,4.8c0.2-0.5,0.3-0.9,0.5-1.4c0.7-2,1.6-3.9,2.6-5.7c0.3-0.5,0.6-1,0.8-1.5l32.5-4.1l0,0.1c-0.6,0.3-1.1,0.7-1.5,1.2
				c-0.1,0.1-0.1,0.2-0.2,0.3C604.5,480.6,604.3,481.3,604.4,482.1z"/>
		</g>
		<g>
			<path class="st12" d="M590.3,471.8l0.1,0.6c0.1,1.1,0.9,1.9,2,2.5c0.2,0.1,0.4,0.2,0.6,0.3c0.2,0.1,0.3,0.1,0.5,0.1l0.1,0.8
				l-16.3,2.1c0.2-0.3,0.4-0.5,0.6-0.7c1.7-2,3.5-3.8,5.5-5.4c1.5-1.2,3.1-2.3,4.7-3.3l4.4-0.6l0,0.1c-0.6,0.3-1.1,0.7-1.5,1.2
				c-0.1,0.1-0.1,0.2-0.2,0.3c-0.3,0.4-0.5,0.9-0.6,1.4C590.3,471.3,590.3,471.6,590.3,471.8z"/>
		</g>
		<g>
			<path class="st12" d="M611,523.6l0.2,1.6c0.1,1.1-0.6,2.3-1.7,2.5l-30.9,3.9c-0.4-0.4-0.7-0.8-1.1-1.2c-1.1-1.4-2.2-2.8-3.1-4.3
				l34.4-4.4C609.9,521.6,610.9,522.5,611,523.6z"/>
		</g>
		<g>
			<path class="st12" d="M619.1,534.2l0.2,1.6c0.1,1.1-0.8,2.1-1.9,2.3l-25.7,3.3c-0.4-0.2-0.7-0.3-1.1-0.5c-1.9-1-3.7-2.1-5.5-3.3
				c-0.5-0.4-1-0.8-1.5-1.1l33-4.2C617.7,532,618.9,533.1,619.1,534.2z"/>
		</g>
		<g>
			<path class="st12" d="M596.6,531.4l0.1,0.6c0.1,1.1,0.9,1.9,2,2.5c0.2,0.1,0.4,0.2,0.6,0.3c0.2,0.1,0.3,0.1,0.5,0.1l0.1,0.8
				l-14.7,1.9c-0.5-0.4-1-0.8-1.5-1.1c-1.8-1.4-3.5-3-5-4.7c-0.4-0.4-0.7-0.8-1.1-1.2l21.3-2.7l0,0.1c-0.6,0.3-1.1,0.7-1.5,1.2
				c-0.1,0.1-0.1,0.2-0.2,0.3C596.7,529.9,596.5,530.6,596.6,531.4z"/>
		</g>
		<g>
			<path class="st12" d="M606.9,538.8L606.9,538.8c-0.4,0.3-0.7,0.5-1,0.8c-0.2,0.1-0.3,0.3-0.5,0.5c-0.1,0.1-0.1,0.2-0.2,0.3
				c-0.4,0.6-0.7,1.4-0.6,2.1l0.1,0.6c0.1,0.9,0.6,1.6,1.4,2.1c-5.1-0.4-10-1.7-14.5-3.8c-0.4-0.2-0.7-0.3-1.1-0.5L606.9,538.8z"/>
		</g>
		<g>
			<path class="st12" d="M611.2,498.7l0.2,1.6c0.1,1.1-0.6,2.3-1.7,2.5l-41.5,5.3c-0.1-0.9-0.2-1.8-0.2-2.7c0-0.8-0.1-1.6,0-2.4
				c0.1-0.1,0.1-0.2,0.2-0.3c0.2-0.3,0.4-0.5,0.6-0.8l40.2-5.1C610,496.8,611.1,497.7,611.2,498.7z"/>
		</g>
		<g>
			<path class="st12" d="M604.9,465.3l0.2,1.6c0.1,1.1-0.6,2.3-1.7,2.5l-20,2.6c1.5-1.2,3.1-2.3,4.7-3.3c4-2.4,8.5-4.1,13.2-5
				l1.3-0.2C603.8,463.4,604.8,464.2,604.9,465.3z"/>
		</g>
		<g>
			<path class="st12" d="M612.7,510.8l0.2,1.6c0.1,1.1-0.8,2.1-1.9,2.3l-39.9,5.1c-0.8-1.9-1.4-3.8-1.9-5.8l41-5.2
				C611.4,508.7,612.6,509.8,612.7,510.8z"/>
		</g>
		<g>
			<path class="st12" d="M596.8,506.5l0.1,0.6c0.2,1.3,1.2,2.3,2.6,2.7c0.2,0.1,0.3,0.1,0.5,0.1l0.1,0.8l-30.7,3.9
				c-0.4-1.5-0.7-3.1-0.9-4.7c0-0.2,0-0.3-0.1-0.5c-0.1-0.9-0.2-1.8-0.2-2.7l30.8-3.9l0,0.1c-0.6,0.3-1.1,0.7-1.5,1.2
				c-0.4,0.5-0.7,1.1-0.8,1.7C596.7,506.1,596.7,506.3,596.8,506.5z"/>
		</g>
		<g>
			<path class="st12" d="M595.3,495.3l0.1,0.6c0.2,1.3,1.2,2.3,2.6,2.7c0.2,0.1,0.3,0.1,0.5,0.1l0.1,0.8l-30.5,3.9
				c0-2.5,0.3-5,0.8-7.5c0-0.2,0.1-0.5,0.1-0.7l28.6-3.6l0,0.1c-0.4,0.2-0.7,0.4-1,0.7c-0.2,0.1-0.3,0.3-0.5,0.5
				C595.5,493.6,595.2,494.5,595.3,495.3z"/>
		</g>
		<path class="st9" d="M686.7,496.5l0.2,1.6c0.1,1.1-0.9,2.4-2,2.5l-15.5,2c0-0.2,0.1-0.3,0.1-0.4c0.2-0.1,7-1.1,7.2-1.2
			c-0.2,0.1-7,0.9-7.2,1.2c-0.1,0-0.1,0.1-0.2,0.1c-0.1,0.1-0.2,0.2-0.3,0.3c-0.9,0.9-1.5,2-1.3,3.1l0.1,0.6
			c0.1,0.9,0.8,1.7,1.6,2.3l15.1-1.9c1.1-0.1,2.3,0.9,2.4,2l0.2,1.6c0.1,1.1-0.8,2.1-1.9,2.3L525.8,533c-1.1,0.1-2.2-0.6-2.4-1.7
			l-0.2-1.6c-0.1-1.1,0.7-2.4,1.8-2.6l24.1-3.1c1.3-0.8,2-1.8,1.9-3.1l-0.1-0.6c-0.1-1.1-1-1.8-2.3-2.3l-23.1,3
			c-1.1,0.1-2.1-0.9-2.3-2l-0.2-1.6c-0.1-1.1,0.6-2.2,1.7-2.3l43.6-5.7c7.6,1.1,49.7,3.9,81.7-10.4l34.2-4.2
			C685.3,494.5,686.6,495.4,686.7,496.5z"/>
	</g>
	<g class="st13">
		<path class="st10" d="M85.7,311c0.1,1.3,0.2,2.5,0.2,3.8c0,0.3,0,0.6,0,0.8c0,0.5,0,1-0.1,1.5c0,0.2,0,0.4,0,0.5
			c-0.1,0.7-0.1,1.3-0.2,1.9c0,0,0,0,0,0c-0.3,2.2-0.9,4.4-1.6,6.4c-0.3,0.9-0.6,1.7-1,2.5c-0.4,0.8-0.8,1.6-1.2,2.4
			c0,0.1-0.1,0.2-0.1,0.2c-1,1.8-2.2,3.6-3.5,5.2c-0.7,0.8-1.3,1.6-2.1,2.3c-1,1-2.1,2-3.2,2.9c0,0,0,0,0,0
			c-5,3.9-11.1,6.6-17.8,7.3c-6.8,0.7-13.3-0.6-19-3.4c0,0,0,0,0,0c-1.9-0.9-3.7-2.1-5.4-3.3c-0.3-0.2-0.6-0.5-1-0.7
			c-0.1-0.1-0.2-0.2-0.3-0.2c-0.2-0.2-0.5-0.4-0.7-0.6c-1.2-1.1-2.4-2.2-3.4-3.4c-0.1-0.1-0.1-0.1-0.2-0.2c-1.2-1.4-2.2-2.9-3.2-4.4
			c0,0,0-0.1,0-0.1c-2.5-4.2-4.2-9-4.8-14.2c-0.4-3.8-0.2-7.6,0.6-11.2c0.2-0.8,0.4-1.5,0.6-2.2c0,0,0,0,0,0
			c0.2-0.6,0.4-1.2,0.6-1.8c0.1-0.3,0.2-0.6,0.3-0.9c0-0.1,0.1-0.2,0.1-0.3c0.1-0.2,0.2-0.4,0.3-0.6c0.1-0.3,0.3-0.6,0.4-1
			c0.2-0.5,0.5-1,0.7-1.4c0.1-0.3,0.3-0.6,0.5-0.9c0.2-0.4,0.4-0.7,0.6-1c0.2-0.3,0.4-0.7,0.6-1c0.3-0.5,0.6-1,1-1.4c0,0,0,0,0,0
			c0.7-0.9,1.4-1.8,2.2-2.7c0,0,0.1-0.1,0.1-0.1c5.5-6.2,13.3-10.4,22.2-11.4c16.9-1.8,32.3,9,36.8,24.8c0,0,0,0.1,0,0.1
			c0.2,0.6,0.3,1.3,0.5,1.9c0,0.2,0.1,0.4,0.1,0.7c0,0.3,0.1,0.5,0.1,0.7c0,0.1,0.1,0.3,0.1,0.4c0,0.1,0,0.2,0,0.3
			c0,0.1,0,0.1,0,0.2c0,0,0,0.1,0,0.2c0,0,0,0.1,0,0.1c0,0,0,0.1,0,0.1C85.6,310.2,85.6,310.6,85.7,311z"/>
		<g>
			<g>
				<path class="st12" d="M61.1,289.7l0.1,1.4c0.1,0.9-0.5,1.8-1.5,1.9l-38,4c0.2,0,0.4-0.5,0.6-0.8c0.9-1.5,1.9-3.9,3.2-4l33.8-3.5
					C60.2,288.5,61,288.8,61.1,289.7z"/>
			</g>
			<g>
				<path class="st12" d="M68.1,298.7l0.1,1.4c0.1,0.9-1.2,1.8-2.2,1.9L17.6,307c0.4-0.9,0.7-3,1.1-4.3c0.1-0.3,0.3-0.3,0.3-1.1
					l46.5-4.9C66.5,296.6,68,297.7,68.1,298.7z"/>
			</g>
			<g>
				<path class="st12" d="M48.6,295.9l0.1,0.5c0.1,1.1,1.2,1.9,2.3,2.3c0.1,0.1,0.6,0.1,0.6,0.1l0,0.1l-32.7,3.4
					c0.1,0,0.2-0.3,0.4-0.6c0.7-1.8,1.6-3.4,2.6-5.1c0.2-0.3,0.5,0.1,0.6-0.8l28.5-3l0,0c0,0.2-1.1,0.6-1.4,1
					C48.9,294.5,48.5,295.2,48.6,295.9z"/>
			</g>
		</g>
		<g>
			<g>
				<path class="st12" d="M85.6,310.4l-39.7,4.1c-0.9,0.1-1.7-1.1-1.8-2.1l-0.1-1.4c-0.1-0.9,0.5-1.7,1.4-1.8l39.2-4.1
					c0.3,0.8,0.7,2.7,0.9,4C85.5,309.5,85.5,309.5,85.6,310.4z"/>
			</g>
			<g>
				<path class="st12" d="M85.9,314.7c0,0,0,0.8,0,1.1c0,1.3-0.2,2.4-0.3,4.2l-30,3.1c-0.9,0.1-1.7-1.1-1.8-2l-0.1-1.4
					c-0.1-0.9,0.5-1.7,1.4-1.8L85.9,314.7z"/>
			</g>
			<g>
				<path class="st12" d="M85.7,311c0.1,1.3,0.2,2.5,0.2,3.8c0,0.3,0,0.9,0,0.9l-28.5,3c0.5-0.1,1-0.6,1.3-1
					c0.5-0.6,0.8-1.4,0.7-2.2l-0.1-0.5c-0.1-0.9-0.4-1.8-1.3-2.2c-0.3-0.2-0.7-0.3-0.7-0.4l-0.1-0.7l28.2-2.9c0,0,0.1,0.7,0.2,1
					C85.6,310.1,85.6,310.6,85.7,311z"/>
			</g>
		</g>
		<g>
			<g>
				<path class="st12" d="M82.9,326.5c-0.4,0-0.7,1.4-1,2.3c-0.4,0.9-0.7,2.3-1.2,2.3L24,337c0,0-0.1,0-0.2-0.1
					c-1.2-1.4-2.2-2.6-3.2-4.1c0,0,0,0.2,0,0.2L82.9,326.5z"/>
			</g>
			<g>
				<path class="st12" d="M77,336.2c-0.7,0.8-1.3,1.7-2,2.5c-1,1.1-2.1,2-3.2,3l-36.8,3.9c0,0,0,0,0,0c-1.9-0.9-3.7-2-5.4-3.3
					c-0.3-0.2-0.7-0.6-1-0.9c-0.1-0.1-0.2-0.4-0.3-0.4l48.3-5C76.6,335.9,76.8,336.2,77,336.2z"/>
			</g>
			<g>
				<path class="st12" d="M27.8,341l0.4,0c0.1,0,0.2,0.5,0.3,0.6c0.3,0.3,0.6,0.2,1,1.1l1.1-0.1l1.7-0.2l30.4-3.2l-0.1-1
					c-0.9,0-0.8-0.2-1.1-0.3c-0.9-0.5-1.7-1.2-1.8-2.1l-0.1-0.5c-0.1-0.6,0.3-1.2,0.7-1.8c0.3-0.5,0.8-0.9,1.6-1.2l0-0.1l-36.3,3.8
					l-1,0.1l0,0.4c0.9,0.1,1.1,0.3,1.5,0.5c0.7,0.5,1.3,1.2,1.4,2l0.1,0.5c0,0,0,0.1,0,0.1c0,0.3,0,0.7-0.1,1c0,0.1-0.1,0-0.1,0.1
					L27.8,341z"/>
			</g>
		</g>
		<path class="st12" d="M55.1,350c-19.5,2-37.1-12.2-39.2-31.7s12.2-37.1,31.7-39.2c19.5-2,37.1,12.2,39.2,31.7
			C88.8,330.4,74.6,348,55.1,350z M47.9,281.4c-18.3,1.9-31.7,18.4-29.8,36.7c1.9,18.3,18.4,31.7,36.7,29.8
			c18.3-1.9,31.7-18.4,29.8-36.7C82.7,292.8,66.2,279.4,47.9,281.4z"/>
	</g>
	<g class="st1">
		<path class="st14" d="M657.3,124c0.2,1.3,0.3,2.6,0.4,3.9c0,0.3,0,0.6,0,0.9c0,0.5,0,1,0,1.5c0,0.2,0,0.4,0,0.6
			c0,0.7-0.1,1.4-0.1,2c0,0,0,0,0,0c-0.2,2.3-0.7,4.6-1.3,6.7c-0.3,0.9-0.6,1.8-0.9,2.7c-0.3,0.9-0.7,1.7-1.1,2.6
			c0,0.1-0.1,0.2-0.1,0.2c-1,2-2.1,3.8-3.4,5.6c-0.6,0.9-1.3,1.7-2,2.5c-1,1.1-2.1,2.2-3.2,3.2c0,0,0,0,0,0
			c-5,4.3-11.2,7.3-18.2,8.4c-7,1.1-13.8,0-19.8-2.7c0,0,0,0,0,0c-2-0.9-3.9-2-5.7-3.2c-0.4-0.2-0.7-0.5-1-0.7
			c-0.1-0.1-0.2-0.2-0.3-0.2c-0.3-0.2-0.5-0.4-0.8-0.6c-1.3-1-2.5-2.2-3.7-3.4c-0.1-0.1-0.1-0.1-0.2-0.2c-1.3-1.4-2.5-2.9-3.5-4.4
			c0,0,0-0.1-0.1-0.1c-2.8-4.2-4.8-9.2-5.6-14.6c-0.6-4-0.5-7.9,0.1-11.6c0.1-0.8,0.3-1.6,0.5-2.4c0,0,0,0,0,0
			c0.2-0.6,0.3-1.2,0.5-1.9c0.1-0.3,0.2-0.6,0.3-0.9c0-0.1,0.1-0.2,0.1-0.3c0.1-0.2,0.2-0.5,0.2-0.7c0.1-0.3,0.3-0.7,0.4-1
			c0.2-0.5,0.4-1,0.7-1.5c0.1-0.3,0.3-0.6,0.4-0.9c0.2-0.4,0.4-0.7,0.6-1.1c0.2-0.4,0.4-0.7,0.6-1c0.3-0.5,0.6-1,0.9-1.5
			c0,0,0,0,0,0c0.6-1,1.4-2,2.1-2.9c0,0,0.1-0.1,0.1-0.1c5.4-6.7,13.3-11.5,22.5-12.9c17.5-2.6,33.9,7.8,39.4,24.1c0,0,0,0.1,0,0.1
			c0.2,0.6,0.4,1.3,0.6,2c0.1,0.2,0.1,0.4,0.2,0.7c0.1,0.3,0.1,0.5,0.2,0.8c0,0.1,0.1,0.3,0.1,0.4c0,0.1,0,0.2,0.1,0.3
			c0,0.1,0,0.1,0,0.2c0,0.1,0,0.1,0,0.2c0,0.1,0,0.1,0,0.1c0,0.1,0,0.1,0,0.1C657.2,123.2,657.3,123.6,657.3,124z"/>
		<g>
			<g>
				<path class="st15" d="M630.8,103l0.2,1.4c0.1,1-0.5,2.1-1.4,2.2l-39.3,5.9c0.1-0.6,0.4-0.9,0.6-1.2c0.9-1.6,1.9-3.3,3.1-4.6
					l34.9-5.3C629.7,101.3,630.6,102.1,630.8,103z"/>
			</g>
			<g>
				<path class="st15" d="M638,112.1l0.2,1.4c0.1,0.9-0.7,1.9-1.6,2l-50.1,7.6c0.3-1.2,0.6-3,1-4.4c0.1-0.3,0.2-0.5,0.3-1.1l48-7.2
					C636.8,110.2,637.9,111.1,638,112.1z"/>
			</g>
			<g>
				<path class="st15" d="M618.4,110.1l0.1,0.5c0.2,1.1,1.1,1.9,2.3,2.3c0.1,0,0.3,0.1,0.4,0.1l0.1,0.7l-33.7,5.1
					c0.1-0.3,0.2-0.6,0.3-0.9c0.6-1.9,1.5-3.8,2.4-5.6c0.2-0.4,0.4-0.7,0.6-1l29.4-4.4l0,0.1c-0.5,0.3-0.9,0.6-1.2,1.1
					C618.5,108.6,618.2,109.3,618.4,110.1z"/>
			</g>
		</g>
		<g>
			<g>
				<path class="st15" d="M657.2,123l-41,6.2c-0.9,0.1-2.1-0.7-2.2-1.7l-0.2-1.4c-0.1-1,0.7-2,1.6-2.1l40.5-6.1
					c0.4,1.1,0.8,2.7,1.1,4C657,122.2,657.1,122.4,657.2,123z"/>
			</g>
			<g>
				<path class="st15" d="M657.7,127.6c0.1,0.6,0,0.7,0.1,1c0,1.4,0,3.1-0.1,4.3l-31,4.7c-1,0.1-1.8-0.5-2-1.5l-0.2-1.4
					c-0.1-1,0.5-2.1,1.4-2.3L657.7,127.6z"/>
			</g>
			<g>
				<path class="st15" d="M657.3,124c0.2,1.3,0.3,2.6,0.4,3.9c0,0.3,0,0.6,0,0.9l-29.4,4.4c0.5-0.3,0.9-0.6,1.3-1.1
					c0.5-0.7,0.7-1.5,0.6-2.3l-0.1-0.5c-0.1-1-0.8-1.8-1.7-2.2c-0.3-0.1-0.7-0.3-1-0.3l-0.1-0.5l29.7-4.5c0.1,0.3,0.1,0.6,0.2,0.9
					C657.2,123.2,657.3,123.6,657.3,124z"/>
			</g>
		</g>
		<g>
			<g>
				<path class="st15" d="M655.1,139.7c-0.3,0.9-0.6,1.8-0.9,2.8c-0.3,0.9-0.7,1.9-1.1,2.8l-58.5,8.8c-0.1-0.1-0.1-0.1-0.2-0.2
					c-1.3-1.4-2.5-2.9-3.5-4.4c0,0,0-0.1-0.1-0.1L655.1,139.7z"/>
			</g>
			<g>
				<path class="st15" d="M649.5,150.8c-0.6,0.9-1.3,1.8-2,2.6c-1,1.2-2,2.3-3.2,3.2l-38.1,5.7c0,0,0,0,0,0c-2-0.9-3.9-2-5.7-3.2
					c-0.4-0.2-0.7-0.5-1-0.7c-0.1-0.1-0.2-0.2-0.3-0.2l49.9-7.5C649.1,150.6,649.3,150.8,649.5,150.8z"/>
			</g>
			<g>
				<path class="st15" d="M631.5,150.3l0.1,0.5c0.1,0.9,0.8,1.7,1.8,2.1c0.3,0.1,0.6,0.3,1,0.3l0.1,0.7l-33.9,5.1
					c-0.4-0.2-0.7-0.5-1-0.7c-0.1-0.1-0.2-0.2-0.3-0.2l-1.1,0.2c0.1-0.2,0.2-0.5,0.3-0.8c0.1-0.4,0.1-0.8,0.1-1.2l-0.1-0.5
					c-0.1-0.9-0.6-1.6-1.4-2c-0.4-0.2-0.8-0.4-1.3-0.5l-0.1-0.5l37.9-5.7l0,0.1c-0.6,0.3-1.1,0.8-1.4,1.3
					C631.6,149.1,631.4,149.7,631.5,150.3z"/>
			</g>
		</g>
		<g>
			<path class="st16" d="M585.1,124.3c-0.1,1-0.2,2.1-0.3,3.1c0.8-0.2,1.6-0.5,2.4-0.7c0.1-1,0.2-2.1,0.4-3.1
				C586.8,123.8,585.9,124.1,585.1,124.3z M655.6,114.1c-0.8,0-1.7,0-2.6,0c0.5,0.9,0.9,1.9,1.3,2.9c0.8,0,1.7,0,2.5,0
				C656.4,116,656,115,655.6,114.1z"/>
			<path class="st16" d="M676.9,120.8c0.2,4.3-7.5,8.4-18.2,12c-0.8,0.3-1.6,0.5-2.4,0.8c-10.5,3.3-23.3,5.9-33.8,7.5
				c-8.3,1.3-16.4,2.1-23.8,2.5c-2.9,0.2-5.8,0.3-8.5,0.3c-0.9,0-1.7,0-2.5,0c-1.6,0-3.2,0-4.6-0.1c-11.9-0.5-18-2.6-18.5-6.3
				c-0.7-4.7,8.5-9.3,20.6-13c-0.1,1-0.2,2.1-0.3,3.1c-1.2,0.4-2.4,0.8-3.5,1.2c-11.4,4.1-14.1,7.2-14,8.3c0.2,1.1,3.7,3.3,15.8,3.9
				c1.1,0,2.3,0.1,3.4,0.1c0.8,0,1.6,0,2.5,0c9.6,0,21-1,33-2.8c12.9-1.9,24.9-4.6,34.5-7.7c0.8-0.3,1.6-0.5,2.3-0.8
				c0.4-0.1,0.8-0.3,1.2-0.4c11.4-4.1,14.1-7.2,14-8.3c-0.2-1.1-3.7-3.3-15.8-3.9c-0.5,0-1,0-1.5,0c-0.3-1-0.7-2-1.2-2.9
				c11.6,0.2,20.6,1.9,21.3,6.4C676.9,120.5,676.9,120.7,676.9,120.8z"/>
		</g>
		<path class="st15" d="M658.5,123.8c-0.4-2.4-0.9-4.7-1.7-6.8c-0.3-1-0.7-2-1.2-2.9c-6.7-14.7-22.5-23.9-39.3-21.4
			c-16.6,2.5-29,15.8-31.2,31.6c-0.1,1-0.2,2.1-0.3,3.1c-0.1,2.4,0,4.9,0.4,7.4c0.3,2.1,0.8,4.1,1.4,6c0.8,0,1.6,0,2.5,0
			c-0.7-2-1.3-4.2-1.6-6.4c-0.4-2.6-0.5-5.3-0.3-7.8c0.1-1,0.2-2.1,0.4-3.1c2.4-14.4,13.9-26.3,29.1-28.6c15.3-2.3,29.9,5.8,36.4,19
			c0.5,0.9,0.9,1.9,1.3,2.9c0.9,2.3,1.5,4.7,1.9,7.2c0.3,2.1,0.4,4.2,0.4,6.2c0.8-0.3,1.6-0.5,2.3-0.8
			C658.9,127.7,658.8,125.8,658.5,123.8z M627,163.7c-15.6,2.4-30.5-6.2-36.8-19.9c-0.9,0-1.7,0-2.5,0c6.4,15.2,22.6,24.7,39.6,22.2
			c17.2-2.6,29.9-16.7,31.4-33.3c-0.8,0.3-1.6,0.5-2.4,0.8C654.5,148.6,642.8,161.3,627,163.7z M587.5,134.5
			c-0.4-2.6-0.5-5.3-0.3-7.8c-0.8,0.2-1.6,0.5-2.4,0.7c-0.1,2.4,0,4.9,0.4,7.4c0.3,2.1,0.8,4.1,1.4,6c0.8,0,1.6,0,2.5,0
			C588.4,138.9,587.8,136.7,587.5,134.5z"/>
	</g>
	<g class="st1">
		<circle class="st17" cx="269.8" cy="25.5" r="35.5"/>
		<circle class="st18" cx="259.3" cy="11" r="5.1"/>
		<ellipse transform="matrix(0.7072 -0.707 0.707 0.7072 45.4889 193.6505)" class="st18" cx="256.5" cy="41.9" rx="2.5" ry="2.5"/>
		<ellipse transform="matrix(0.7072 -0.707 0.707 0.7072 64.9001 216.2591)" class="st18" cx="293.6" cy="29.8" rx="2.5" ry="2.5"/>
		<ellipse transform="matrix(0.7072 -0.707 0.707 0.7072 52.6505 198.8019)" class="st18" cx="266.3" cy="35.8" rx="1.8" ry="1.8"/>
	</g>
	<g class="st1">
		<path class="st19" d="M167.6,683.9c22.7,51.6-0.8,111.6-52.4,134.3c-6.4,2.8-19.9,6.2-20.1,6.3c0,0-24,3.1-35.7,1.4
			c0,0-0.1,0-0.1,0c-0.2,0-0.3-0.1-0.5-0.1c-0.9-0.1-1.7-0.2-2.6-0.3c0,0,0,0,0,0c-0.1,0-0.2,0-0.3-0.1c-5.2-1-10.2-2.2-15.2-3.9
			c0,0-0.1,0-0.1,0c-1.5-0.5-2.9-1-4.4-1.6c0,0,0,0,0,0c-0.2-0.1-0.5-0.2-0.8-0.3c-0.1,0-0.1,0-0.2-0.1c-0.7-0.3-1.4-0.5-2.1-0.8
			c-0.2-0.1-0.3-0.2-0.5-0.3c-0.6-0.4-1-0.9-2.1-1c-0.1,0-0.3,0-0.4,0l0,0c0-0.1-0.1-0.2-0.2-0.2c-0.3-0.4-1.1-0.6-1.8-0.9l0,0
			c-0.3-0.1-0.6-0.2-0.8-0.3c-1.6-0.8-3.1-1.7-4.7-2.6c-0.3-0.2-0.6-0.4-0.9-0.6c-0.1-0.1-0.3-0.2-0.4-0.2c-0.2-0.1-0.3-0.2-0.5-0.3
			l0,0c-0.6-0.3-1.1-0.7-1.7-1.1c-0.6-0.4-1.1-0.7-1.6-1.1l0,0c-0.8-0.5-1.6-1.1-2.3-1.6c-0.6-0.4-1.1-0.8-1.7-1.2
			c-0.3-0.2-0.6-0.4-0.9-0.6c-0.5-0.4-1.1-0.8-1.6-1.3c-0.2-0.1-0.4-0.3-0.5-0.4c-0.7-0.5-1.4-1.1-2-1.7c-0.5-0.4-0.9-0.8-1.4-1.2
			c-4.4-3.8-8.5-8.1-12.2-12.7c-0.4-0.4-0.7-0.9-1.1-1.3c0,0-0.1-0.1-0.1-0.1c-0.5-0.6-1-1.3-1.5-1.9c-0.6-0.9-1.3-1.7-1.9-2.6
			c-0.2-0.3-0.4-0.6-0.6-0.9c-0.2-0.3-0.5-0.7-0.7-1c-0.3-0.4-0.5-0.8-0.8-1.2c-0.4-0.6-0.8-1.2-1.2-1.8c-0.3-0.5-0.7-0.9-1-1.4
			c-0.5-0.8-0.9-1.6-1.4-2.4c-0.1,0-0.1-0.1-0.1-0.2c-1.4-2.4-2.6-4.8-3.8-7.4l-0.1-0.3c-0.1-0.1,0-0.3-0.1-0.4
			c-0.2-0.4-0.3-0.8-0.4-1.2c-0.2-0.5-0.4-1-0.6-1.5c-0.6-1.5-1.2-3.1-1.8-4.6c-0.7-1.9-1.3-3.8-1.8-5.7c-0.1-0.2-0.1-0.4-0.2-0.6
			c-0.1-0.4-0.2-0.8-0.3-1.3c-0.4-1.4-0.7-2.8-1-4.2c-0.1-0.5-0.2-1.1-0.3-1.6c-0.2-1.1-0.4-2.2-0.6-3.3c-0.1-0.5-0.2-1-0.3-1.5
			c-0.1-0.7-0.2-1.4-0.3-2.1c-0.1-0.6-0.2-1.2-0.2-1.8c-0.1-0.8-0.2-1.7-0.3-2.5c-0.1-0.6-0.1-1.2-0.1-1.7
			c-0.3-3.6-0.3-7.2-0.2-10.7c0.1-1.2,0.1-2.5,0.2-3.7c0.4-5.2,1.1-10.4,2.3-15.4c0.3-1.4,0.6-2.7,1-4c0.3-1.1,0.6-2.3,1-3.4
			c0.1-0.3,0.2-0.6,0.3-0.8c0.2-0.6,0.3-1.1,0.5-1.7c0.1-0.2,0.1-0.5,0.3-0.7c0.1-0.4,0.3-0.8,0.4-1.2c0.2-0.7,0.5-1.4,0.8-2.2
			c0.3-0.9,0.7-1.8,1.1-2.7c0,0,0,0,0-0.1c0.3-0.7,0.6-1.4,0.9-2.1c2.6-5.9,5.7-11.5,9.4-16.8c1.9-2.8,4.1-5.6,6.3-8.2
			c0.9-1,1.7-2,2.6-3c7.8-8.5,17.2-15.8,27.9-21.3c1.9-1,3.9-2,5.9-2.8c0.5-0.2,1-0.4,1.5-0.6C85.7,609.4,145.1,632.8,167.6,683.9z"
			/>
		<g>
			<path class="st20" d="M76,647.5l1.6,3.7c1.1,2.5,0.2,6-2.3,7.1l-100.9,44.4c0.3-1.4,0.6-2.7,1-4c1.4-5.1,3.1-10.1,5.3-14.9
				l88.6-39C71.9,643.6,74.9,645,76,647.5z"/>
		</g>
		<g>
			<path class="st20" d="M102.6,667l1.6,3.7c1.1,2.5-0.4,5.7-2.9,6.8l-128.9,56.8c-0.1-0.6-0.1-1.2-0.1-1.7
				c-0.3-3.6-0.3-7.2-0.2-10.7c0.1-1.2,0.1-2.5,0.2-3.7l123.1-54.2C97.9,662.8,101.5,664.5,102.6,667z"/>
		</g>
		<g>
			<path class="st20" d="M47.2,676.1l0.6,1.4c1.1,2.5,3.6,4,6.4,4.5c0.5,0.1,1.1,0.2,1.6,0.2c0.4,0,0.8,0,1.3,0l0.8,1.8L-28,721.8
				c0.1-1.2,0.1-2.5,0.2-3.7c0.4-5.2,1.1-10.4,2.3-15.4c0.3-1.4,0.6-2.7,1-4l74.4-32.7l0.1,0.2c-1.1,1.1-2,2.4-2.6,3.8
				c-0.1,0.3-0.2,0.5-0.3,0.8C46.5,672.6,46.4,674.5,47.2,676.1z"/>
		</g>
		<g>
			<path class="st20" d="M6.5,661.6l0.6,1.4c1.1,2.5,3.6,4,6.4,4.5c0.5,0.1,1.1,0.2,1.6,0.2c0.4,0,0.8,0,1.3,0l0.8,1.8l-37.3,16.4
				c0,0,0,0,0-0.1c0.3-0.7,0.6-1.4,0.9-2.1c2.6-5.9,5.7-11.5,9.4-16.8c1.9-2.8,4.1-5.6,6.3-8.2c0.9-1,1.7-2,2.6-3l10.1-4.4l0.1,0.2
				c-0.7,0.7-1.4,1.5-1.9,2.4c-0.3,0.5-0.5,1-0.8,1.5c-0.1,0.3-0.2,0.5-0.3,0.8C6,657.5,5.8,658.8,6,660
				C6.1,660.5,6.3,661.1,6.5,661.6z"/>
		</g>
		<g>
			<path class="st20" d="M92.2,770.2l1.6,3.7c1.1,2.5,0.2,6-2.3,7.1l-70.8,31.2c-0.6-0.3-1.1-0.7-1.7-1.1c-0.6-0.3-1.1-0.7-1.7-1.1
				c-0.8-0.5-1.6-1.1-2.3-1.6c-0.6-0.4-1.1-0.8-1.7-1.2c-0.3-0.2-0.6-0.4-0.9-0.6c-0.5-0.4-1.1-0.8-1.6-1.3
				c-0.2-0.1-0.4-0.3-0.5-0.4c-0.7-0.5-1.4-1.1-2-1.7c-0.5-0.4-0.9-0.8-1.4-1.2l78.6-34.6C88.1,766.3,91.1,767.7,92.2,770.2z"/>
		</g>
		<g>
			<path class="st20" d="M118.8,789.7l1.6,3.7c1.1,2.5-0.4,5.7-2.9,6.8l-58.7,25.8c-1-0.1-2-0.3-3-0.5c-5.2-1-10.3-2.3-15.3-4.1
				c-1.5-0.5-3-1.1-4.4-1.7l75.5-33.2C114,785.5,117.7,787.2,118.8,789.7z"/>
		</g>
		<g>
			<path class="st20" d="M63.3,798.8l0.6,1.4c1.1,2.5,3.6,4,6.4,4.5c0.5,0.1,1.1,0.2,1.6,0.2c0.4,0,0.8,0,1.3,0l0.8,1.8l-33.5,14.8
				c-1.5-0.5-3-1.1-4.4-1.7c-5.3-2.1-10.4-4.7-15.3-7.7c-1.1-0.7-2.3-1.4-3.4-2.1L66,788.6l0.1,0.2c-1.1,1.1-2,2.4-2.6,3.8
				c-0.1,0.3-0.2,0.5-0.3,0.8C62.6,795.3,62.6,797.2,63.3,798.8z"/>
		</g>
		<g>
			<path class="st20" d="M93.1,809.2l0.1,0.2c-0.7,0.7-1.4,1.5-1.9,2.4c-0.3,0.5-0.5,1-0.8,1.5c-0.1,0.3-0.2,0.5-0.3,0.8
				c-0.6,1.8-0.6,3.7,0.1,5.4l0.6,1.4c0.8,1.7,2.2,3,4,3.8l-0.1,0c-11.6,3.3-23.9,3.1-35.6,1.3c0,0-0.1,0-0.1,0l-0.4,0.2
				c-1-0.1-2-0.3-3-0.5L93.1,809.2z"/>
		</g>
		<g>
			<path class="st20" d="M75.1,711l1.6,3.7c1.1,2.5,0.2,6-2.3,7.1l-94.9,41.8c-0.9-2-1.7-4.1-2.4-6.2c-0.7-1.9-1.3-3.8-1.8-5.7
				c0.1-0.3,0.2-0.6,0.3-0.8c0.3-0.8,0.6-1.5,1-2.2l91.9-40.5C71,707.1,74,708.5,75.1,711z"/>
		</g>
		<g>
			<path class="st20" d="M34.7,631.4l1.6,3.7c1.1,2.5,0.2,6-2.3,7.1l-37.5,16.5c0.9-1,1.7-2,2.6-3c7.8-8.5,17.2-15.8,27.9-21.3
				c1.9-1,3.9-2,5.9-2.8c0.5-0.2,1-0.4,1.5-0.6C34.6,631.1,34.6,631.3,34.7,631.4z"/>
		</g>
		<g>
			<path class="st20" d="M87.3,738.7l1.6,3.7c1.1,2.5-0.4,5.7-2.9,6.8l-91.3,40.2c-0.4-0.4-0.7-0.9-1.1-1.3c0,0-0.1-0.1-0.1-0.1
				c-0.5-0.6-1-1.3-1.5-1.9c-0.6-0.9-1.3-1.7-1.9-2.6c-0.2-0.3-0.4-0.6-0.6-0.9c-0.2-0.3-0.5-0.7-0.7-1c-0.3-0.4-0.5-0.8-0.8-1.2
				c-0.4-0.6-0.8-1.2-1.2-1.8c-0.3-0.5-0.6-1-0.8-1.4L80,735.6C82.5,734.5,86.2,736.2,87.3,738.7z"/>
		</g>
		<g>
			<path class="st20" d="M46.3,739.6l0.6,1.4c1.3,2.9,4.5,4.5,8,4.7c0.4,0,0.8,0,1.3,0l0.8,1.8l-70.2,30.9c-2-3.4-3.8-7-5.5-10.7
				c-0.2-0.4-0.3-0.8-0.5-1.1c-0.9-2-1.7-4.1-2.4-6.2L49,729.4l0.1,0.2c-1.1,1.1-2,2.4-2.6,3.8c-0.6,1.5-0.9,3.1-0.7,4.6
				C45.9,738.6,46.1,739.1,46.3,739.6z"/>
		</g>
		<g>
			<path class="st20" d="M63.5,766.3l0.6,1.4c1.3,2.9,4.5,4.5,8,4.7c0.4,0,0.8,0,1.3,0l0.8,1.8l-65.8,29c-0.5-0.4-0.9-0.8-1.4-1.2
				c-4.4-3.8-8.5-8.1-12.2-12.7c-0.4-0.4-0.7-0.9-1.1-1.3l72.5-31.9l0.1,0.2c-0.7,0.7-1.4,1.5-1.9,2.4c-0.3,0.5-0.5,1-0.8,1.5
				c-0.6,1.5-0.9,3.1-0.7,4.6C63.1,765.3,63.2,765.8,63.5,766.3z"/>
		</g>
		<g>
			<path class="st20" d="M35,714l0.6,1.4c1.3,2.9,4.5,4.5,8,4.7c0.4,0,0.8,0,1.3,0l0.8,1.8l-69.9,30.8c-1.7-6.1-2.8-12.2-3.4-18.3
				c-0.1-0.6-0.1-1.2-0.1-1.7l65.4-28.8l0.1,0.2c-0.7,0.7-1.4,1.5-1.9,2.4c-0.3,0.5-0.5,1-0.8,1.5C34.3,709.8,34.1,712,35,714z"/>
		</g>
	</g>
</g>
</svg>
