<?xml version="1.0" encoding="utf-8"?>
<!-- Generator: Adobe Illustrator 19.2.1, SVG Export Plug-In . SVG Version: 6.00 Build 0)  -->
<svg version="1.1" id="Layer_1" xmlns="http://www.w3.org/2000/svg" xmlns:xlink="http://www.w3.org/1999/xlink" x="0px" y="0px"
	 viewBox="0 0 1023.9 768" style="enable-background:new 0 0 1023.9 768;" xml:space="preserve">
<style type="text/css">
	.st0{fill:#282039;}
	.st1{fill:#2C253F;}
	.st2{fill:#302744;}
	.st3{opacity:0.8;}
	.st4{fill:#F3EED9;stroke:#F3EED9;stroke-linecap:round;stroke-linejoin:round;stroke-miterlimit:10;}
	.st5{opacity:0.8;fill:none;stroke:#F3EED9;stroke-miterlimit:10;}
	.st6{opacity:0.8;fill:#F3EED9;}
	.st7{opacity:0.4;fill:#40355D;}
	.st8{fill:#F3EED9;}
	.st9{fill:#D0CEB7;}
	.st10{fill:#706F9B;}
	.st11{fill:#15F2DB;}
	.st12{fill:#00E1D5;}
	.st13{fill:#FC2A7D;}
	.st14{fill:#ED007E;}
	.st15{fill:#FAD58F;}
	.st16{fill:#FFC466;}
	.st17{fill:#FFA466;}
	.st18{fill:#FF217C;}
	.st19{fill:#D30079;}
	.st20{fill:#F5E8D5;}
	.st21{fill:#EC017C;}
	.st22{fill:#FFFFFF;}
	.st23{opacity:0.15;}
	.st24{fill:#FFA440;}
	.st25{fill:#E8E8E8;}
	.st26{fill:#8D9496;}
	.st27{fill:#B9BFC1;}
	.st28{fill:#BDD9E0;}
	.st29{fill:#79A2AD;}
	.st30{fill:#495456;}
</style>
<g>
	<rect transform="matrix(-1 -1.224647e-16 1.224647e-16 -1 1023.9037 768)" class="st0" width="1023.9" height="768"/>
	<g>
		<path class="st1" d="M548.4,394c0,0,6.8,8,0.1,15h39.1v-15L548.4,394z"/>
		<path class="st1" d="M861.6,409h-281v-15l280.3,0"/>
		<path class="st1" d="M897.5,394c0,0-6.1,8,0.5,15h-40.4v-15L897.5,394z"/>
	</g>
	<path class="st1" d="M400.4,354c0,0,6.8,8,0.1,15h39.1v-15L400.4,354z"/>
	<path class="st1" d="M573.5,354c0,0-6.1,8,0.5,15H433.6v-15L573.5,354z"/>
	<path class="st1" d="M915.2,409l-384.7,0c-6.9,0-12.5,5.6-12.5,12.5v0c0,6.9,5.6,12.5,12.5,12.5l384.7,0c6.9,0,12.5-5.6,12.5-12.5
		v0C927.7,414.6,922.1,409,915.2,409z"/>
	<path class="st1" d="M1000.1,369l-887.3,0c-6.9,0-12.5,5.6-12.5,12.5l0,0c0,6.9,5.6,12.5,12.5,12.5l887.3,0
		c6.9,0,12.5-5.6,12.5-12.5l0,0C1012.6,374.6,1007,369,1000.1,369z"/>
	<path class="st1" d="M599.8,330.3l-217.5,0c-6.9,0-12.5,5.6-12.5,12.5v0c0,6.9,5.6,12.5,12.5,12.5l217.5,0
		c6.9,0,12.5-5.6,12.5-12.5v0C612.3,335.9,606.7,330.3,599.8,330.3z"/>
	<path class="st2" d="M895.1,32c0,0-6.5,8,0.1,15h-39.6V32L895.1,32z"/>
	<g>
		<path class="st1" d="M747.1,72c0,0-6.5,8,0.1,15h-39.6V72L747.1,72z"/>
		<path class="st1" d="M433.6,87h281V72l-280.3,0"/>
		<path class="st1" d="M398,72c0,0,6.4,8-0.3,15h39.9V72L398,72z"/>
	</g>
	<path class="st1" d="M642,32c0,0,6.4,8-0.3,15h229.9V32L642,32z"/>
	<path class="st1" d="M380.5,87l384.7,0c6.9,0,12.5,5.6,12.5,12.5v0c0,6.9-5.6,12.5-12.5,12.5l-384.7,0c-6.9,0-12.5-5.6-12.5-12.5v0
		C368,92.6,373.6,87,380.5,87z"/>
	<path class="st1" d="M72.1,47l928,0c6.9,0,12.5,5.6,12.5,12.5v0c0,6.9-5.6,12.5-12.5,12.5l-928,0c-6.9,0-12.5-5.6-12.5-12.5v0
		C59.6,52.6,65.2,47,72.1,47z"/>
	<path class="st1" d="M623.9,8.3l289.5,0c6.9,0,12.5,5.6,12.5,12.5v0c0,6.9-5.6,12.5-12.5,12.5l-289.5,0c-6.9,0-12.5-5.6-12.5-12.5
		v0C611.4,13.9,617,8.3,623.9,8.3z"/>
	<g>
		<g>
			<path class="st1" d="M756.1,716c0,0-6.5,8,0.1,15h-39.6v-15L756.1,716z"/>
			<path class="st1" d="M442.6,731h281v-15l-280.3,0"/>
			<path class="st1" d="M407,716c0,0,6.4,8-0.3,15h39.9v-15L407,716z"/>
		</g>
		<path class="st1" d="M904.1,676c0,0-6.5,8,0.1,15h-39.6v-15L904.1,676z"/>
		<path class="st1" d="M731,676c0,0,6.4,8-0.3,15h139.9v-15L731,676z"/>
		<path class="st1" d="M389.5,731l384.7,0c6.9,0,12.5,5.6,12.5,12.5l0,0c0,6.9-5.6,12.5-12.5,12.5l-384.7,0
			c-6.9,0-12.5-5.6-12.5-12.5v0C377,736.6,382.6,731,389.5,731z"/>
		<path class="st1" d="M304.6,691l704.5,0c6.9,0,12.5,5.6,12.5,12.5v0c0,6.9-5.6,12.5-12.5,12.5l-704.5,0c-6.9,0-12.5-5.6-12.5-12.5
			l0,0C292.1,696.6,297.7,691,304.6,691z"/>
		<path class="st1" d="M704.9,652.3l217.5,0c6.9,0,12.5,5.6,12.5,12.5v0c0,6.9-5.6,12.5-12.5,12.5l-217.5,0
			c-6.9,0-12.5-5.6-12.5-12.5l0,0C692.4,657.9,698,652.3,704.9,652.3z"/>
	</g>
	<g>
		<g class="st3">
			<line class="st4" x1="802.8" y1="606.7" x2="799.3" y2="614.7"/>
			<line class="st4" x1="805.1" y1="612.4" x2="797" y2="609"/>
		</g>
		<circle class="st5" cx="746.9" cy="467.5" r="4.7"/>
		<circle class="st5" cx="756.9" cy="409.5" r="4.7"/>
		<ellipse transform="matrix(0.7071 -0.7071 0.7071 0.7071 -363.2271 596.0913)" class="st6" cx="537.9" cy="736.5" rx="2" ry="2"/>
		<circle class="st6" cx="524.9" cy="366.5" r="5.1"/>
		<circle class="st6" cx="705.9" cy="399.5" r="5.1"/>
		<g class="st3">
			<line class="st4" x1="831" y1="385.4" x2="831" y2="394.1"/>
			<line class="st4" x1="835.4" y1="389.7" x2="826.7" y2="389.7"/>
		</g>
		<g class="st3">
			<line class="st4" x1="330.7" y1="379.4" x2="329.4" y2="388"/>
			<line class="st4" x1="334.4" y1="384.4" x2="325.7" y2="383.1"/>
		</g>
		<g class="st3">
			<line class="st4" x1="460.7" y1="349.4" x2="461.3" y2="358.1"/>
			<line class="st4" x1="465.4" y1="353.4" x2="456.7" y2="354"/>
		</g>
		<circle class="st5" cx="917.9" cy="382.5" r="3.5"/>
		<ellipse transform="matrix(0.7071 -0.7071 0.7071 0.7071 -124.0708 451.4662)" class="st6" cx="482.9" cy="375.5" rx="2" ry="2"/>
		<ellipse transform="matrix(0.7071 -0.7071 0.7071 0.7071 95.8392 360.3766)" class="st6" cx="482.9" cy="64.5" rx="2" ry="2"/>
		<ellipse transform="matrix(0.7071 -0.7071 0.7071 0.7071 50.0977 245.9467)" class="st6" cx="321.9" cy="62.5" rx="2" ry="2"/>
		<ellipse transform="matrix(0.7071 -0.7071 0.7071 0.7071 -133.116 525.6291)" class="st6" cx="567.9" cy="423.5" rx="2" ry="2"/>
		<ellipse transform="matrix(0.7071 -0.7071 0.7071 0.7071 -39.7421 723.0538)" class="st6" cx="852.9" cy="409.5" rx="2" ry="2"/>
		<g class="st3">
			<line class="st4" x1="615.1" y1="384.2" x2="617.9" y2="392.5"/>
			<line class="st4" x1="620.6" y1="387" x2="612.3" y2="389.8"/>
		</g>
		<circle class="st6" cx="309.9" cy="575.5" r="7.1"/>
		<circle class="st6" cx="544.9" cy="499.5" r="5.1"/>
		<circle class="st5" cx="523.9" cy="264.5" r="7"/>
		<g class="st3">
			<line class="st4" x1="404.3" y1="86.2" x2="406.7" y2="94.6"/>
			<line class="st4" x1="409.7" y1="89.2" x2="401.3" y2="91.6"/>
		</g>
		<g class="st3">
			<line class="st4" x1="730.1" y1="309.2" x2="732.9" y2="317.5"/>
			<line class="st4" x1="735.6" y1="312" x2="727.3" y2="314.8"/>
		</g>
		<circle class="st5" cx="827.9" cy="41.5" r="3.5"/>
		<circle class="st6" cx="936.9" cy="181.5" r="5.1"/>
		<ellipse transform="matrix(0.7071 -0.7071 0.7071 0.7071 -255.9357 501.1158)" class="st6" cx="476.9" cy="559.5" rx="2" ry="2"/>
		<circle class="st6" cx="968.9" cy="585.5" r="5.1"/>
		<g class="st3">
			<line class="st4" x1="587.1" y1="81.3" x2="589.9" y2="89.6"/>
			<line class="st4" x1="592.6" y1="84.1" x2="584.3" y2="86.8"/>
		</g>
		<circle class="st6" cx="689.9" cy="60.5" r="5.1"/>
		<circle class="st6" cx="779.9" cy="21.5" r="4.5"/>
		<ellipse transform="matrix(0.7071 -0.7071 0.7071 0.7071 165.5305 480.6263)" class="st6" cx="662.9" cy="40.5" rx="2" ry="2"/>
		<circle class="st5" cx="442.9" cy="84.5" r="4.5"/>
		<circle class="st5" cx="405.9" cy="377.5" r="3"/>
		<circle class="st5" cx="517.2" cy="731.5" r="4.7"/>
		<circle class="st6" cx="749.2" cy="688.5" r="5.1"/>
		<circle class="st6" cx="568.2" cy="721.5" r="5.1"/>
		<g class="st3">
			<line class="st4" x1="443.1" y1="707.4" x2="443.1" y2="716.1"/>
			<line class="st4" x1="438.7" y1="711.7" x2="447.4" y2="711.7"/>
		</g>
		<g class="st3">
			<line class="st4" x1="943.4" y1="701.4" x2="944.7" y2="710"/>
			<line class="st4" x1="939.8" y1="706.4" x2="948.4" y2="705.1"/>
		</g>
		<g class="st3">
			<line class="st4" x1="813.4" y1="671.4" x2="812.8" y2="680.1"/>
			<line class="st4" x1="808.7" y1="675.4" x2="817.4" y2="676"/>
		</g>
		<circle class="st5" cx="356.2" cy="704.5" r="3.5"/>
		<ellipse transform="matrix(0.7071 -0.7071 0.7071 0.7071 -261.475 763.7442)" class="st6" cx="791.2" cy="697.5" rx="2" ry="2"/>
		<ellipse transform="matrix(0.7071 -0.7071 0.7071 0.7071 -320.3121 717.699)" class="st6" cx="706.2" cy="745.5" rx="2" ry="2"/>
		<ellipse transform="matrix(0.7071 -0.7071 0.7071 0.7071 -393.8873 512.0729)" class="st6" cx="421.2" cy="731.5" rx="2" ry="2"/>
		<g class="st3">
			<line class="st4" x1="659" y1="706.2" x2="656.3" y2="714.5"/>
			<line class="st4" x1="653.5" y1="709" x2="661.8" y2="711.8"/>
		</g>
		<circle class="st5" cx="868.2" cy="699.5" r="3"/>
	</g>
	<g class="st3">
		<line class="st4" x1="146.2" y1="593.5" x2="142.7" y2="601.5"/>
		<line class="st4" x1="148.5" y1="599.2" x2="140.4" y2="595.8"/>
	</g>
	<circle class="st5" cx="90.3" cy="454.2" r="4.7"/>
	<circle class="st5" cx="100.3" cy="396.2" r="4.7"/>
	<circle class="st6" cx="49.3" cy="386.2" r="5.1"/>
	<g class="st3">
		<line class="st4" x1="174.4" y1="372.1" x2="174.4" y2="380.9"/>
		<line class="st4" x1="178.8" y1="376.5" x2="170.1" y2="376.5"/>
	</g>
	<circle class="st5" cx="261.3" cy="369.2" r="3.5"/>
	<ellipse transform="matrix(0.7071 -0.7071 0.7071 0.7071 -222.6863 254.887)" class="st6" cx="196.3" cy="396.2" rx="2" ry="2"/>
	<g class="st3">
		<line class="st4" x1="73.5" y1="296" x2="76.3" y2="304.3"/>
		<line class="st4" x1="79" y1="298.8" x2="70.7" y2="301.5"/>
	</g>
	<circle class="st5" cx="171.3" cy="28.2" r="3.5"/>
	<circle class="st6" cx="280.3" cy="168.3" r="5.1"/>
	<circle class="st6" cx="312.3" cy="572.2" r="5.1"/>
	<circle class="st6" cx="33.3" cy="47.3" r="5.1"/>
	<circle class="st6" cx="123.3" cy="8.3" r="4.5"/>
	<ellipse transform="matrix(0.7071 -0.7071 0.7071 0.7071 -17.4137 12.4594)" class="st6" cx="6.3" cy="27.2" rx="2" ry="2"/>
	<circle class="st6" cx="92.6" cy="675.2" r="5.1"/>
	<g class="st3">
		<line class="st4" x1="286.8" y1="688.2" x2="288.1" y2="696.8"/>
		<line class="st4" x1="283.2" y1="693.1" x2="291.8" y2="691.8"/>
	</g>
	<g class="st3">
		<line class="st4" x1="156.8" y1="658.1" x2="156.2" y2="666.8"/>
		<line class="st4" x1="152.1" y1="662.2" x2="160.8" y2="662.8"/>
	</g>
	<ellipse transform="matrix(0.7071 -0.7071 0.7071 0.7071 -444.4199 295.5767)" class="st6" cx="134.6" cy="684.2" rx="2" ry="2"/>
	<ellipse transform="matrix(0.7071 -0.7071 0.7071 0.7071 -503.257 249.5314)" class="st6" cx="49.6" cy="732.2" rx="2" ry="2"/>
	<g class="st3">
		<line class="st4" x1="22.4" y1="693" x2="19.7" y2="701.3"/>
		<line class="st4" x1="16.9" y1="695.8" x2="25.2" y2="698.5"/>
	</g>
	<circle class="st5" cx="211.6" cy="686.2" r="3"/>
	<path class="st7" d="M865.9,403.8c0,88.2-32.2,168.8-85.4,230.8c-0.1,0.2-0.3,0.3-0.4,0.5c-20.7,24-44.5,45.2-70.8,62.9
		c-14.5,9.7-29.7,18.4-45.5,26c-46.1,22-97.7,34.3-152.2,34.3c-54.5,0-106.1-12.3-152.2-34.3c-6.6-3.1-13.1-6.5-19.4-10
		c-3.1-1.7-6.1-3.4-9.1-5.2c-5.8-3.4-11.5-7-17-10.8c-4.3-2.9-8.6-5.9-12.7-9c-16.3-12-31.5-25.4-45.4-40c-0.2-0.2-0.3-0.3-0.5-0.5
		c-60.7-63.6-98-149.8-98-244.7c0-195.7,158.7-354.4,354.4-354.4C707.2,49.4,865.9,208.1,865.9,403.8z"/>
	<circle class="st7" cx="513.4" cy="415.5" r="269.8"/>
	<circle class="st7" cx="515.5" cy="425.8" r="206"/>
	<g>
		<circle class="st8" cx="280.9" cy="283.3" r="35.5"/>
		<circle class="st9" cx="270.4" cy="268.8" r="5.1"/>
		
			<ellipse transform="matrix(0.7072 -0.707 0.707 0.7072 -133.5272 276.9841)" class="st9" cx="267.7" cy="299.7" rx="2.5" ry="2.5"/>
		
			<ellipse transform="matrix(0.7072 -0.707 0.707 0.7072 -114.116 299.5928)" class="st9" cx="304.7" cy="287.6" rx="2.5" ry="2.5"/>
		
			<ellipse transform="matrix(0.7072 -0.707 0.707 0.7072 -126.3752 282.1461)" class="st9" cx="277.4" cy="293.6" rx="1.8" ry="1.8"/>
	</g>
	<g>
		<g>
			<path class="st10" d="M863.6,427.8l-154.2,19.7c-1.5,0.2-3-0.9-3.2-2.4l0,0c-0.2-1.5,0.9-3,2.4-3.2l154.2-19.7
				c1.5-0.2,3,0.9,3.2,2.4v0C866.2,426.2,865.1,427.7,863.6,427.8z"/>
			<path class="st10" d="M762.8,443l0.1,0.6c0.2,1.4,1.5,2.5,3,2.9l0.1,0.8l-43.6,5.6c1.5-0.7,2.4-2.3,2.2-3.8l-0.1-0.6
				c-0.2-1.5-1.4-2.6-3.1-3l-0.1-0.5l43.6-5.6l0,0.1C763.6,440.2,762.6,441.6,762.8,443z"/>
			<path class="st10" d="M788.1,441.2l-0.1-0.6c-0.2-1.4-1-2.6-3-2.9l-0.1-0.9l43.8-5.6c-1.5,0.9-2.6,2.4-2.4,3.9l0.1,0.6
				c0.2,1.5,1.7,2.6,3.1,3l0.1,0.5l-43.6,5.6l0,0C787.8,443.9,788.3,442.6,788.1,441.2z"/>
		</g>
		<path class="st11" d="M815.9,439.4c2.9,22.6-13.1,42.8-35.7,45.7c-2.8,0.4-5.5,0.9-8.2-0.1h0c-5.1,0-10-1.3-14.5-3.5
			c-0.4-0.2-0.7-0.2-1.1-0.4c-1.9-1-3.7-2-5.5-3.2c-0.5-0.4-1-0.7-1.5-1.1c-1.8-1.4-3.5-3-5-4.7c-0.4-0.4-0.7-0.8-1.1-1.2
			c-1.1-1.4-2.2-2.8-3.1-4.3c-1.3-2-2.4-4.1-3.3-6.3c-0.8-1.9-1.4-3.8-1.9-5.8c-0.4-1.5-0.7-3.1-0.9-4.7c0-0.2,0-0.3-0.1-0.5
			c-0.1-0.9-0.2-1.8-0.2-2.7c0-0.8-0.1-1.6,0-2.4c0-0.1,0-0.2,0-0.3c0-2.5,0.3-5,0.8-7.5c0-0.2,0.1-0.5,0.1-0.7
			c0.3-1.4,0.7-2.8,1.1-4.2c0.2-0.5,0.3-0.9,0.5-1.4c0.7-2,1.6-3.9,2.6-5.7c0.3-0.5,0.6-1,0.8-1.5c0.9-1.5,2-3,3.1-4.4
			c0.2-0.3,0.4-0.5,0.6-0.7c1.7-2,3.5-3.8,5.5-5.4c1.5-1.2,3.1-2.3,4.7-3.3c4-2.4,8.5-4.1,13.2-5c0.9-0.2,1.7-0.3,2.6-0.4
			C792.4,400.9,813.1,416.8,815.9,439.4z"/>
		<path class="st10" d="M835.5,442.7c-0.1,0.1-0.1,0.2-0.1,0.4l-0.4,0c0.1-0.1,0.2-0.2,0.3-0.3C835.4,442.8,835.4,442.8,835.5,442.7
			z"/>
		<path class="st10" d="M842.7,441.5c-0.2,0.1-7,1.1-7.2,1.2C835.7,442.4,842.5,441.6,842.7,441.5z"/>
		<path class="st10" d="M842.7,441.5c-0.2,0.1-7,1.1-7.2,1.2C835.7,442.4,842.5,441.6,842.7,441.5z"/>
		<g>
			<path class="st12" d="M784.7,414.8l0.2,1.6c0.1,1.1-0.6,2.3-1.7,2.5l-44.1,5.6c0.3-0.5,0.6-1,0.8-1.5c1.1-1.8,2.4-3.5,3.8-5.2
				l38.7-4.9C783.6,412.8,784.6,413.7,784.7,414.8z"/>
		</g>
		<g>
			<path class="st12" d="M792.8,425.4l0.2,1.6c0.1,1.1-0.8,2.1-1.9,2.3l-56.4,7.2c0-0.2,0.1-0.5,0.1-0.7c0.3-1.4,0.7-2.8,1.1-4.2
				c0.2-0.5,0.3-0.9,0.5-1.4l53.8-6.9C791.4,423.2,792.6,424.3,792.8,425.4z"/>
		</g>
		<g>
			<path class="st12" d="M770.3,422.6l0.1,0.6c0.1,1.1,0.9,1.9,2,2.5c0.2,0.1,0.4,0.2,0.6,0.3c0.2,0.1,0.3,0.1,0.5,0.1l0.1,0.8
				l-37.5,4.8c0.2-0.5,0.3-0.9,0.5-1.4c0.7-2,1.6-3.9,2.6-5.7c0.3-0.5,0.6-1,0.8-1.5l32.5-4.1l0,0.1c-0.6,0.3-1.1,0.7-1.5,1.2
				c-0.1,0.1-0.1,0.2-0.2,0.3C770.4,421.1,770.2,421.8,770.3,422.6z"/>
		</g>
		<g>
			<path class="st12" d="M756.2,412.3l0.1,0.6c0.1,1.1,0.9,1.9,2,2.5c0.2,0.1,0.4,0.2,0.6,0.3c0.2,0.1,0.3,0.1,0.5,0.1l0.1,0.8
				l-16.3,2.1c0.2-0.3,0.4-0.5,0.6-0.7c1.7-2,3.5-3.8,5.5-5.4c1.5-1.2,3.1-2.3,4.7-3.3l4.4-0.6l0,0.1c-0.6,0.3-1.1,0.7-1.5,1.2
				c-0.1,0.1-0.1,0.2-0.2,0.3c-0.3,0.4-0.5,0.9-0.6,1.4C756.2,411.8,756.2,412.1,756.2,412.3z"/>
		</g>
		<g>
			<path class="st12" d="M776.9,464.1l0.2,1.6c0.1,1.1-0.6,2.3-1.7,2.5l-30.9,3.9c-0.4-0.4-0.7-0.8-1.1-1.2
				c-1.1-1.4-2.2-2.8-3.1-4.3l34.4-4.4C775.8,462.1,776.8,463,776.9,464.1z"/>
		</g>
		<g>
			<path class="st12" d="M785,474.7l0.2,1.6c0.1,1.1-0.8,2.1-1.9,2.3l-25.7,3.3c-0.4-0.2-0.7-0.3-1.1-0.5c-1.9-1-3.7-2.1-5.5-3.3
				c-0.5-0.4-1-0.8-1.5-1.1l33-4.2C783.6,472.5,784.8,473.6,785,474.7z"/>
		</g>
		<g>
			<path class="st12" d="M762.5,471.9l0.1,0.6c0.1,1.1,0.9,1.9,2,2.5c0.2,0.1,0.4,0.2,0.6,0.3c0.2,0.1,0.3,0.1,0.5,0.1l0.1,0.8
				l-14.7,1.9c-0.5-0.4-1-0.8-1.5-1.1c-1.8-1.4-3.5-3-5-4.7c-0.4-0.4-0.7-0.8-1.1-1.2l21.3-2.7l0,0.1c-0.6,0.3-1.1,0.7-1.5,1.2
				c-0.1,0.1-0.1,0.2-0.2,0.3C762.6,470.4,762.4,471.1,762.5,471.9z"/>
		</g>
		<g>
			<path class="st12" d="M772.8,479.3L772.8,479.3c-0.4,0.3-0.7,0.5-1,0.8c-0.2,0.1-0.3,0.3-0.5,0.5c-0.1,0.1-0.1,0.2-0.2,0.3
				c-0.4,0.6-0.7,1.4-0.6,2.1l0.1,0.6c0.1,0.9,0.6,1.6,1.4,2.1c-5.1-0.4-10-1.7-14.5-3.8c-0.4-0.2-0.7-0.3-1.1-0.5L772.8,479.3z"/>
		</g>
		<g>
			<path class="st12" d="M777.1,439.2l0.2,1.6c0.1,1.1-0.6,2.3-1.7,2.5l-41.5,5.3c-0.1-0.9-0.2-1.8-0.2-2.7c0-0.8-0.1-1.6,0-2.4
				c0.1-0.1,0.1-0.2,0.2-0.3c0.2-0.3,0.4-0.5,0.6-0.8l40.2-5.1C775.9,437.3,777,438.2,777.1,439.2z"/>
		</g>
		<g>
			<path class="st12" d="M770.8,405.8l0.2,1.6c0.1,1.1-0.6,2.3-1.7,2.5l-20,2.6c1.5-1.2,3.1-2.3,4.7-3.3c4-2.4,8.5-4.1,13.2-5
				l1.3-0.2C769.7,403.9,770.7,404.7,770.8,405.8z"/>
		</g>
		<g>
			<path class="st12" d="M778.6,451.3l0.2,1.6c0.1,1.1-0.8,2.1-1.9,2.3l-39.9,5.1c-0.8-1.9-1.4-3.8-1.9-5.8l41-5.2
				C777.3,449.2,778.5,450.3,778.6,451.3z"/>
		</g>
		<g>
			<path class="st12" d="M762.7,447l0.1,0.6c0.2,1.3,1.2,2.3,2.6,2.7c0.2,0.1,0.3,0.1,0.5,0.1l0.1,0.8l-30.7,3.9
				c-0.4-1.5-0.7-3.1-0.9-4.7c0-0.2,0-0.3-0.1-0.5c-0.1-0.9-0.2-1.8-0.2-2.7l30.8-3.9l0,0.1c-0.6,0.3-1.1,0.7-1.5,1.2
				c-0.4,0.5-0.7,1.1-0.8,1.7C762.6,446.6,762.6,446.8,762.7,447z"/>
		</g>
		<g>
			<path class="st12" d="M761.2,435.8l0.1,0.6c0.2,1.3,1.2,2.3,2.6,2.7c0.2,0.1,0.3,0.1,0.5,0.1l0.1,0.8l-30.5,3.9
				c0-2.5,0.3-5,0.8-7.5c0-0.2,0.1-0.5,0.1-0.7l28.6-3.6l0,0.1c-0.4,0.2-0.7,0.4-1,0.7c-0.2,0.1-0.3,0.3-0.5,0.5
				C761.4,434.1,761.1,435,761.2,435.8z"/>
		</g>
		<path class="st10" d="M852.6,437l0.2,1.6c0.1,1.1-0.9,2.4-2,2.5l-15.5,2c0-0.2,0.1-0.3,0.1-0.4c0.2-0.1,7-1.1,7.2-1.2
			c-0.2,0.1-7,0.9-7.2,1.2c-0.1,0-0.1,0.1-0.2,0.1c-0.1,0.1-0.2,0.2-0.3,0.3c-0.9,0.9-1.5,2-1.3,3.1l0.1,0.6
			c0.1,0.9,0.8,1.7,1.6,2.3l15.1-1.9c1.1-0.1,2.3,0.9,2.4,2l0.2,1.6c0.1,1.1-0.8,2.1-1.9,2.3l-159.5,20.4c-1.1,0.1-2.2-0.6-2.4-1.7
			l-0.2-1.6c-0.1-1.1,0.7-2.4,1.8-2.6l24.1-3.1c1.3-0.8,2-1.8,1.9-3.1l-0.1-0.6c-0.1-1.1-1-1.8-2.3-2.3l-23.1,3
			c-1.1,0.1-2.1-0.9-2.3-2l-0.2-1.6c-0.1-1.1,0.6-2.2,1.7-2.3l43.6-5.7c7.6,1.1,49.7,3.9,81.7-10.4l34.2-4.2
			C851.2,435,852.5,435.9,852.6,437z"/>
	</g>
	<g>
		<path class="st13" d="M779.2,209.5c0.2,1.3,0.3,2.6,0.4,3.9c0,0.3,0,0.6,0,0.9c0,0.5,0,1,0,1.5c0,0.2,0,0.4,0,0.6
			c0,0.7-0.1,1.4-0.1,2c0,0,0,0,0,0c-0.2,2.3-0.7,4.6-1.3,6.7c-0.3,0.9-0.6,1.8-0.9,2.7c-0.3,0.9-0.7,1.7-1.1,2.6
			c0,0.1-0.1,0.2-0.1,0.2c-1,2-2.1,3.8-3.4,5.6c-0.6,0.9-1.3,1.7-2,2.5c-1,1.1-2.1,2.2-3.2,3.2c0,0,0,0,0,0
			c-5,4.3-11.2,7.3-18.2,8.4c-7,1.1-13.8,0-19.8-2.7c0,0,0,0,0,0c-2-0.9-3.9-2-5.7-3.2c-0.4-0.2-0.7-0.5-1-0.7
			c-0.1-0.1-0.2-0.2-0.3-0.2c-0.3-0.2-0.5-0.4-0.8-0.6c-1.3-1-2.5-2.2-3.7-3.4c-0.1-0.1-0.1-0.1-0.2-0.2c-1.3-1.4-2.5-2.9-3.5-4.4
			c0,0,0-0.1-0.1-0.1c-2.8-4.2-4.8-9.2-5.6-14.6c-0.6-4-0.5-7.9,0.1-11.6c0.1-0.8,0.3-1.6,0.5-2.4c0,0,0,0,0,0
			c0.2-0.6,0.3-1.2,0.5-1.9c0.1-0.3,0.2-0.6,0.3-0.9c0-0.1,0.1-0.2,0.1-0.3c0.1-0.2,0.2-0.5,0.2-0.7c0.1-0.3,0.3-0.7,0.4-1
			c0.2-0.5,0.4-1,0.7-1.5c0.1-0.3,0.3-0.6,0.4-0.9c0.2-0.4,0.4-0.7,0.6-1.1c0.2-0.4,0.4-0.7,0.6-1c0.3-0.5,0.6-1,0.9-1.5
			c0,0,0,0,0,0c0.6-1,1.4-2,2.1-2.9c0,0,0.1-0.1,0.1-0.1c5.4-6.7,13.3-11.5,22.5-12.9c17.5-2.6,33.9,7.8,39.4,24.1c0,0,0,0.1,0,0.1
			c0.2,0.6,0.4,1.3,0.6,2c0.1,0.2,0.1,0.4,0.2,0.7c0.1,0.3,0.1,0.5,0.2,0.8c0,0.1,0.1,0.3,0.1,0.4c0,0.1,0,0.2,0.1,0.3
			c0,0.1,0,0.1,0,0.2c0,0.1,0,0.1,0,0.2c0,0.1,0,0.1,0,0.1c0,0.1,0,0.1,0,0.1C779.1,208.7,779.2,209.1,779.2,209.5z"/>
		<g>
			<g>
				<path class="st14" d="M752.7,188.5l0.2,1.4c0.1,1-0.5,2.1-1.4,2.2l-39.3,5.9c0.1-0.6,0.4-0.9,0.6-1.2c0.9-1.6,1.9-3.3,3.1-4.6
					l34.9-5.3C751.6,186.8,752.5,187.6,752.7,188.5z"/>
			</g>
			<g>
				<path class="st14" d="M759.9,197.6l0.2,1.4c0.1,0.9-0.7,1.9-1.6,2l-50.1,7.6c0.3-1.2,0.6-3,1-4.4c0.1-0.3,0.2-0.5,0.3-1.1
					l48-7.2C758.7,195.7,759.8,196.6,759.9,197.6z"/>
			</g>
			<g>
				<path class="st14" d="M740.3,195.6l0.1,0.5c0.2,1.1,1.1,1.9,2.3,2.3c0.1,0,0.3,0.1,0.4,0.1l0.1,0.7l-33.7,5.1
					c0.1-0.3,0.2-0.6,0.3-0.9c0.6-1.9,1.5-3.8,2.4-5.6c0.2-0.4,0.4-0.7,0.6-1l29.4-4.4l0,0.1c-0.5,0.3-0.9,0.6-1.2,1.1
					C740.4,194.1,740.2,194.8,740.3,195.6z"/>
			</g>
		</g>
		<g>
			<g>
				<path class="st14" d="M779.1,208.5l-41,6.2c-0.9,0.1-2.1-0.7-2.2-1.7l-0.2-1.4c-0.1-1,0.7-2,1.6-2.1l40.5-6.1
					c0.4,1.1,0.8,2.7,1.1,4C778.9,207.7,779,207.9,779.1,208.5z"/>
			</g>
			<g>
				<path class="st14" d="M779.6,213.1c0.1,0.6,0,0.7,0.1,1c0,1.4,0,3.1-0.1,4.3l-31,4.7c-1,0.1-1.8-0.5-2-1.5l-0.2-1.4
					c-0.1-1,0.5-2.1,1.4-2.3L779.6,213.1z"/>
			</g>
			<g>
				<path class="st14" d="M779.2,209.5c0.2,1.3,0.3,2.6,0.4,3.9c0,0.3,0,0.6,0,0.9l-29.4,4.4c0.5-0.3,0.9-0.6,1.3-1.1
					c0.5-0.7,0.7-1.5,0.6-2.3l-0.1-0.5c-0.1-1-0.8-1.8-1.7-2.2c-0.3-0.1-0.7-0.3-1-0.3l-0.1-0.5l29.7-4.5c0.1,0.3,0.1,0.6,0.2,0.9
					C779.1,208.7,779.2,209.1,779.2,209.5z"/>
			</g>
		</g>
		<g>
			<g>
				<path class="st14" d="M777,225.2c-0.3,0.9-0.6,1.8-0.9,2.8c-0.3,0.9-0.7,1.9-1.1,2.8l-58.5,8.8c-0.1-0.1-0.1-0.1-0.2-0.2
					c-1.3-1.4-2.5-2.9-3.5-4.4c0,0,0-0.1-0.1-0.1L777,225.2z"/>
			</g>
			<g>
				<path class="st14" d="M771.4,236.3c-0.6,0.9-1.3,1.8-2,2.6c-1,1.2-2,2.3-3.2,3.2l-38.1,5.7c0,0,0,0,0,0c-2-0.9-3.9-2-5.7-3.2
					c-0.4-0.2-0.7-0.5-1-0.7c-0.1-0.1-0.2-0.2-0.3-0.2l49.9-7.5C771,236.1,771.2,236.3,771.4,236.3z"/>
			</g>
			<g>
				<path class="st14" d="M753.4,235.8l0.1,0.5c0.1,0.9,0.8,1.7,1.8,2.1c0.3,0.1,0.6,0.3,1,0.3l0.1,0.7l-33.9,5.1
					c-0.4-0.2-0.7-0.5-1-0.7c-0.1-0.1-0.2-0.2-0.3-0.2l-1.1,0.2c0.1-0.2,0.2-0.5,0.3-0.8c0.1-0.4,0.1-0.8,0.1-1.2l-0.1-0.5
					c-0.1-0.9-0.6-1.6-1.4-2c-0.4-0.2-0.8-0.4-1.3-0.5l-0.1-0.5l37.9-5.7l0,0.1c-0.6,0.3-1.1,0.8-1.4,1.3
					C753.5,234.6,753.3,235.2,753.4,235.8z"/>
			</g>
		</g>
		<g>
			<path class="st15" d="M707,209.8c-0.1,1-0.2,2.1-0.3,3.1c0.8-0.2,1.6-0.5,2.4-0.7c0.1-1,0.2-2.1,0.4-3.1
				C708.7,209.3,707.9,209.6,707,209.8z M777.5,199.6c-0.8,0-1.7,0-2.6,0c0.5,0.9,0.9,1.9,1.3,2.9c0.8,0,1.7,0,2.5,0
				C778.3,201.5,777.9,200.5,777.5,199.6z"/>
			<path class="st15" d="M798.8,206.3c0.2,4.3-7.5,8.4-18.2,12c-0.8,0.3-1.6,0.5-2.4,0.8c-10.5,3.3-23.3,5.9-33.8,7.5
				c-8.3,1.3-16.4,2.1-23.8,2.5c-2.9,0.2-5.8,0.3-8.5,0.3c-0.9,0-1.7,0-2.5,0c-1.6,0-3.2,0-4.6-0.1c-11.9-0.5-18-2.6-18.5-6.3
				c-0.7-4.7,8.5-9.3,20.6-13c-0.1,1-0.2,2.1-0.3,3.1c-1.2,0.4-2.4,0.8-3.5,1.2c-11.4,4.1-14.1,7.2-14,8.3c0.2,1.1,3.7,3.3,15.8,3.9
				c1.1,0,2.3,0.1,3.4,0.1c0.8,0,1.6,0,2.5,0c9.6,0,21-1,33-2.8c12.9-1.9,24.9-4.6,34.5-7.7c0.8-0.3,1.6-0.5,2.3-0.8
				c0.4-0.1,0.8-0.3,1.2-0.4c11.4-4.1,14.1-7.2,14-8.3s-3.7-3.3-15.8-3.9c-0.5,0-1,0-1.5,0c-0.3-1-0.7-2-1.2-2.9
				c11.6,0.2,20.6,1.9,21.3,6.4C798.8,206,798.8,206.2,798.8,206.3z"/>
		</g>
		<path class="st14" d="M780.4,209.3c-0.4-2.4-0.9-4.7-1.7-6.8c-0.3-1-0.7-2-1.2-2.9c-6.7-14.7-22.5-23.9-39.3-21.4
			c-16.6,2.5-29,15.8-31.2,31.6c-0.1,1-0.2,2.1-0.3,3.1c-0.1,2.4,0,4.9,0.4,7.4c0.3,2.1,0.8,4.1,1.4,6c0.8,0,1.6,0,2.5,0
			c-0.7-2-1.3-4.2-1.6-6.4c-0.4-2.6-0.5-5.3-0.3-7.8c0.1-1,0.2-2.1,0.4-3.1c2.4-14.4,13.9-26.3,29.1-28.6c15.3-2.3,29.9,5.8,36.4,19
			c0.5,0.9,0.9,1.9,1.3,2.9c0.9,2.3,1.5,4.7,1.9,7.2c0.3,2.1,0.4,4.2,0.4,6.2c0.8-0.3,1.6-0.5,2.3-0.8
			C780.8,213.2,780.7,211.3,780.4,209.3z M748.9,249.2c-15.6,2.4-30.5-6.2-36.8-19.9c-0.9,0-1.7,0-2.5,0
			c6.4,15.2,22.6,24.7,39.6,22.2c17.2-2.6,29.9-16.7,31.4-33.3c-0.8,0.3-1.6,0.5-2.4,0.8C776.4,234.1,764.7,246.8,748.9,249.2z
			 M709.4,220c-0.4-2.6-0.5-5.3-0.3-7.8c-0.8,0.2-1.6,0.5-2.4,0.7c-0.1,2.4,0,4.9,0.4,7.4c0.3,2.1,0.8,4.1,1.4,6c0.8,0,1.6,0,2.5,0
			C710.3,224.4,709.8,222.2,709.4,220z"/>
	</g>
	<g>
		<circle class="st16" cx="281" cy="135.9" r="72"/>
		<g>
			<path class="st17" d="M303.6,92.7l-119.3,0c-1.7,0-3-1.3-3-3v-3.9c0-1.7,1.3-3,3-3l119.3,0c1.7,0,3,1.3,3,3v3.9
				C306.6,91.3,305.3,92.7,303.6,92.7z"/>
			<path class="st17" d="M314.9,112.8l-112.3,0c-1.7,0-3-1.3-3-3V106c0-1.7,1.3-3,3-3l112.3,0c1.7,0,3,1.3,3,3v3.9
				C317.9,111.5,316.6,112.8,314.9,112.8z"/>
			<path class="st17" d="M279.6,96.6v1.1c0,2.5,2,4.6,4,5.7v1.7h-75.9c2.9-1,3.9-3.7,3.9-6.4v-1.1c0-2.6-1-4.9-4-5.8V91h76v-0.1
				C281.6,92,279.6,94.1,279.6,96.6z"/>
		</g>
		<g>
			<path class="st17" d="M388.5,133.4l-119.3,0c-1.7,0-3-1.3-3-3v-3.9c0-1.7,1.3-3,3-3l119.3,0c1.7,0,3,1.3,3,3v3.9
				C391.5,132,390.2,133.4,388.5,133.4z"/>
			<path class="st17" d="M399.8,153.6l-112.3,0c-1.7,0-3-1.3-3-3v-3.9c0-1.7,1.3-3,3-3l112.3,0c1.7,0,3,1.3,3,3v3.9
				C402.8,152.2,401.5,153.6,399.8,153.6z"/>
			<path class="st17" d="M364.6,137.3v1.1c0,2.5,2,4.6,4,5.7v0.9h-76c2.9,0,4-3,4-5.6v-1.1c0-2.6-2-4.9-4-5.8V132h76v-0.3
				C366.6,132.7,364.6,134.8,364.6,137.3z"/>
		</g>
		<g>
			<path class="st17" d="M378.1,176.4l-177.4,0c-1.7,0-3-1.3-3-3v-3.9c0-1.7,1.3-3,3-3l177.4,0c1.7,0,3,1.3,3,3v3.9
				C381.1,175.1,379.7,176.4,378.1,176.4z"/>
			<path class="st17" d="M331.2,196.6l-112.3,0c-1.7,0-3-1.3-3-3v-3.9c0-1.7,1.3-3,3-3l112.3,0c1.7,0,3,1.3,3,3l0,3.9
				C334.2,195.3,332.9,196.6,331.2,196.6z"/>
			<path class="st17" d="M295.6,180.4v1.1c0,2.5,2,4.6,5,5.7v1.9H224c2.9-1,4.6-4,4.6-6.6v-1.1c0-2.6-2-4.9-5-5.8V175h77v-0.3
				C297.6,175.7,295.6,177.9,295.6,180.4z"/>
		</g>
	</g>
	<path class="st18" d="M779.6,633v2.1c-32,37.2-71.2,67.6-116,88.9H359.2c-9.8-4.7-19.5-9.7-28.7-15.2
		c-27.8-16.5-52.9-36.6-75.9-59.8v-16H779.6z"/>
	<path class="st19" d="M709.2,698c-14.5,9.7-29.7,18.4-45.5,26c-46.1,22-97.7,34.3-152.2,34.3c-54.5,0-106.1-12.3-152.2-34.3
		c-9.8-4.7-19.3-9.7-28.5-15.2c-5.8-3.4-11.5-7-17-10.8H709.2z"/>
	<g>
		
			<rect x="466.5" y="530.8" transform="matrix(9.929288e-08 -1 1 9.929288e-08 -28.7983 1051.8356)" class="st10" width="90" height="19.1"/>
		
			<rect x="429.2" y="530.8" transform="matrix(9.929285e-08 -1 1 9.929285e-08 -66.0815 1014.5494)" class="st10" width="90" height="19.1"/>
		
			<rect x="502.6" y="530.8" transform="matrix(9.929285e-08 -1 1 9.929285e-08 7.3138 1087.9506)" class="st10" width="90" height="19.1"/>
		<ellipse class="st10" cx="454.1" cy="560.6" rx="32.1" ry="30"/>
		<ellipse class="st10" cx="497.8" cy="567" rx="32.1" ry="30"/>
		<g>
			<path class="st10" d="M679.6,571.4V587H628c-5.8,7-15.2,12.2-25.8,12.2s-20-5.2-25.8-12.2h-7.5c-5,3-11,4.8-17.5,4.8
				c-6.4,0-12.5-1.8-17.5-4.8h-30.3v25H336.2c-6.4,0-11.6-5.7-11.6-12.1v-28.5c0-6.4,5.2-11.4,11.6-11.4h331.7
				C674.3,560,679.6,565,679.6,571.4z"/>
			<path class="st10" d="M633.9,568.7c0,3.6-0.3,7.1-2.3,10.3v0c-1,2.7-2.2,5.2-4,7.5c-5.8,7.4-15.1,12.2-25.6,12.2
				s-19.9-4.8-25.7-12.2c-0.9-1.2-1.7-2.4-2.5-3.7c-2.4-4.2-3.7-9-3.7-14.1c0-3.1,0.5-6.1,1.5-9c1.6-4.8,4.5-9.1,8.2-12.5
				c5.8-5.3,13.7-8.6,22.4-8.6c14.4,0,26.6,8.9,30.6,21c0.7,2.2,1,4.4,1.2,6.7C634.1,567.2,633.9,567.9,633.9,568.7z"/>
			<path class="st10" d="M583.5,561.3c0,8.4-3.7,16-9.6,21.4c-1.5,1.4-3.2,2.6-5,3.7c-5,3.1-11,4.8-17.5,4.8
				c-6.4,0-12.5-1.8-17.5-4.8c-8.8-5.3-14.6-14.6-14.6-25.2c0-0.5,0-1.1,0.1-1.6c0.9-15.8,14.9-28.4,32-28.4
				c12.3,0,22.9,6.4,28.3,15.9c2.1,3.8,3.5,8,3.7,12.5C583.5,560.2,583.5,560.8,583.5,561.3z"/>
			<path class="st10" d="M691.3,576.7c0,3.5-0.4,6.8-1.6,9.8c-0.4,1.1-0.9,2.1-1.5,3.2c0.4-0.9,0.9-1.8,1.2-2.7H634
				c-0.9-3-1.4-5.4-2.4-8v0c0-0.8,0.3-1.5,0.3-2.3c0-3.6,0.9-7.1,2.2-10.2c0.9-2.3,2.2-4.5,3.7-6.4c0.1-0.1,0.2-0.2,0.2-0.3
				c5.4-7,14-11.5,23.8-11.5C678.1,548.2,691.3,560.9,691.3,576.7z"/>
		</g>
		<ellipse class="st10" cx="602.2" cy="568.7" rx="32.1" ry="30"/>
		<ellipse class="st10" cx="545.4" cy="561.4" rx="32.1" ry="30"/>
		<ellipse class="st10" cx="397.3" cy="567.9" rx="32.1" ry="30"/>
	</g>
	<ellipse class="st12" cx="382.4" cy="582.6" rx="26.7" ry="28.5"/>
	<path class="st20" d="M644.5,601c0,0-8.9,8,0.9,15h-59.7v-15L644.5,601z"/>
	<path class="st20" d="M676.7,614.4l-653.2,0c-6.9,0-12.5,5.6-12.5,12.5l0,3.1c0,6.9,5.6,12.5,12.5,12.5l653.2,0
		c6.9,0,12.5-5.6,12.5-12.5l0-3.1C689.2,620,683.6,614.4,676.7,614.4z"/>
	<path class="st20" d="M55,601c0,0,9.3,8,0,15h54.7v-15L55,601z"/>
	<path class="st20" d="M591.6,616h-502v-15l500.2,0"/>
	<path class="st20" d="M835.1,576l-795.9,0c-6.9,0-12.5,5.6-12.5,12.5v0c0,6.9,5.6,12.5,12.5,12.5l795.9,0c6.9,0,12.5-5.6,12.5-12.5
		l0,0C847.6,581.6,842,576,835.1,576z"/>
	<path class="st20" d="M433.3,537.3l-416,0c-6.9,0-12.5,5.6-12.5,12.5l0,0c0,6.9,5.6,12.5,12.5,12.5l416,0c6.9,0,12.5-5.6,12.5-12.5
		v0C445.8,542.9,440.2,537.3,433.3,537.3z"/>
	<path class="st20" d="M52.2,562c0,0,6.5,8-0.2,15h209.6v-15L52.2,562z"/>
	<path class="st20" d="M414.7,561c0,0-5.9,8,0.8,15H244.6v-15L414.7,561z"/>
	<circle class="st18" cx="619.7" cy="694.2" r="23.2"/>
	<path class="st21" d="M543.4,701.5c0,6.9-5.6,12.5-12.5,12.5H339.8c-3.1-1.7-6.1-3.4-9.1-5.2c-5.8-3.4-11.5-7-17-10.8
		c-4.3-2.9-8.6-5.9-12.7-9h230c3.5,0,6.6,1.4,8.8,3.7C542,694.9,543.4,698.1,543.4,701.5z"/>
	<g>
		<circle class="st0" cx="173.9" cy="451.2" r="95.4"/>
		<g>
			<path class="st13" d="M269.2,477.2c-1.9,0.8-3.8,1.7-5.8,2.2c0,0.1,0,0.1-0.1,0.2c-0.4,1.2-0.8,2.3-1.2,3.4
				c-0.2,0.5-0.4,1-0.6,1.5c-0.9,2.3-1.9,4.6-2.9,6.7c-0.1,0.2-0.2,0.4-0.3,0.6l0,0.1c-2.5,5.1-5.5,9.9-8.9,14.5
				c-1.7,2.3-3.5,4.5-5.3,6.5c-2.6,2.9-5.4,5.7-8.3,8.3c-0.1,0-0.1,0.1-0.1,0.1c-13.4,11.6-29.8,19.2-47.4,21.8
				c-17.7,2.7-35.6,0.2-51.8-7l-0.2-0.1c0,0,0,0,0,0c-5.2-2-10.2-5.1-15-8.3c-1-0.6-1.9-1.3-2.7-1.9c-0.3-0.2-0.5-0.4-0.8-0.6
				c-0.7-0.5-1.4-1-2-1.6c-3.4-2.7-6.7-5.7-9.6-8.9l-0.1-0.1c-0.1-0.1-0.3-0.3-0.4-0.4c-3.3-3.6-6.4-7.4-9.2-11.6l-0.1-0.2
				c0,0,0,0,0,0c-0.7-1-1.3-2-1.9-3c-2.1-0.3-4.2-0.6-6.3-0.9c0.6,1,1.2,2,1.8,3.1c0.7,1.2,1.5,2.4,2.3,3.6c0.1,0.1,0.1,0.2,0.2,0.4
				c2.9,4.3,6.1,8.4,9.6,12.1c0.2,0.2,0.3,0.4,0.5,0.5c3.1,3.3,6.5,6.4,10.1,9.3c0.7,0.6,1.4,1.1,2.1,1.6c0.3,0.2,0.6,0.5,0.9,0.7
				c0.8,0.6,1.8,1.3,2.8,2c5,3.4,10.3,6,15.8,8.4l0.2-0.3c0,0,0,0,0,0c12.5,6,26,8.8,39.6,8.8c4.9,0,9.9-0.2,14.8-0.9
				c18.5-2.8,35.8-10.6,49.9-22.9c0.1,0,0.1,0,0.2-0.1c3.1-2.7,6-5.6,8.8-8.7c1.9-2.1,3.8-4.4,5.6-6.8c3.6-4.8,6.7-10,9.3-15.3
				c0.1-0.2,0.2-0.4,0.3-0.7c1.1-2.3,2.2-4.7,3.1-7.1c0.7-1.8,1.4-3.7,2-5.6c0.2-0.6,0.4-1.2,0.6-1.8
				C268.9,478.3,269,477.8,269.2,477.2C269.2,477.2,269.2,477.2,269.2,477.2C269.2,477.2,269.2,477.2,269.2,477.2z"/>
			<path class="st14" d="M272.8,453.2c0,0.5,0,1,0,1.5c-0.1,1.7-0.2,3.5-0.4,5.3l0,0.1l-0.1,0.4c-0.6,5.6-1.6,11.3-3.2,16.8
				c0,0,0,0,0,0c-1.9,0.8-3.8,1.7-5.8,2.2c0.2-0.6,0.4-1.3,0.6-2c1.7-5.6,2.9-11.5,3.4-17.3l0-0.1l0-0.3c0.2-1.8-0.3-3.5-0.2-5.3
				c0-0.5-0.6-0.9-0.6-1.4V453c0-1.3,0.7-2.6,0.6-3.9c0-0.8,0.3-1.5,0.3-2.3c-0.1-3.3-0.3-6.8-0.8-10.2c-0.2-1.2-0.3-2.2-0.5-3.2
				l0-0.1c0-0.1,0-0.1,0-0.1l0-0.3c0-0.1,0-0.1,0-0.1l-0.1-0.3c0-0.1,0-0.1,0-0.2l0-0.3c0-0.1,0-0.2-0.1-0.2l0-0.1l-0.2-0.8
				c-0.1-0.3-0.1-0.7-0.2-1l-0.1-0.4c-0.1-0.6-0.2-1.1-0.4-1.7l-0.5-1.8c0-0.1,0-0.1-0.1-0.2c-0.2-0.9-0.5-1.9-0.9-2.9h0
				c-0.2-1-0.4-1.3-0.6-2l-0.1-0.3c-6.9-20.6-20.9-38.3-39.5-49.8c-18.8-11.6-41.2-16.2-63.2-12.9c-23.1,3.5-44,15.4-58.7,33.5
				l-0.1,0.1c0,0.1-0.1,0.1-0.1,0.2c-2,2.5-3.9,5-5.5,7.6l-0.1,0.1c-0.8,1.3-1.7,2.6-2.4,3.9l0,0.1c-0.5,0.9-1,1.8-1.5,2.6
				c-0.6,1-1.1,2-1.5,2.9c-0.4,0.7-0.7,1.5-1.2,2.4c-0.6,1.3-1.2,2.7-1.7,4c-0.4,0.9-0.7,1.8-1,2.7l-0.2,0.5
				c-0.2,0.4-0.3,0.8-0.5,1.3l0,0.1c-0.1,0.2-0.2,0.5-0.2,0.7c-0.3,0.8-0.6,1.7-0.8,2.5c-0.4,1.5-0.9,3-1.2,4.4l0,0l-0.1,0.5
				c-0.6,2.2-1,4.2-1.3,6.1c-0.5,2.9-0.9,5.9-1.1,8.9c-0.1,1-0.1,2-0.2,3c-0.3,6.1,0,12.3,1,18.4c1.9,12.5,6.2,24.3,12.7,34.9
				c-2.1-0.3-4.2-0.6-6.3-0.9c-5.7-10.3-9.5-21.4-11.3-33.3c-0.9-5.7-1.2-11.3-1.1-17c0-1,0.1-2,0.1-3.1c0.2-4,0.7-7.9,1.4-11.9
				c0.4-2,0.8-4.1,1.4-6.4c0-0.1,0-0.2,0.1-0.2c0.4-1.6,0.9-3.3,1.4-5c0.3-0.9,0.6-1.7,0.8-2.6c0.1-0.2,0.2-0.6,0.3-0.8
				c0.1-0.5,0.3-0.9,0.5-1.3l0.2-0.5c0.4-0.9,0.7-1.9,1.1-2.8c0.5-1.4,1.2-2.8,1.8-4.2c0.4-0.9,0.8-1.8,1.2-2.5c0.5-1,1-2,1.6-3
				c0.5-0.9,1-1.9,1.6-2.9c0.8-1.4,1.7-2.8,2.6-4.2l0.1-0.1c1.7-2.7,3.7-5.4,5.8-8l0.1-0.1c0-0.1,0.1-0.1,0.2-0.2
				c15.5-19.1,37.4-31.6,61.8-35.3c23.1-3.5,46.7,1.3,66.5,13.6c19.6,12.1,34.4,30.7,41.6,52.5l0.1,0.2c0.6,1.7,1,3.6,1.4,4.6h0
				c0.1,1,0.2,0.6,0.2,0.9l0.3,1.8c0,0.1-0.1,0.1-0.1,0.2v0c0,0.5,0.4,1.1,0.5,1.6l0.2,0.3c0.1,0.4,0.2,0.9,0.3,1.3l0.2,0.7
				c0,0.2,0.1,0.4,0.1,0.6c0,0.2,0.1,0.3,0.1,0.5c0,0.2,0.1,0.3,0.1,0.4c0,0.1,0.1,0.3,0.1,0.5c0.2,1,0.4,2.1,0.6,3.3
				c0.5,3.6,0.9,7.2,1,10.7c0,0.8,0.1,1.6,0.1,2.4C272.9,450.3,272.9,451.7,272.8,453.2z"/>
		</g>
		<g>
			<path class="st15" d="M306.6,446.9c-1.2-10.1-14.4-18.9-37.4-22.9h0c0.1,1,0.2,0.6,0.2,0.9l0.4,1.8c0,0.1,0,0.1,0,0.2l0.1,0
				c9.3,2,16.9,4.6,22.6,7.6c6.9,3.7,10.8,8,11.3,12.7c1.1,9.4-11.5,20.3-34.4,30c-0.1,0-0.2,0-0.3,0.1c0,0,0,0,0,0
				c-1.9,0.8-3.8,1.5-5.8,2c0,0,0-0.2-0.1-0.2h0c-23,9-52.7,15.8-84.6,19.5c-30.8,3.5-60.3,3.9-84.3,0.9c-2.1-0.3-4.2-0.5-6.3-0.8
				c-0.9-0.1-1.9-0.3-2.8-0.4c-24.5-4.2-39.2-12.1-40.2-21.5c-1-8.9,10.1-19.1,30.6-28.3c0-1,0.1-2,0.1-3.1
				c-22.8,10-34.6,21.2-33.4,31.7c1.2,10.9,16.3,19.4,42.5,23.9c1.6,0.3,3.3,0.6,5,0.8c2.1,0.3,4.2,0.6,6.4,0.8
				c10.7,1.3,22.4,1.9,34.8,1.9c15.2,0,31.4-0.9,47.9-2.8c31.1-3.5,60.2-10,83.1-18.5c2.1-0.8,4.1-1.5,6-2.3c0.8-0.3,1.6-0.7,2.4-1
				c23.4-9.8,36.1-20.9,36.1-31.4C306.7,447.8,306.7,447.4,306.6,446.9z"/>
		</g>
		<g>
			<path class="st22" d="M125.2,412.5l5.7-0.2l1.1,28.6l-4.9,0.2l-0.8-19.2l-4,11l-4,0.2l-4.9-10.6l0.8,19.2l-4.9,0.2l-1.1-28.6
				l6-0.2l6.1,13.8L125.2,412.5z"/>
			<path class="st22" d="M141.6,423.6l9.3-0.4l0.2,4.6l-9.3,0.4l0.3,7.5l11.2-0.5l0.2,4.7l-16.4,0.7l-1.1-28.6l16-0.6l0.2,4.7
				l-10.8,0.4L141.6,423.6z"/>
			<path class="st22" d="M162.7,439.6l-1-24l-6.7,0.3l-0.2-4.6l18.7-0.8l0.2,4.6l-6.7,0.3l1,24L162.7,439.6z"/>
			<path class="st22" d="M183,421.9l9.3-0.4l0.2,4.6l-9.3,0.4l0.3,7.5l11.2-0.5l0.2,4.7l-16.4,0.7l-1.1-28.6l16-0.6l0.2,4.7
				l-10.8,0.4L183,421.9z"/>
			<path class="st22" d="M217.9,418.5l0.4,9.1c0.3,6.7-2.6,10.3-9.5,10.6c-6.9,0.3-10-3.1-10.3-9.8l-0.4-9.1
				c-0.3-6.7,2.6-10.3,9.5-10.6C214.6,408.4,217.7,411.8,217.9,418.5z M203.9,428.4c0.1,3.6,1.3,5.2,4.7,5.1
				c3.4-0.1,4.4-1.9,4.3-5.5l-0.4-9.5c-0.1-3.5-1.3-5.2-4.7-5.1c-3.4,0.1-4.4,1.9-4.2,5.5L203.9,428.4z"/>
			<path class="st22" d="M228.1,426.2l0.4,10.7l-5.1,0.2l-1.1-28.6l8.3-0.3c6.3-0.3,9.7,2.1,9.9,8l0,0.8c0.2,3.8-1.1,6.1-3.6,7.4
				l5.3,12l-5.8,0.2l-4.1-10.5L228.1,426.2z M227.9,421.5l3.4-0.1c3.1-0.1,4-1.2,3.9-4.2l0-0.4c-0.1-3.3-1.5-3.8-4.4-3.7l-3.2,0.1
				L227.9,421.5z"/>
			<path class="st22" d="M126.7,450.4l5.7-0.2l1.1,28.6l-4.9,0.2l-0.8-19.2l-4,11l-4,0.2l-4.9-10.6l0.8,19.2l-4.9,0.2l-1.1-28.6
				l6-0.2l6.1,13.8L126.7,450.4z"/>
			<path class="st22" d="M143.8,478.4l-5.2,0.2l-1.1-28.6l5.2-0.2L143.8,478.4z"/>
			<path class="st22" d="M152.3,456.8c0.1,2.3,1.3,3.2,4.6,3.9c4.7,1,9.1,2.7,9.3,8.7c0.2,5.5-2.5,8.7-9.4,8.9
				c-6.7,0.3-9.5-3.3-9.7-7.8l5.1-0.2c0.2,2.2,1.5,3.5,4.6,3.4c3-0.1,4.2-1.3,4-4c-0.1-2.3-1.4-3.3-5.7-4.2c-4.2-1-7.9-2.5-8.1-8.2
				c-0.2-5.2,2.8-8.1,8.5-8.3c5.2-0.2,9,1.7,9.7,7.6l-5.2,0.2c-0.4-2.4-1.8-3.3-4.2-3.2C153.3,453.5,152.3,454.6,152.3,456.8z"/>
			<path class="st22" d="M173.8,455.9c0.1,2.3,1.3,3.2,4.6,3.9c4.7,1,9.1,2.7,9.3,8.7c0.2,5.5-2.5,8.7-9.4,8.9
				c-6.7,0.3-9.5-3.3-9.7-7.8l5.1-0.2c0.2,2.2,1.5,3.5,4.6,3.4c3-0.1,4.2-1.3,4-4c-0.1-2.3-1.4-3.3-5.7-4.2c-4.2-1-7.9-2.5-8.1-8.2
				c-0.2-5.2,2.8-8.1,8.5-8.3c5.2-0.2,9,1.7,9.7,7.6l-5.2,0.2c-0.4-2.4-1.8-3.3-4.2-3.2C174.7,452.7,173.7,453.7,173.8,455.9z"/>
			<path class="st22" d="M196.9,476.2l-5.2,0.2l-1.1-28.6l5.2-0.2L196.9,476.2z"/>
			<path class="st22" d="M220.7,456.4l0.4,9.1c0.3,6.7-2.6,10.3-9.5,10.6c-6.9,0.3-10-3.1-10.3-9.8l-0.4-9.1
				c-0.3-6.7,2.6-10.3,9.5-10.6C217.3,446.3,220.4,449.7,220.7,456.4z M206.7,466.3c0.1,3.6,1.3,5.2,4.7,5.1
				c3.4-0.1,4.4-1.9,4.3-5.5l-0.4-9.5c-0.1-3.5-1.3-5.2-4.7-5.1s-4.4,1.9-4.2,5.5L206.7,466.3z"/>
			<path class="st22" d="M230.3,446.3l9.9,19l-0.8-19.3l4.8-0.2l1.1,28.6l-5.2,0.2l-9.9-18.6l0.8,18.9l-4.9,0.2l-1.1-28.6
				L230.3,446.3z"/>
		</g>
	</g>
	<g>
		<path class="st14" d="M107.6,597v1c-0.1,9.2-4.6,14.2-14.5,14.2c-10.5,0-14.8-5.5-14.8-15.6v-13.6c0-10.1,4.3-15.7,14.8-15.7
			c9.7,0,14.5,5,14.5,14.2v0.6h-8.4v-0.8c0-4.5-2.1-6.6-6-6.6c-5.2,0-6.5,3-6.5,8.6v12.9c0,5.6,1.2,8.5,6.5,8.5c4.2,0,6-2,6.2-6.7
			V597H107.6z"/>
		<path class="st14" d="M142.5,582.8v13.9c0,10.1-4.5,15.4-15.1,15.4c-10.5,0-15-5.3-15-15.4v-13.9c0-10.1,4.5-15.4,15-15.4
			C138,567.4,142.5,572.7,142.5,582.8z M120.6,597c0,5.4,1.7,8,6.8,8c5.2,0,6.8-2.6,6.8-8v-14.5c0-5.4-1.7-8-6.8-8
			c-5.1,0-6.8,2.7-6.8,8V597z"/>
		<path class="st14" d="M175.7,568.1h8.6v43.4h-7.5v-29.2l-6.8,16.4h-6.1l-6.7-16.4v29.1h-7.5v-43.4h9.2l8.4,21.3L175.7,568.1z"/>
		<path class="st14" d="M191.8,568.1h13c9.5,0,14.3,3.7,14.3,12.8v2c0,8.9-4.3,12.8-14,12.8h-5.5v15.9h-7.8V568.1z M199.6,588.4h5.4
			c4.8,0,6.2-1.3,6.2-5.8v-1.1c0-5-2-6.2-6.5-6.2h-5.1V588.4z"/>
		<path class="st14" d="M248.1,611.5h-23.5v-43.4h7.9v36.3h15.6V611.5z"/>
		<path class="st14" d="M261.6,586h14.2v7h-14.2v11.4h17v7.2h-25v-43.4h24.4v7.2h-16.5V586z"/>
		<path class="st14" d="M292.7,611.5V575h-10.3v-7h28.4v7h-10.3v36.5H292.7z"/>
		<path class="st14" d="M324.6,586h14.2v7h-14.2v11.4h17v7.2h-25v-43.4h24.4v7.2h-16.5V586z"/>
		<path class="st14" d="M348.2,568.1h12.7c11.2,0,15.7,5.3,15.7,16v11.6c0,10.5-4.6,15.8-15.7,15.8h-12.7V568.1z M355.9,575v29.5h5
			c5.6,0,7.4-2.6,7.4-8.3v-12.7c0-6-1.8-8.5-7.4-8.5H355.9z"/>
		<path class="st14" d="M391,611.5h-7.5v-7.9h7.5V611.5z M390.8,568.1l-0.2,29.8h-6.9l-0.2-29.8H390.8z"/>
	</g>
	<g>
		<g id="outline_1_" class="st23">
			<g>
				<path class="st22" d="M487.4,417.5l47.1,0v67.7l-47.1,0L487.4,417.5 M485.4,415.5l0,71.7l51.1,0v-71.7L485.4,415.5L485.4,415.5z
					"/>
			</g>
			<g>
				<path class="st22" d="M487.4,275.3l47.1,0v42.2l-47.1,0V275.3 M485.4,273.3v46.2l51.1,0v-46.2L485.4,273.3L485.4,273.3z"/>
			</g>
			<g>
				<path class="st22" d="M487.4,231.5l47.1,0l0,39.8l-47.1,0V231.5 M485.4,229.5l0,43.8l51.1,0l0-43.8L485.4,229.5L485.4,229.5z"/>
			</g>
			<g>
				<path class="st22" d="M498.4,202l25,0l10.1,25.5l-45.3,0L498.4,202 M497.1,200l-11.7,29.5l51.1,0L524.8,200L497.1,200L497.1,200
					z"/>
			</g>
			<g>
				<path class="st22" d="M499.1,174.7l23.3,0V198l-23.3,0L499.1,174.7 M497.1,172.7l0,27.3l27.3,0v-27.3L497.1,172.7L497.1,172.7z"
					/>
			</g>
			<g>
				<path class="st22" d="M499.1,161l23.3,0v9.7l-23.3,0V161 M497.1,159v13.7l27.3,0V159L497.1,159L497.1,159z"/>
			</g>
			<g>
				<path class="st22" d="M504.7,115.1l12.1,0l5.3,41.9l-22.8,0L504.7,115.1 M502.9,113.1l-5.9,45.9l27.3,0l-5.9-45.9L502.9,113.1
					L502.9,113.1z"/>
			</g>
			<g>
				<path class="st22" d="M504.9,99.2l11.9,0v11.9l-11.9,0V99.2 M502.9,97.2v15.9l15.9,0V97.2L502.9,97.2L502.9,97.2z"/>
			</g>
			<g>
				<path class="st22" d="M510.9,84.2l4.9,11l-9.8,0L510.9,84.2 M511.8,81.3H510l-7,15.9l15.9,0L511.8,81.3L511.8,81.3z"/>
			</g>
			<g>
				<g>
					<path class="st22" d="M487.4,321.5l47.1,0l0,92l-47.1,0L487.4,321.5 M485.4,319.5l0,96l51.1,0l0-96L485.4,319.5L485.4,319.5z"
						/>
				</g>
				<g>
					<path class="st22" d="M498,345.1l27,0v16.7l-27,0V345.1 M496,343.1v20.7l31,0v-20.7L496,343.1L496,343.1z"/>
				</g>
				<g>
					<path class="st22" d="M504,350.8l15.1,0v5.4l-15.1,0V350.8 M502,348.8v9.4l19.1,0v-9.4L502,348.8L502,348.8z"/>
				</g>
			</g>
			<g>
				<path class="st22" d="M504,499.1l15.1,0v15.1l-15.1,0V499.1 M502,497.1v19.1l19.1,0v-19.1L502,497.1L502,497.1z"/>
			</g>
			<g>
				<path class="st22" d="M466.7,499.1l15.1,0v15.1l-15.1,0L466.7,499.1 M464.7,497.1l0,19.1l19.1,0v-19.1L464.7,497.1L464.7,497.1z
					"/>
			</g>
			<g>
				<path class="st22" d="M504,442.9l15.1,0v52.2l-15.1,0L504,442.9 M502,440.9l0,56.2l19.1,0v-56.2L502,440.9L502,440.9z"/>
			</g>
			<g>
				<path class="st22" d="M483.4,456v39.1l-21.7,0L483.4,456 M485.4,448.3l-27.1,48.8l27.1,0L485.4,448.3L485.4,448.3z"/>
			</g>
			<g>
				<path class="st22" d="M540.1,499.1l15.1,0v15.1l-15.1,0V499.1 M538.1,497.1v19.1l19.1,0v-19.1L538.1,497.1L538.1,497.1z"/>
			</g>
			<g>
				<path class="st22" d="M538.5,456l21.7,39.1l-21.7,0V456 M536.5,448.3v48.8l27.1,0L536.5,448.3L536.5,448.3z"/>
			</g>
			<g>
				<path class="st22" d="M496.5,288.5l8.7,0v22.4l-8.7,0L496.5,288.5 M494.5,286.5l0,26.4l12.7,0v-26.4L494.5,286.5L494.5,286.5z"
					/>
			</g>
			<g>
				<path class="st22" d="M517.6,288.5l8.7,0v22.4l-8.7,0V288.5 M515.6,286.5v26.4l12.7,0v-26.4L515.6,286.5L515.6,286.5z"/>
			</g>
		</g>
		<g id="filled_1_">
			<g id="_x34__1_">
				
					<rect x="503.9" y="152.2" transform="matrix(4.671010e-07 -1 1 4.671010e-07 344.8904 676.5853)" class="st24" width="13.7" height="27.3"/>
				<polygon class="st25" points="518.5,113.1 524.4,159 497.1,159 502.9,113.1 				"/>
				
					<rect x="502.9" y="97.2" transform="matrix(4.671008e-07 -1 1 4.671008e-07 405.7139 616.0388)" class="st26" width="15.9" height="15.9"/>
				<polygon class="st24" points="511.8,81.3 518.8,97.2 502.9,97.2 510,81.3 				"/>
			</g>
			<g id="_x33__1_">
				<polygon class="st27" points="524.8,200 536.5,229.5 485.4,229.5 497.1,200 				"/>
				
					<rect x="497.1" y="172.7" transform="matrix(4.671008e-07 -1 1 4.671008e-07 324.3935 697.0822)" class="st25" width="27.3" height="27.3"/>
				
					<rect x="489" y="225.8" transform="matrix(4.671008e-07 -1 1 4.671008e-07 259.5415 762.3245)" class="st25" width="43.8" height="51.1"/>
			</g>
			<g id="_x32__1_">
				
					<rect x="462.9" y="341.9" transform="matrix(4.671008e-07 -1 1 4.671008e-07 143.4585 878.4074)" class="st25" width="96" height="51.1"/>
				
					<rect x="501.2" y="337.9" transform="matrix(4.671008e-07 -1 1 4.671008e-07 158.1246 865.0102)" class="st28" width="20.7" height="31"/>
				
					<rect x="506.9" y="343.9" transform="matrix(4.671008e-07 -1 1 4.671008e-07 158.1246 865.0102)" class="st25" width="9.4" height="19.1"/>
				
					<rect x="487.8" y="270.8" transform="matrix(4.671008e-07 -1 1 4.671008e-07 214.5559 807.3101)" class="st28" width="46.2" height="51.1"/>
				
					<rect x="487.7" y="293.3" transform="matrix(4.671008e-07 -1 1 4.671008e-07 201.217 800.5426)" class="st29" width="26.4" height="12.7"/>
				
					<rect x="508.8" y="293.3" transform="matrix(4.671008e-07 -1 1 4.671008e-07 222.2993 821.6252)" class="st29" width="26.4" height="12.7"/>
			</g>
			<g id="_x31__1_">
				
					<rect x="475.1" y="425.7" transform="matrix(4.671008e-07 -1 1 4.671008e-07 59.6233 962.2426)" class="st27" width="71.7" height="51.1"/>
				
					<rect x="502" y="497.1" transform="matrix(4.671009e-07 -1 1 4.671009e-07 4.837 1018.2)" class="st24" width="19.1" height="19.1"/>
				
					<rect x="464.7" y="497.1" transform="matrix(4.671008e-07 -1 1 4.671008e-07 -32.4474 980.9149)" class="st24" width="19.1" height="19.1"/>
				
					<rect x="483.4" y="459.4" transform="matrix(4.671008e-07 -1 1 4.671008e-07 42.5122 980.5248)" class="st30" width="56.2" height="19.1"/>
				<polygon class="st30" points="485.4,448.3 485.4,497.1 458.2,497.1 				"/>
				
					<rect x="538.1" y="497.1" transform="matrix(4.671007e-07 -1 1 4.671007e-07 40.9501 1054.3137)" class="st24" width="19.1" height="19.1"/>
				<polygon class="st30" points="536.5,448.3 536.5,497.1 563.6,497.1 				"/>
			</g>
		</g>
	</g>
</g>
</svg>
