<?xml version="1.0" encoding="utf-8"?>
<!-- Generator: Adobe Illustrator 19.2.1, SVG Export Plug-In . SVG Version: 6.00 Build 0)  -->
<svg version="1.1" id="Layer_1" xmlns="http://www.w3.org/2000/svg" xmlns:xlink="http://www.w3.org/1999/xlink" x="0px" y="0px"
	 viewBox="0 0 147.5 147.5" style="enable-background:new 0 0 147.5 147.5;" xml:space="preserve">
<style type="text/css">
	.st0{fill:#302744;stroke:#15F2DB;stroke-miterlimit:10;stroke-dasharray:7,5;}
	.st1{fill:#3D3358;}
	.st2{fill:#49406B;}
	.st3{fill:#47B549;}
	.st4{fill:#1A5C2E;}
	.st5{fill:#489644;}
	.st6{fill:#FFFFFF;}
	.st7{fill:#13783C;}
	.st8{fill:#0A6433;}
	.st9{fill:#249A50;}
</style>
<g>
	<circle class="st0" cx="73.7" cy="73.7" r="73"/>
	<circle class="st1" cx="73.7" cy="75.2" r="57.6"/>
	<circle class="st2" cx="72" cy="74.7" r="40.3"/>
	<g>
		<path class="st3" d="M59.9,65.8c-1.1-1.6-2.3-3.3-3-5.1c-1.1-2.6-1.4-5.5-1.2-8.3c0.1-2,0.2-4.5-1.6-5.4c-0.9-0.4-2.2-0.3-2.6-1.2
			c-0.2-0.4-0.1-0.8,0-1.2c0.2-1,0.9-2.3,1.9-2c0.5,0.2,0.7,0.7,1.1,1.1c1.5,1.8,4.3,0.8,6.7,1.1c3.1,0.4,5.2,3.1,7.2,5.5
			C80.6,65,99.4,73.6,118.5,75.4c1.5,0.2,3.4,0.5,4,1.9c0.5,1.1,0,2.5-0.9,3.3c-0.9,0.8-2,1.3-3.1,1.8c-2,0.9-3.9,2-6,2.9
			c-4.6,1.9-9.8,2.4-14.8,1.9c-5-0.5-9.9-1.8-14.7-3.4c-3.5-1.1-7-2.4-10.1-4.4C67.6,76.2,63.6,71,59.9,65.8z"/>
		<path class="st4" d="M121.3,77.9c-0.1-0.2-0.3-0.5-0.9-0.7c-0.6-0.2-1.3-0.3-2-0.4c-6.8-0.7-13.6-2.2-20-4.4
			C85.9,67.9,75,60.6,67.2,51.2l-0.3-0.3c-1.5-1.8-3.1-3.8-5.1-4.4c-0.3-0.1-0.7-0.2-1-0.2c-0.6-0.1-1.3,0-2,0c0,0-0.1,0-0.1,0
			c0,0.1,0,0.3,0,0.5c-0.3,1-0.5,1.9-0.8,2.9c-0.1,0.5-0.4,0.7-0.8,0.8c0,0.8,0,1.6-0.1,2.2c-0.2,2.9,0.2,5.4,1.1,7.7
			c0.7,1.7,1.8,3.2,2.9,4.8c3.5,5,7.5,10.1,12.7,13.3c2,1.2,4.4,2.3,7.5,3.4c0.8,0.3,1.5,0.5,2.3,0.8c3.9,1.3,9.1,2.8,14.4,3.3
			c5.3,0.5,10.1-0.1,14.2-1.8c1.2-0.5,2.3-1,3.4-1.6c0.8-0.4,1.7-0.8,2.5-1.2l0.4-0.2c0.9-0.4,1.8-0.8,2.4-1.4
			C121.3,79.1,121.5,78.3,121.3,77.9z"/>
		<ellipse transform="matrix(0.3347 -0.9423 0.9423 0.3347 -6.2259 151.2622)" class="st5" cx="104" cy="80" rx="4.8" ry="4.8"/>
		
			<ellipse transform="matrix(0.3347 -0.9423 0.9423 0.3347 -12.0268 138.8446)" class="st5" cx="92.3" cy="77.9" rx="6.1" ry="6.1"/>
		
			<ellipse transform="matrix(0.3347 -0.9423 0.9423 0.3347 -15.4618 124.2243)" class="st5" cx="80.2" cy="73.1" rx="6.1" ry="6.1"/>
		<ellipse transform="matrix(0.3347 -0.9423 0.9423 0.3347 -14.41 108.4458)" class="st5" cx="69.6" cy="64.4" rx="6.1" ry="6.1"/>
		
			<ellipse transform="matrix(0.9955 -9.523355e-02 9.523355e-02 0.9955 -6.9151 9.4927)" class="st6" cx="96" cy="77.2" rx="0.8" ry="1.4"/>
		
			<ellipse transform="matrix(0.9955 -9.522686e-02 9.522686e-02 0.9955 -7.0246 10.528)" class="st6" cx="106.8" cy="78.9" rx="0.7" ry="1.3"/>
		<path class="st6" d="M84.9,72.9c-0.1,0.8-0.6,1.3-1.1,1.2c-0.5-0.1-0.8-0.8-0.7-1.6c0.1-0.8,0.6-1.3,1.1-1.2
			C84.6,71.4,85,72.1,84.9,72.9z"/>
		<path class="st6" d="M74.1,63.7c-0.1,0.6-0.5,1.1-0.9,1c-0.4-0.1-0.7-0.7-0.6-1.3c0.1-0.6,0.5-1.1,0.9-1
			C73.9,62.5,74.2,63,74.1,63.7z"/>
		<ellipse transform="matrix(0.3347 -0.9423 0.9423 0.3347 -11.0722 94.1292)" class="st5" cx="61.1" cy="54.9" rx="6.1" ry="6.1"/>
		<path class="st6" d="M65.6,54.2c-0.1,0.6-0.5,1.1-0.9,1c-0.4-0.1-0.7-0.7-0.6-1.3c0.1-0.6,0.5-1.1,0.9-1
			C65.4,52.9,65.7,53.5,65.6,54.2z"/>
		<path class="st7" d="M54.3,60.9c-0.6,2.7-0.5,5.6-0.4,8.4c0.2,5,0.4,10.1,1.7,14.9c2.3,8.6,7.9,16,14.7,21.8
			c4.7,4.1,10,7.4,15.4,10.5c0.2,0.1,0.4,0.2,0.6,0.2c-0.5-1.8-2-3.1-3.2-4.4c-5.2-5.5-8.3-12.7-10.2-20c-2-7.3-2.9-14.9-4.5-22.3
			c-0.5-2.2-1.1-4.5-1.6-6.7c-1.5-6.1-3.2-12.5-7.6-17c-0.3-0.3-0.8-0.6-1.2-0.8c0.4,1.6,0.3,3.4-0.1,5.1
			C56.9,54.1,55,57.3,54.3,60.9z"/>
		<path class="st8" d="M70.2,105.9c-6.7-5.8-12.4-13.2-14.7-21.8c-1.3-4.8-1.5-9.9-1.7-14.9c-0.1-2.8-0.2-5.6,0.4-8.4
			c0.8-3.6,2.7-6.8,3.4-10.4c0.4-1.7,0.5-3.4,0.1-5.1c-0.4-0.1-0.7-0.1-1.1,0.1c-0.5,0.3-0.5,1-0.6,1.6c-0.5,2.8-3.2,4.5-5,6.7
			c-1.8,2.3-2.6,5.2-3.4,8.1c-0.8,2.8-1.5,5.6-1.7,8.5c-0.1,1.7,0,3.4,0.2,5c1,8.3,4.1,16.3,9,23c6.1,8.3,15,14.6,25,16.7
			c1.8,0.4,3.7,0.6,5.3,1.3C80.2,113.3,74.9,110,70.2,105.9z"/>
		<path class="st8" d="M55.1,47.7c0-0.4,0-0.9,0.1-1.3c0.1-0.4,0.2-0.9,0.4-1.3c0.4-0.8,0.8-1.6,1.5-2.2c0.6-0.6,1.4-1.2,2.2-1.6
			c0.4-0.2,0.8-0.3,1.3-0.5c0.4-0.1,0.9-0.2,1.3-0.3c1.8-0.2,3.6,0.1,5.3,0.7c0.8,0.3,1.7,0.7,2.3,1.5c0.3,0.4,0.5,0.9,0.5,1.4
			c0,0.5-0.2,1.1-0.7,1.5l0,0l0,0c-1.3,0.7-3,0.4-4-0.7c-1-1.1-0.8-2.9,0.3-3.9c0.6-0.4,1.3-0.6,1.9-0.6c0.7,0,1.3,0.1,2,0.1
			c1.3,0.1,2.6,0.3,3.9,0.9c1.2,0.6,2.3,1.6,2.7,2.9c0.1,0.3,0.2,0.7,0.2,1c0,0.3,0,0.7-0.2,1.1c-0.1,0.2-0.3,0.4-0.5,0.4
			c-0.2,0.1-0.4,0.1-0.5,0.1c-0.4,0-0.7,0-1.1-0.1c-0.7-0.2-1.4-0.6-1.8-1.2c-0.4-0.7-0.5-1.5-0.3-2.2c0.1-0.4,0.4-0.7,0.6-1
			c0.3-0.3,0.7-0.5,1-0.6c0.7-0.2,1.5-0.2,2.1-0.1c1.3,0.3,2.7,0.6,3.8,1.4c0.6,0.4,1,1,1.4,1.7c0.3,0.6,0.5,1.3,0.7,1.9
			c0.4,1.2,0.9,2.4,1.5,3.5c0.6,1.1,1.4,2.1,2.3,2.9c0.9,0.8,2,1.4,3.3,1.7c1.2,0.3,2.5,0.3,3.8,0.4c1.3,0.1,2.7,0.3,3.9,0.8
			c1.2,0.5,2.3,1.5,2.8,2.7l-0.1,0c-0.5-1.2-1.6-2-2.8-2.4c-1.2-0.4-2.5-0.6-3.8-0.6c-1.3,0-2.6,0-4-0.3C87.3,55.6,86,54.9,85,54
			c-1.1-0.9-1.9-2-2.5-3.2c-0.7-1.2-1.2-2.4-1.6-3.7c-0.4-1.3-0.8-2.4-1.7-3.1c-0.9-0.7-2.2-1.1-3.4-1.3c-1.2-0.2-2.5-0.1-2.9,1
			c-0.2,0.5-0.1,1.1,0.1,1.6c0.3,0.5,0.8,0.8,1.3,1c0.3,0.1,0.6,0.1,0.9,0.1c0.3,0,0.5-0.1,0.6-0.2c0.1-0.2,0.1-0.5,0.1-0.8
			c0-0.3-0.1-0.6-0.1-0.9c-0.4-1.2-1.3-2.2-2.5-2.7c-1.2-0.6-2.4-0.8-3.7-0.9c-0.6,0-1.3-0.1-1.9-0.1c-0.6,0-1.3,0.2-1.7,0.6
			c-0.9,0.8-0.9,2.4-0.1,3.2c0.8,0.8,2.2,1,3.2,0.4l-0.1,0c0.2-0.2,0.4-0.5,0.3-0.9c0-0.4-0.1-0.7-0.4-1c-0.5-0.6-1.2-0.9-2-1.3
			c-1.6-0.6-3.3-1-4.9-0.8c-0.4,0-0.8,0.1-1.2,0.2c-0.4,0.1-0.8,0.2-1.2,0.4c-0.8,0.3-1.5,0.8-2.1,1.4c-0.6,0.6-1.1,1.3-1.5,2
			C55.5,46,55.3,46.8,55.1,47.7L55.1,47.7z"/>
		<path class="st9" d="M56,47.3c0,0-0.2,0-0.6,0c-0.4,0-1,0.1-1.7,0.4c-0.7,0.3-1.5,0.7-2.1,1.5c-0.3,0.4-0.6,0.8-0.8,1.3
			c0,0.1-0.1,0.3-0.1,0.4c0,0.1-0.1,0.3-0.1,0.4c0,0.3-0.1,0.6-0.1,0.9c0,1.2,0.6,2.5,1.5,3.4c0.5,0.5,1.1,0.9,1.8,1.1
			c0.7,0.2,1.5,0.3,2.2,0.1c0.8-0.1,1.5-0.4,2.2-0.9c0.3-0.2,0.6-0.5,0.9-0.9c0.2-0.3,0.5-0.7,0.3-1c-0.2-0.3-0.6-0.5-1-0.6
			c-0.4-0.2-0.8-0.3-1.2-0.4c-0.8-0.2-1.7-0.1-2.4,0.2c-1.5,0.6-2.4,2.2-2.9,3.7c-0.5,1.5-0.7,3.2-1.2,4.8c-0.5,1.6-1.3,3.2-2.7,4.1
			c-0.7,0.5-1.5,0.7-2.2,0.7c-0.3,0-0.7,0.1-0.9,0.2c-0.4,0.1-0.5,0.2-0.8,0.3c-1,0.6-1.6,1.6-2,2.5c-0.4,0.9-0.5,1.9-0.9,2.6
			c-0.4,0.7-1.1,0.9-1.5,0.9c-0.4,0-0.6-0.2-0.6-0.2l0-0.1c0,0,0.2,0.1,0.6,0.1c0.4,0,0.9-0.3,1.2-0.9c0.3-0.6,0.4-1.5,0.7-2.6
			c0.3-1,1-2.2,2.1-3c0.3-0.2,0.7-0.4,1-0.5c0.4-0.1,0.7-0.2,1.1-0.2c0.7-0.1,1.3-0.3,1.8-0.6c1.1-0.7,1.8-2.1,2.3-3.6
			c0.5-1.5,0.7-3.2,1.4-4.8c0.3-0.8,0.7-1.6,1.3-2.3c0.6-0.7,1.3-1.3,2.2-1.6c0.9-0.3,1.8-0.3,2.7-0.1c0.4,0.1,0.8,0.2,1.2,0.4
			c0.4,0.2,0.8,0.3,1.1,0.8c0.1,0.2,0.1,0.5,0.1,0.7c-0.1,0.2-0.2,0.4-0.3,0.6c-0.2,0.4-0.6,0.7-0.9,0.9c-0.7,0.5-1.4,0.9-2.3,1.1
			c-0.8,0.2-1.7,0.2-2.5,0c-0.8-0.2-1.6-0.6-2.2-1.1c-1.2-1.1-1.7-2.6-1.7-4c0-1.4,0.6-2.6,1.4-3.4c0.8-0.8,1.7-1.3,2.4-1.5
			c0.8-0.2,1.4-0.2,1.8-0.2C55.8,47.2,56,47.2,56,47.3L56,47.3z"/>
	</g>
</g>
</svg>
