<?xml version="1.0" encoding="utf-8"?>
<!-- Generator: Adobe Illustrator 19.2.1, SVG Export Plug-In . SVG Version: 6.00 Build 0)  -->
<svg version="1.1" id="Layer_1" xmlns="http://www.w3.org/2000/svg" xmlns:xlink="http://www.w3.org/1999/xlink" x="0px" y="0px"
	 viewBox="0 0 147.5 147.5" style="enable-background:new 0 0 147.5 147.5;" xml:space="preserve">
<style type="text/css">
	.st0{fill:#302744;stroke:#15F2DB;stroke-miterlimit:10;stroke-dasharray:7,5;}
	.st1{fill:#3D3358;}
	.st2{fill:#49406B;}
	.st3{fill:#8A2E1C;}
	.st4{fill:#D0662D;}
	.st5{fill:#E37F51;}
</style>
<g>
	<circle class="st0" cx="73.7" cy="73.7" r="73"/>
	<circle class="st1" cx="73.7" cy="73.7" r="57.6"/>
	<circle class="st2" cx="72" cy="73.3" r="40.3"/>
	<g>
		<path class="st3" d="M102.6,85.5c-0.8,2.4-1.6,4.9-2.9,7c-1.4,2.1-3.3,3.9-5.7,4.4c-1.8,0.4-3.9,0.2-5.1,1.7
			c-0.2-0.3-0.4-0.7-0.6-1c-1,0.7-2.5,0.7-3.6-0.1c-1,0.2-1.9,0.4-2.9,0.5c-0.3,0.1-0.6,0.1-0.8-0.1c-0.2-0.2-0.2-0.7-0.4-1
			c-0.4-0.7-1.6,0-2.3-0.5c-0.3-0.2-0.5-0.5-0.7-0.7c-1.1-1.1-2.9,0.2-4.4-0.3c-0.1-0.5-0.2-0.9-0.3-1.4c-0.9,0.3-2.1,0.6-2.7-0.2
			c-0.2-0.2-0.3-0.5-0.5-0.6c-0.2-0.1-0.5,0-0.7,0c-0.8,0.1-1.5-0.1-2.3-0.4c-6.7-2.2-13.4-4.5-20.1-6.8c0.5-0.6,1.3-0.9,2-1.1
			c11.1-3.5,23.3-1.6,34.7-4"/>
		<path class="st3" d="M95.1,52.9c0.2-1.1-0.3-2.3-1-3.2c-1.2-1.6-3-2.6-4.9-3.1c-1.9-0.5-3.9-0.4-5.9-0.1c0.5,0.3,0.8,0.7,1.1,1.2
			c-1.3,0.1-2.6,0.3-3.9,0.4c0.3,0.1,0.6,0.4,0.6,0.8c-1.8,0.3-3.5,0.7-5.3,1.1c0.1,0.3,0.2,0.5,0.5,0.7c-1.2,0.3-2.4,0.5-3.6,0.8
			c0.2,0.3,0.3,0.6,0.3,1c-1,0.3-2,0.6-3,1c-0.1,0-0.3,0.1-0.3,0.2c-0.1,0.2,0.1,0.4,0.2,0.6c0.1,0.4-0.3,0.8-0.7,0.9
			c-0.4,0.2-0.9,0.3-1.1,0.7c-0.1,0.2,0,0.4-0.1,0.6c-0.2,0.7-1.1,0.7-1.7,1c-0.7,0.4-1,1.1-1.4,1.8c-0.5,0.8-1.2,1.4-1.9,2
			c-1.5,1.3-3,2.7-4.7,3.9c-1.3,0.9-2.8,1.9-3.4,3.4c10.2-1.1,19.6-5.6,29.2-9.2c3.8-1.4,7.6-2.7,11.5-3.5"/>
		<path class="st4" d="M84.9,52.5c2.1-0.5,4.3-0.8,6.5-0.8c5.4,0.1,11.8,1.6,16.5,4.3s8.5,5,13.1,8.5c-1.8,0.9-3.6,1.8-5.3,2.7
			c1.7-0.5,3.4-0.7,5.2-0.7c-0.5,2.1-1.3,4.2-2.4,6c-1.4,2.3-2.7,4.8-4.5,6.7c-4.2,4.2-8.5,7.5-13.7,10.4c-5.2,2.8-12,4.6-17.9,4.2
			c-2.1-0.1-4.1-0.5-6.2-0.9c-7.4-1.4-14.8-3.2-22.1-5.2c-2.3-0.7-4.7-1.3-7.1-1.4c-4.2-0.1-8.3,1.7-11.6,4.2
			c-3.3,2.6-5.9,5.9-8.3,9.3c-0.4-1.9,0.2-3.9,1.6-5.3c-0.6,0.2-1.1-0.5-1.1-1.1c0-0.6,0.4-1.1,0.7-1.7c0.7-1.3,1-2.8,1.6-4.2
			c0.6-1.4,1.6-2.7,3-3c-1.6-0.1-3.6-0.4-4.1-1.9c-0.1-0.4-0.1-0.8-0.3-1.2c-0.2-0.5-0.7-0.7-1.2-1c-1.5-1.1-2.3-2.9-2.9-4.6
			c-0.6-1.6-1.3-3.5-0.5-5c2.5,4.4,7.6,7,12.6,7.2c5.1,0.1,10-2,14-5.1c2-1.6,3.8-3.5,5.7-5.3C63.9,60.1,74,54.8,84.9,52.5z"/>
		
			<ellipse transform="matrix(0.9804 -0.1968 0.1968 0.9804 -10.7731 21.8892)" class="st3" cx="104.7" cy="65.1" rx="2.7" ry="2.7"/>
		<g>
			<g>
				<path class="st5" d="M86.6,57.1c-4.4,5.4-1.5,10.6-1.5,16.8c0,5,0.9,11.4,6.6,13c0.6,0.2,1-0.8,0.3-1c-7.4-2.1-5.2-9.6-5.4-14.8
					c-0.1-1.9-0.4-0.8-1.1-3.5c-1-3.6-0.3-7,2-9.9C87.9,57.2,87,56.6,86.6,57.1L86.6,57.1z"/>
			</g>
			<g>
				<path class="st5" d="M74.9,64.2c-2.4,5-0.4,9.6,1.8,14.1c0.3,0.6,1.2,0.1,0.9-0.5c-1-2.1-2.4-4.3-2.7-6.6
					c-0.3-2.1,0-4.8,0.9-6.8C76.1,64,75.1,63.6,74.9,64.2L74.9,64.2z"/>
			</g>
			<g>
				<path class="st5" d="M67.1,63.2c-2.7,2-1.7,6.4-1.1,9.2c0.9,4.3,0.1,9.5,2.8,13.4c0.4,0.5,1.1-0.1,0.8-0.7
					c-2.3-3.4-0.9-6.4-1.5-9.9c-0.6-3.1-3.8-8.6-0.2-11.3C68.3,63.6,67.6,62.8,67.1,63.2L67.1,63.2z"/>
			</g>
			<g>
				<path class="st5" d="M59.1,71.5c-0.7,1.8-0.2,3.4,0.1,5.2c0.4,2.2,0.7,4.4,1.9,6.3c0.4,0.5,1.3,0.1,0.9-0.5
					c-1.1-1.6-1.4-3.4-1.7-5.3c-0.3-1.8-1-3.7-0.3-5.5C60.3,71.3,59.3,70.9,59.1,71.5L59.1,71.5z"/>
			</g>
			<g>
				<path class="st5" d="M51.8,74.8c-2.2,1.7-1,4.5-0.4,6.7c0.2,0.6,1.2,0.4,1-0.2c-0.4-1.8-1.7-4.3,0.1-5.7
					C53,75.2,52.4,74.4,51.8,74.8L51.8,74.8z"/>
			</g>
			<g>
				<path class="st5" d="M44.6,79c0,1.2,0.2,2.4,0.6,3.5c0.2,0.6,1.2,0.1,0.9-0.5c-0.4-1-0.5-1.9-0.5-3C45.6,78.4,44.6,78.3,44.6,79
					L44.6,79z"/>
			</g>
			<g>
				<path class="st5" d="M95.4,76.4c2.7,3.3,7.8,3.9,11.8,4.1c0.7,0,0.7-1,0.1-1c-3.7-0.2-8.6-0.7-11.1-3.8
					C95.8,75.2,95,75.9,95.4,76.4L95.4,76.4z"/>
			</g>
		</g>
		<g>
			<g>
				<path class="st3" d="M85.9,57.2c-4.4,5.4-1.5,10.6-1.5,16.8c0,5,0.9,11.4,6.6,13c0.6,0.2,1-0.8,0.3-1c-7.4-2.1-5.2-9.6-5.4-14.8
					c-0.1-1.9-0.4-0.8-1.1-3.5c-1-3.6-0.3-7,2-9.9C87.2,57.3,86.3,56.7,85.9,57.2L85.9,57.2z"/>
			</g>
			<g>
				<path class="st3" d="M74.2,64.4c-2.4,5-0.4,9.6,1.8,14.1c0.3,0.6,1.2,0.1,0.9-0.5c-1-2.1-2.4-4.3-2.7-6.6
					c-0.3-2.1,0-4.8,0.9-6.8C75.4,64.1,74.4,63.8,74.2,64.4L74.2,64.4z"/>
			</g>
			<g>
				<path class="st3" d="M66.4,63.4c-2.7,2-1.7,6.4-1.1,9.2c0.9,4.3,0.1,9.5,2.8,13.4c0.4,0.5,1.1-0.1,0.8-0.7
					c-2.3-3.4-0.9-6.4-1.5-9.9c-0.6-3.1-3.8-8.6-0.2-11.3C67.6,63.7,66.9,63,66.4,63.4L66.4,63.4z"/>
			</g>
			<g>
				<path class="st3" d="M58.4,71.7c-0.7,1.8-0.2,3.4,0.1,5.2c0.4,2.2,0.7,4.4,1.9,6.3c0.4,0.5,1.3,0.1,0.9-0.5
					c-1.1-1.6-1.4-3.4-1.7-5.3c-0.3-1.8-1-3.7-0.3-5.5C59.6,71.4,58.6,71.1,58.4,71.7L58.4,71.7z"/>
			</g>
			<g>
				<path class="st3" d="M51.1,75c-2.2,1.7-1,4.5-0.4,6.7c0.2,0.6,1.2,0.4,1-0.2c-0.4-1.8-1.7-4.3,0.1-5.7
					C52.3,75.3,51.7,74.6,51.1,75L51.1,75z"/>
			</g>
			<g>
				<path class="st3" d="M43.9,79.1c0,1.2,0.2,2.4,0.6,3.5c0.2,0.6,1.2,0.1,0.9-0.5c-0.4-1-0.5-1.9-0.5-3
					C44.9,78.5,43.9,78.4,43.9,79.1L43.9,79.1z"/>
			</g>
			<g>
				<path class="st3" d="M94.7,76.5c2.7,3.3,7.8,3.9,11.8,4.1c0.7,0,0.7-1,0.1-1c-3.7-0.2-8.6-0.7-11.1-3.8
					C95.1,75.3,94.3,76,94.7,76.5L94.7,76.5z"/>
			</g>
		</g>
	</g>
</g>
</svg>
