<?xml version="1.0" encoding="utf-8"?>
<!-- Generator: Adobe Illustrator 19.2.1, SVG Export Plug-In . SVG Version: 6.00 Build 0)  -->
<svg version="1.1" id="Layer_1" xmlns="http://www.w3.org/2000/svg" xmlns:xlink="http://www.w3.org/1999/xlink" x="0px" y="0px"
	 viewBox="0 0 1023.9 768" style="enable-background:new 0 0 1023.9 768;" xml:space="preserve">
<style type="text/css">
	.st0{fill:#282039;}
	.st1{fill:#2C253F;}
	.st2{fill:#302744;}
	.st3{opacity:0.8;}
	.st4{fill:#F3EED9;stroke:#F3EED9;stroke-linecap:round;stroke-linejoin:round;stroke-miterlimit:10;}
	.st5{opacity:0.8;fill:none;stroke:#F3EED9;stroke-miterlimit:10;}
	.st6{opacity:0.8;fill:#F3EED9;}
	.st7{fill:#FC2A7D;}
	.st8{fill:#ED007E;}
	.st9{fill:#FAD58F;}
	.st10{fill:#FFFFFF;}
</style>
<g>
	<rect transform="matrix(-1 -1.224647e-16 1.224647e-16 -1 1023.9037 768)" class="st0" width="1023.9" height="768"/>
	<g>
		<path class="st1" d="M548.5,394c0,0,6.6,8,0,15h39.4v-15L548.5,394z"/>
		<path class="st1" d="M861.9,409h-281v-15l280.3,0"/>
		<path class="st1" d="M897.6,394c0,0-6.3,8,0.4,15h-40.1v-15L897.6,394z"/>
	</g>
	<path class="st1" d="M400.5,354c0,0,6.6,8,0,15h39.4v-15L400.5,354z"/>
	<path class="st1" d="M573.6,354c0,0-6.3,8,0.4,15H433.9v-15L573.6,354z"/>
	<path class="st1" d="M915.2,409l-384.7,0c-6.9,0-12.5,5.6-12.5,12.5v0c0,6.9,5.6,12.5,12.5,12.5l384.7,0c6.9,0,12.5-5.6,12.5-12.5
		v0C927.7,414.6,922.1,409,915.2,409z"/>
	<path class="st1" d="M1000.1,369l-887.3,0c-6.9,0-12.5,5.6-12.5,12.5l0,0c0,6.9,5.6,12.5,12.5,12.5l887.3,0
		c6.9,0,12.5-5.6,12.5-12.5l0,0C1012.6,374.6,1007,369,1000.1,369z"/>
	<path class="st1" d="M599.8,330.3l-217.5,0c-6.9,0-12.5,5.6-12.5,12.5v0c0,6.9,5.6,12.5,12.5,12.5l217.5,0
		c6.9,0,12.5-5.6,12.5-12.5v0C612.3,335.9,606.7,330.3,599.8,330.3z"/>
	<path class="st2" d="M895.2,32c0,0-6.7,8,0,15h-39.3V32L895.2,32z"/>
	<g>
		<path class="st1" d="M747.2,72c0,0-6.7,8,0,15h-39.3V72L747.2,72z"/>
		<path class="st1" d="M433.9,87h281V72l-280.3,0"/>
		<path class="st1" d="M398.1,72c0,0,6.2,8-0.4,15h40.2V72L398.1,72z"/>
	</g>
	<path class="st1" d="M642.1,32c0,0,6.2,8-0.4,15h230.2V32L642.1,32z"/>
	<path class="st1" d="M380.5,87l384.7,0c6.9,0,12.5,5.6,12.5,12.5v0c0,6.9-5.6,12.5-12.5,12.5l-384.7,0c-6.9,0-12.5-5.6-12.5-12.5v0
		C368,92.6,373.6,87,380.5,87z"/>
	<path class="st1" d="M72.1,47l928,0c6.9,0,12.5,5.6,12.5,12.5v0c0,6.9-5.6,12.5-12.5,12.5l-928,0c-6.9,0-12.5-5.6-12.5-12.5v0
		C59.6,52.6,65.2,47,72.1,47z"/>
	<path class="st1" d="M623.9,8.3l289.5,0c6.9,0,12.5,5.6,12.5,12.5v0c0,6.9-5.6,12.5-12.5,12.5l-289.5,0c-6.9,0-12.5-5.6-12.5-12.5
		v0C611.4,13.9,617,8.3,623.9,8.3z"/>
	<g>
		<g>
			<path class="st1" d="M756.2,716c0,0-6.7,8,0,15h-39.3v-15L756.2,716z"/>
			<path class="st1" d="M442.9,731h281v-15l-280.3,0"/>
			<path class="st1" d="M407.1,716c0,0,6.2,8-0.4,15h40.2v-15L407.1,716z"/>
		</g>
		<path class="st1" d="M904.2,676c0,0-6.7,8,0,15h-39.3v-15L904.2,676z"/>
		<path class="st1" d="M731.1,676c0,0,6.2,8-0.4,15h140.2v-15L731.1,676z"/>
		<path class="st1" d="M389.5,731l384.7,0c6.9,0,12.5,5.6,12.5,12.5l0,0c0,6.9-5.6,12.5-12.5,12.5l-384.7,0
			c-6.9,0-12.5-5.6-12.5-12.5v0C377,736.6,382.6,731,389.5,731z"/>
		<path class="st1" d="M304.6,691l704.5,0c6.9,0,12.5,5.6,12.5,12.5v0c0,6.9-5.6,12.5-12.5,12.5l-704.5,0c-6.9,0-12.5-5.6-12.5-12.5
			l0,0C292.1,696.6,297.7,691,304.6,691z"/>
		<path class="st1" d="M704.9,652.3l217.5,0c6.9,0,12.5,5.6,12.5,12.5v0c0,6.9-5.6,12.5-12.5,12.5l-217.5,0
			c-6.9,0-12.5-5.6-12.5-12.5l0,0C692.4,657.9,698,652.3,704.9,652.3z"/>
	</g>
	<g>
		<g class="st3">
			<line class="st4" x1="802.8" y1="606.7" x2="799.3" y2="614.7"/>
			<line class="st4" x1="805.1" y1="612.4" x2="797" y2="609"/>
		</g>
		<circle class="st5" cx="746.9" cy="467.5" r="4.7"/>
		<circle class="st5" cx="756.9" cy="409.5" r="4.7"/>
		<ellipse transform="matrix(0.7071 -0.7071 0.7071 0.7071 -363.2271 596.0913)" class="st6" cx="537.9" cy="736.5" rx="2" ry="2"/>
		<circle class="st6" cx="524.9" cy="366.5" r="5.1"/>
		<circle class="st6" cx="705.9" cy="399.5" r="5.1"/>
		<g class="st3">
			<line class="st4" x1="831" y1="385.4" x2="831" y2="394.1"/>
			<line class="st4" x1="835.4" y1="389.7" x2="826.7" y2="389.7"/>
		</g>
		<g class="st3">
			<line class="st4" x1="330.7" y1="379.4" x2="329.4" y2="388"/>
			<line class="st4" x1="334.4" y1="384.4" x2="325.7" y2="383.1"/>
		</g>
		<g class="st3">
			<line class="st4" x1="460.7" y1="349.4" x2="461.3" y2="358.1"/>
			<line class="st4" x1="465.4" y1="353.4" x2="456.7" y2="354"/>
		</g>
		<circle class="st5" cx="917.9" cy="382.5" r="3.5"/>
		<ellipse transform="matrix(0.7071 -0.7071 0.7071 0.7071 -124.0708 451.4662)" class="st6" cx="482.9" cy="375.5" rx="2" ry="2"/>
		<ellipse transform="matrix(0.7071 -0.7071 0.7071 0.7071 95.8392 360.3766)" class="st6" cx="482.9" cy="64.5" rx="2" ry="2"/>
		<ellipse transform="matrix(0.7071 -0.7071 0.7071 0.7071 50.0977 245.9467)" class="st6" cx="321.9" cy="62.5" rx="2" ry="2"/>
		<ellipse transform="matrix(0.7071 -0.7071 0.7071 0.7071 -133.116 525.6291)" class="st6" cx="567.9" cy="423.5" rx="2" ry="2"/>
		<ellipse transform="matrix(0.7071 -0.7071 0.7071 0.7071 -39.7421 723.0538)" class="st6" cx="852.9" cy="409.5" rx="2" ry="2"/>
		<g class="st3">
			<line class="st4" x1="615.1" y1="384.2" x2="617.9" y2="392.5"/>
			<line class="st4" x1="620.6" y1="387" x2="612.3" y2="389.8"/>
		</g>
		<circle class="st6" cx="309.9" cy="575.5" r="7.1"/>
		<circle class="st6" cx="544.9" cy="499.5" r="5.1"/>
		<circle class="st5" cx="523.9" cy="264.5" r="7"/>
		<g class="st3">
			<line class="st4" x1="404.3" y1="86.2" x2="406.7" y2="94.6"/>
			<line class="st4" x1="409.7" y1="89.2" x2="401.3" y2="91.6"/>
		</g>
		<g class="st3">
			<line class="st4" x1="730.1" y1="309.2" x2="732.9" y2="317.5"/>
			<line class="st4" x1="735.6" y1="312" x2="727.3" y2="314.8"/>
		</g>
		<circle class="st5" cx="827.9" cy="41.5" r="3.5"/>
		<circle class="st6" cx="936.9" cy="181.5" r="5.1"/>
		<ellipse transform="matrix(0.7071 -0.7071 0.7071 0.7071 -255.9357 501.1158)" class="st6" cx="476.9" cy="559.5" rx="2" ry="2"/>
		<circle class="st6" cx="968.9" cy="585.5" r="5.1"/>
		<g class="st3">
			<line class="st4" x1="587.1" y1="81.3" x2="589.9" y2="89.6"/>
			<line class="st4" x1="592.6" y1="84.1" x2="584.3" y2="86.8"/>
		</g>
		<circle class="st6" cx="689.9" cy="60.5" r="5.1"/>
		<circle class="st6" cx="779.9" cy="21.5" r="4.5"/>
		<ellipse transform="matrix(0.7071 -0.7071 0.7071 0.7071 165.5305 480.6263)" class="st6" cx="662.9" cy="40.5" rx="2" ry="2"/>
		<circle class="st5" cx="442.9" cy="84.5" r="4.5"/>
		<circle class="st5" cx="405.9" cy="377.5" r="3"/>
		<circle class="st5" cx="517.2" cy="731.5" r="4.7"/>
		<circle class="st6" cx="749.2" cy="688.5" r="5.1"/>
		<circle class="st6" cx="568.2" cy="721.5" r="5.1"/>
		<g class="st3">
			<line class="st4" x1="443.1" y1="707.4" x2="443.1" y2="716.1"/>
			<line class="st4" x1="438.7" y1="711.7" x2="447.4" y2="711.7"/>
		</g>
		<g class="st3">
			<line class="st4" x1="943.4" y1="701.4" x2="944.7" y2="710"/>
			<line class="st4" x1="939.8" y1="706.4" x2="948.4" y2="705.1"/>
		</g>
		<g class="st3">
			<line class="st4" x1="813.4" y1="671.4" x2="812.8" y2="680.1"/>
			<line class="st4" x1="808.7" y1="675.4" x2="817.4" y2="676"/>
		</g>
		<circle class="st5" cx="356.2" cy="704.5" r="3.5"/>
		<ellipse transform="matrix(0.7071 -0.7071 0.7071 0.7071 -261.475 763.7442)" class="st6" cx="791.2" cy="697.5" rx="2" ry="2"/>
		<ellipse transform="matrix(0.7071 -0.7071 0.7071 0.7071 -320.3121 717.699)" class="st6" cx="706.2" cy="745.5" rx="2" ry="2"/>
		<ellipse transform="matrix(0.7071 -0.7071 0.7071 0.7071 -393.8873 512.0729)" class="st6" cx="421.2" cy="731.5" rx="2" ry="2"/>
		<g class="st3">
			<line class="st4" x1="659" y1="706.2" x2="656.3" y2="714.5"/>
			<line class="st4" x1="653.5" y1="709" x2="661.8" y2="711.8"/>
		</g>
		<circle class="st5" cx="868.2" cy="699.5" r="3"/>
	</g>
	<g class="st3">
		<line class="st4" x1="146.2" y1="593.5" x2="142.7" y2="601.5"/>
		<line class="st4" x1="148.5" y1="599.2" x2="140.4" y2="595.8"/>
	</g>
	<circle class="st5" cx="90.3" cy="454.2" r="4.7"/>
	<circle class="st5" cx="100.3" cy="396.2" r="4.7"/>
	<circle class="st6" cx="49.3" cy="386.2" r="5.1"/>
	<g class="st3">
		<line class="st4" x1="174.4" y1="372.1" x2="174.4" y2="380.9"/>
		<line class="st4" x1="178.8" y1="376.5" x2="170.1" y2="376.5"/>
	</g>
	<circle class="st5" cx="261.3" cy="369.2" r="3.5"/>
	<ellipse transform="matrix(0.7071 -0.7071 0.7071 0.7071 -222.6863 254.887)" class="st6" cx="196.3" cy="396.2" rx="2" ry="2"/>
	<g class="st3">
		<line class="st4" x1="73.5" y1="296" x2="76.3" y2="304.3"/>
		<line class="st4" x1="79" y1="298.8" x2="70.7" y2="301.5"/>
	</g>
	<circle class="st5" cx="171.3" cy="28.2" r="3.5"/>
	<circle class="st6" cx="280.3" cy="168.3" r="5.1"/>
	<circle class="st6" cx="312.3" cy="572.2" r="5.1"/>
	<circle class="st6" cx="33.3" cy="47.3" r="5.1"/>
	<circle class="st6" cx="123.3" cy="8.3" r="4.5"/>
	<ellipse transform="matrix(0.7071 -0.7071 0.7071 0.7071 -17.4137 12.4594)" class="st6" cx="6.3" cy="27.2" rx="2" ry="2"/>
	<circle class="st6" cx="92.6" cy="675.2" r="5.1"/>
	<g class="st3">
		<line class="st4" x1="286.8" y1="688.2" x2="288.1" y2="696.8"/>
		<line class="st4" x1="283.2" y1="693.1" x2="291.8" y2="691.8"/>
	</g>
	<g class="st3">
		<line class="st4" x1="156.8" y1="658.1" x2="156.2" y2="666.8"/>
		<line class="st4" x1="152.1" y1="662.2" x2="160.8" y2="662.8"/>
	</g>
	<ellipse transform="matrix(0.7071 -0.7071 0.7071 0.7071 -444.4199 295.5767)" class="st6" cx="134.6" cy="684.2" rx="2" ry="2"/>
	<ellipse transform="matrix(0.7071 -0.7071 0.7071 0.7071 -503.257 249.5314)" class="st6" cx="49.6" cy="732.2" rx="2" ry="2"/>
	<g class="st3">
		<line class="st4" x1="22.4" y1="693" x2="19.7" y2="701.3"/>
		<line class="st4" x1="16.9" y1="695.8" x2="25.2" y2="698.5"/>
	</g>
	<circle class="st5" cx="211.6" cy="686.2" r="3"/>
	<circle class="st0" cx="505.9" cy="361.8" r="173.2"/>
	<g>
		<path class="st7" d="M678.8,408.9c-3.4,1.4-7,3.1-10.6,4.1c0,0.1-0.1,0.2-0.1,0.4c-0.7,2.1-1.4,4.1-2.1,6.1
			c-0.3,0.9-0.7,1.8-1,2.7c-1.6,4.2-3.4,8.3-5.3,12.2c-0.2,0.3-0.3,0.7-0.5,1l-0.1,0.1c-4.5,9.2-9.9,18.1-16.1,26.4
			c-3.1,4.2-6.3,8.1-9.6,11.8c-4.7,5.3-9.8,10.4-15.1,15c-0.1,0.1-0.2,0.2-0.3,0.2c-24.3,21.1-54.1,34.8-86.1,39.7
			c-32.1,4.8-64.5,0.5-93.9-12.5l-0.3-0.1c0,0,0,0,0,0c-9.5-4-18.6-9.3-27.2-15.2c-1.7-1.2-3.4-2.4-4.8-3.4c-0.5-0.4-1-0.7-1.5-1.1
			c-1.3-0.9-2.5-1.9-3.7-2.9c-6.2-5-12.1-10.4-17.5-16.1l-0.1-0.1c-0.3-0.2-0.5-0.5-0.8-0.8c-6-6.4-11.6-13.5-16.6-21l-0.2-0.4
			c0,0,0-0.1-0.1-0.1c-1.2-1.8-2.4-3.6-3.5-5.5c-3.9-0.5-7.7-1-11.4-1.6c1,1.9,2.1,3.7,3.2,5.6c1.3,2.2,2.7,4.3,4.1,6.5
			c0.1,0.2,0.2,0.4,0.4,0.7c5.3,7.8,11.1,15.2,17.5,22c0.3,0.3,0.6,0.7,1,1c5.7,6,11.8,11.7,18.4,16.9c1.3,1,2.6,2,3.8,3
			c0.6,0.4,1.1,0.8,1.6,1.2c1.5,1.1,3.3,2.4,5.1,3.6c9,6.2,18.6,11.4,28.7,15.9l0.3-0.1c0,0,0,0,0,0c22.7,10,47.2,15.4,71.9,15.4
			c8.9,0,17.9-0.6,26.9-1.9c33.7-5.1,65-19.5,90.6-41.7c0.1-0.1,0.2-0.1,0.3-0.2c5.6-4.9,11-10.2,15.9-15.8
			c3.5-3.9,6.9-8.1,10.2-12.4c6.5-8.8,12.2-18.1,16.9-27.7c0.2-0.4,0.4-0.8,0.6-1.3c2-4.2,3.9-8.5,5.6-12.9
			c1.3-3.2,2.5-6.7,3.6-10.2c0.3-1.1,0.7-2.1,1-3.2c0.3-1,0.6-2,0.9-2.9C678.8,409,678.8,408.9,678.8,408.9
			C678.8,408.9,678.8,408.9,678.8,408.9z"/>
		<path class="st8" d="M685.4,365.3c0,0.9,0,1.8,0,2.8c-0.1,3.1-0.4,6.3-0.7,9.6l0,0.2l-0.1,0.7c-1,10.2-2.9,20.5-5.7,30.4
			c0,0,0,0-0.1,0c-3.4,1.4-7,3.1-10.6,4.1c0.4-1.2,0.8-2.4,1.1-3.6c3.1-10.2,5.2-20.8,6.2-31.4l0-0.2l0-0.6c0.3-3.2,0.4-6.4,0.5-9.5
			c0-0.8-0.2-1.7-0.2-2.6V365c0-2.4,0.3-4.8,0.3-7.1c0-1.4,0.2-2.7,0.1-4.1c-0.2-6.1-0.8-12.3-1.7-18.5c-0.3-2.1-0.6-4-1-5.7l0-0.2
			c0-0.1,0-0.2,0-0.3l-0.1-0.5c0-0.1,0-0.2,0-0.3l-0.1-0.5c0-0.1,0-0.2-0.1-0.3l-0.1-0.5c0-0.1-0.1-0.3-0.1-0.4l0-0.2l-0.3-1.4
			c-0.1-0.6-0.3-1.2-0.4-1.8l-0.2-0.8c-0.2-1-0.4-2.1-0.7-3.1l-0.8-3.2c0-0.1-0.1-0.5-0.1-0.6c-0.4-1.7-1-3.5-1.6-5.5h0
			c-0.4-1-0.7-2.1-1.1-3.3l-0.1-0.3c-12.5-37.4-38-69.5-71.8-90.4c-34.2-21.1-74.9-29.4-114.6-23.4c-42,6.3-79.8,28-106.5,60.9
			l-0.2,0.3c-0.1,0.1-0.2,0.2-0.3,0.3c-3.6,4.5-7,9.1-9.9,13.8L364,268c-1.5,2.3-3,4.7-4.4,7.1l-0.1,0.1c-0.9,1.6-1.9,3.2-2.7,4.8
			c-1,1.9-1.9,3.6-2.8,5.3c-0.7,1.3-1.4,2.8-2.1,4.4c-1.1,2.4-2.2,4.9-3.1,7.2c-0.7,1.7-1.3,3.3-1.9,4.8l-0.3,0.9
			c-0.3,0.8-0.6,1.5-0.8,2.3l-0.1,0.2c-0.2,0.4-0.3,0.8-0.4,1.3c-0.5,1.5-1,3-1.5,4.5c-0.8,2.7-1.6,5.4-2.2,7.9l0,0l-0.2,0.9
			c-1,4-1.8,7.6-2.4,11.1c-1,5.3-1.6,10.7-2.1,16.1c-0.1,1.8-0.3,3.7-0.4,5.5c-0.5,11.1,0.1,22.3,1.7,33.4
			c3.4,22.8,11.2,44,23.1,63.4c-3.9-0.5-7.7-1-11.4-1.6c-10.4-18.6-17.3-38.9-20.6-60.4c-1.6-10.3-2.2-20.6-2-30.8
			c0-1.9,0.1-3.7,0.2-5.6c0.4-7.2,1.2-14.4,2.5-21.6c0.6-3.7,1.4-7.4,2.5-11.5c0-0.2,0.1-0.3,0.1-0.4c0.7-2.9,1.5-6,2.5-9.1
			c0.5-1.6,1-3.1,1.5-4.7c0.1-0.4,0.3-1,0.5-1.5c0.3-0.8,0.6-1.6,0.9-2.4l0.3-0.9c0.6-1.7,1.3-3.4,2-5.1c1-2.5,2.1-5.1,3.3-7.7
			c0.8-1.7,1.5-3.2,2.2-4.6c0.9-1.7,1.8-3.6,2.9-5.5c0.9-1.7,1.9-3.5,2.9-5.2c1.5-2.6,3.1-5.2,4.8-7.7l0.1-0.1
			c3.1-4.9,6.7-9.7,10.5-14.5l0.2-0.3c0.1-0.1,0.2-0.2,0.3-0.3c28.1-34.6,67.9-57.4,112.1-64c41.9-6.3,84.7,2.4,120.7,24.7
			c35.6,22,62.4,55.8,75.6,95.2l0.1,0.3c1.1,3.1,1.9,6.1,2.6,8.1h0c0.2,1,0.3,1.2,0.4,1.8l0.7,3.4c0,0.1,0,0.3,0,0.5v0
			c0,1,0.6,1.9,0.8,2.9l0.2,0.5c0.2,0.8,0.4,1.6,0.5,2.3l0.3,1.2c0.1,0.3,0.2,0.6,0.2,1c0.1,0.3,0.1,0.6,0.2,0.8
			c0.1,0.3,0.1,0.5,0.1,0.7c0.1,0.3,0.1,0.5,0.2,0.8c0.4,1.8,0.7,3.8,1,6c1,6.6,1.6,13.1,1.9,19.5c0.1,1.4,0.1,2.9,0.1,4.4
			C685.4,360.1,685.5,362.7,685.4,365.3z"/>
	</g>
	<g>
		<path class="st9" d="M746.7,353.7c-2.1-18.4-26.1-32.7-67.9-41.7h0c0.2,1,0.3,1.2,0.4,1.8l0.8,3.4c0,0.1,0,0.3,0,0.4l0.2,0
			c16.9,3.6,30.8,8.3,41,13.8c12.5,6.7,19.6,14.5,20.6,23c1.9,17.1-20.8,36.9-62.4,54.4c-0.2,0.1-0.3,0.1-0.5,0.1c0,0,0,0-0.1,0
			c-3.4,1.4-7,3.1-10.6,4.1c0,0-0.1,0-0.1,0h0c-41.8,16-95.7,28.3-153.5,34.9c-55.9,6.4-109.4,6.9-153,1.4c-3.9-0.5-7.7-1-11.4-1.6
			c-1.7-0.3-3.4-0.5-5-0.8c-44.5-7.7-71.1-21.9-73-39c-1.8-16.1,18.3-34.7,55.5-51.4c0-1.9,0.1-3.7,0.2-5.6
			c-41.4,18.2-62.9,38.5-60.7,57.5c2.2,19.7,29.6,35.1,77.1,43.4c3,0.5,6,1,9.1,1.5c3.8,0.6,7.7,1.1,11.6,1.5
			c19.4,2.3,40.6,3.4,63.1,3.4c27.5,0,56.9-1.7,87-5.1c56.4-6.4,109.2-18.2,150.8-33.6c3.8-1.4,7.4-2.8,11-4.2
			c1.5-0.6,2.9-1.2,4.3-1.8c42.5-17.8,65.6-38,65.6-57C746.8,355.5,746.8,354.6,746.7,353.7z"/>
	</g>
	<g>
		<path class="st10" d="M417.5,291.5l10.3-0.4l2.1,51.9l-9,0.4l-1.4-34.8l-7.3,19.9l-7.3,0.3l-8.8-19.2l1.4,34.8l-9,0.4l-2.1-51.9
			l11-0.4l11.1,25L417.5,291.5z"/>
		<path class="st10" d="M447.1,311.7L464,311l0.3,8.3l-16.9,0.7l0.5,13.6l20.3-0.8l0.3,8.6l-29.8,1.2l-2.1-51.9l29.1-1.2l0.3,8.6
			l-19.7,0.8L447.1,311.7z"/>
		<path class="st10" d="M485.4,340.7l-1.8-43.5l-12.2,0.5l-0.3-8.3l34-1.4l0.3,8.3l-12.2,0.5l1.8,43.5L485.4,340.7z"/>
		<path class="st10" d="M522.3,308.7l16.9-0.7l0.3,8.3l-16.9,0.7l0.5,13.6l20.3-0.8l0.3,8.6l-29.8,1.2l-2.1-51.9l29.1-1.2l0.3,8.6
			l-19.7,0.8L522.3,308.7z"/>
		<path class="st10" d="M585.8,302.3l0.7,16.6c0.5,12.1-4.6,18.7-17.3,19.2c-12.6,0.5-18.2-5.6-18.7-17.7l-0.7-16.6
			c-0.5-12.1,4.6-18.7,17.2-19.2C579.6,284.1,585.3,290.2,585.8,302.3z M560.3,320.3c0.3,6.5,2.4,9.5,8.5,9.3c6.2-0.2,8-3.5,7.8-9.9
			l-0.7-17.3c-0.3-6.4-2.4-9.5-8.6-9.3c-6.1,0.2-8,3.5-7.7,9.9L560.3,320.3z"/>
		<path class="st10" d="M604.2,316.5l0.8,19.4l-9.3,0.4l-2.1-51.9l15.1-0.6c11.4-0.5,17.6,3.7,18,14.5l0.1,1.4
			c0.3,6.9-2.1,11.1-6.6,13.3l9.6,21.8l-10.5,0.4l-7.5-19.1L604.2,316.5z M603.8,307.9l6.2-0.2c5.7-0.2,7.3-2.1,7.1-7.6l0-0.8
			c-0.2-5.9-2.7-7-8-6.8l-5.9,0.2L603.8,307.9z"/>
		<path class="st10" d="M420.2,360.4l10.3-0.4l2.1,51.9l-9,0.4l-1.4-34.8l-7.3,19.9l-7.3,0.3l-8.8-19.2l1.4,34.8l-9,0.4l-2.1-51.9
			l11-0.4l11.1,25L420.2,360.4z"/>
		<path class="st10" d="M451.1,411.1l-9.5,0.4l-2.1-51.9l9.5-0.4L451.1,411.1z"/>
		<path class="st10" d="M466.7,371.9c0.2,4.2,2.3,5.8,8.3,7.1c8.5,1.8,16.5,4.9,16.9,15.7c0.4,10.1-4.5,15.7-17,16.2
			c-12.2,0.5-17.2-6.1-17.5-14.2l9.3-0.4c0.4,4.1,2.6,6.4,8.4,6.2c5.5-0.2,7.5-2.3,7.3-7.3c-0.2-4.2-2.6-6-10.3-7.7
			c-7.7-1.7-14.4-4.5-14.8-14.9c-0.4-9.4,5-14.7,15.3-15.1c9.5-0.4,16.3,3.1,17.6,13.9l-9.4,0.4c-0.7-4.4-3.2-6.1-7.7-5.9
			C468.4,366,466.5,367.9,466.7,371.9z"/>
		<path class="st10" d="M505.6,370.3c0.2,4.2,2.3,5.8,8.3,7.1c8.5,1.8,16.5,4.9,16.9,15.7c0.4,10.1-4.5,15.7-17,16.2
			c-12.2,0.5-17.2-6.1-17.5-14.2l9.3-0.4c0.4,4.1,2.6,6.4,8.4,6.2c5.5-0.2,7.5-2.3,7.3-7.3c-0.2-4.2-2.6-6-10.3-7.7
			c-7.7-1.7-14.4-4.5-14.8-14.9c-0.4-9.4,5-14.7,15.3-15.1c9.5-0.4,16.3,3.1,17.6,13.9l-9.4,0.4c-0.7-4.4-3.2-6.1-7.7-5.9
			C507.3,364.4,505.5,366.4,505.6,370.3z"/>
		<path class="st10" d="M547.5,407.2l-9.5,0.4l-2.1-51.9l9.5-0.4L547.5,407.2z"/>
		<path class="st10" d="M590.7,371.2l0.7,16.6c0.5,12.1-4.6,18.7-17.3,19.2c-12.6,0.5-18.2-5.6-18.7-17.7l-0.7-16.6
			c-0.5-12.1,4.6-18.7,17.2-19.2C584.6,352.9,590.2,359.1,590.7,371.2z M565.3,389.2c0.3,6.5,2.4,9.5,8.5,9.3c6.2-0.2,8-3.5,7.8-9.9
			l-0.7-17.3c-0.3-6.4-2.4-9.5-8.6-9.3c-6.1,0.2-8,3.5-7.7,9.9L565.3,389.2z"/>
		<path class="st10" d="M608.2,352.8l17.9,34.4l-1.4-35.1l8.8-0.4l2.1,51.9l-9.5,0.4l-18.1-33.7l1.4,34.4l-8.8,0.4l-2.1-51.9
			L608.2,352.8z"/>
	</g>
</g>
</svg>
